<?xml version="1.0" encoding="utf-8"?>
<!-- Generator: Adobe Illustrator 16.0.4, SVG Export Plug-In . SVG Version: 6.00 Build 0)  -->
<!DOCTYPE svg PUBLIC "-//W3C//DTD SVG 1.1//EN" "http://www.w3.org/Graphics/SVG/1.1/DTD/svg11.dtd">
<svg version="1.1" id="Layer_1" xmlns="http://www.w3.org/2000/svg" xmlns:xlink="http://www.w3.org/1999/xlink" x="0px" y="0px"
	 width="32px" height="32px" viewBox="0 0 32 32" enable-background="new 0 0 32 32" xml:space="preserve">
<g>
	<path d="M8.13,4.529c-0.663,0-1.248,0.433-1.442,1.067L0.231,26.721c-0.14,0.456-0.055,0.952,0.229,1.336
		c0.285,0.385,0.734,0.611,1.212,0.611h2.475c0.678,0,1.272-0.452,1.453-1.105l1.414-5.104h6.913l1.541,5.138
		c0.191,0.639,0.778,1.074,1.444,1.074h2.707c0.479,0,0.93-0.229,1.214-0.611c0.284-0.388,0.368-0.885,0.226-1.343L14.507,5.59
		c-0.196-0.631-0.779-1.061-1.44-1.061H8.13z M7.801,18.359c0,0,1.406-5.354,2.147-8.2c0.049-0.189,0.218-0.321,0.413-0.323
		c0.195-0.002,0.367,0.126,0.42,0.313l2.358,8.21H7.801z"/>
	<path d="M27.16,8.819V4.811c0-0.51-0.413-0.923-0.924-0.923h-1.61c-0.51,0-0.923,0.413-0.923,0.923v4.008h-3.751
		c-0.511,0-0.923,0.413-0.923,0.923v1.483c0,0.51,0.412,0.923,0.923,0.923h3.751v4.007c0,0.51,0.413,0.923,0.923,0.923h1.61
		c0.511,0,0.924-0.413,0.924-0.923v-4.007h3.751c0.51,0,0.923-0.413,0.923-0.923V9.742c0-0.51-0.413-0.923-0.923-0.923H27.16z"/>
</g>
</svg>
