<?xml version="1.0" encoding="utf-8"?>
<!-- Generator: Adobe Illustrator 16.0.4, SVG Export Plug-In . SVG Version: 6.00 Build 0)  -->
<!DOCTYPE svg PUBLIC "-//W3C//DTD SVG 1.1//EN" "http://www.w3.org/Graphics/SVG/1.1/DTD/svg11.dtd">
<svg version="1.1" id="Layer_1" xmlns="http://www.w3.org/2000/svg" xmlns:xlink="http://www.w3.org/1999/xlink" x="0px" y="0px"
	 width="32px" height="32px" viewBox="0 0 32 32" enable-background="new 0 0 32 32" xml:space="preserve">
<path d="M27.788,0.216c-1.146,0-2.076,0.93-2.076,2.076v3.011h-8.603v-1.46c0-0.479-0.389-0.868-0.868-0.868H14.19
	c-0.479,0-0.868,0.389-0.868,0.868v1.46h-1.298v-1.46c0-0.479-0.389-0.868-0.868-0.868H9.104c-0.48,0-0.868,0.389-0.868,0.868v1.46
	H6.341V2.292c0-1.147-0.929-2.076-2.076-2.076H3.768c-1.388,0-2.512,1.125-2.512,2.512v27.065c0,1.146,0.929,2.076,2.076,2.076
	h0.934c1.146,0,2.076-0.93,2.076-2.076V27.27h14.123v1.405c0,0.479,0.389,0.868,0.868,0.868h2.051c0.479,0,0.868-0.389,0.868-0.868
	V27.27h1.46v2.523c0,1.146,0.929,2.076,2.076,2.076h0.881c1.146,0,2.076-0.93,2.076-2.076V2.292c0-1.147-0.929-2.076-2.076-2.076
	H27.788z M8.235,7.79v1.46c0,0.479,0.389,0.868,0.868,0.868h2.052c0.479,0,0.868-0.389,0.868-0.868V7.79h1.299v1.46
	c0,0.479,0.389,0.868,0.868,0.868h2.051c0.479,0,0.868-0.389,0.868-0.868V7.79h8.604v7.251h-1.461v-1.674
	c0-0.479-0.389-0.868-0.868-0.868h-2.052c-0.479,0-0.868,0.389-0.868,0.868v1.674h-1.298v-1.674c0-0.479-0.389-0.868-0.868-0.868
	h-2.051c-0.479,0-0.868,0.389-0.868,0.868v1.674h-1.84v-1.674c0-0.479-0.389-0.868-0.868-0.868H10.62
	c-0.479,0-0.868,0.389-0.868,0.868v1.674H6.341V7.79H8.235z M24.251,24.727v-1.402c0-0.479-0.39-0.868-0.868-0.868h-2.052
	c-0.479,0-0.868,0.39-0.868,0.868v1.402H6.34v-7.197h3.41v1.188c0,0.479,0.389,0.868,0.868,0.868h2.051
	c0.48,0,0.868-0.389,0.868-0.868v-1.188h1.84v1.188c0,0.479,0.389,0.868,0.868,0.868h2.051c0.479,0,0.868-0.389,0.868-0.868v-1.188
	h1.298v1.188c0,0.479,0.39,0.868,0.868,0.868h2.052c0.479,0,0.868-0.389,0.868-0.868v-1.188h1.461v7.197H24.251L24.251,24.727z"/>
</svg>
