<?xml version="1.0" encoding="utf-8"?>
<!-- Generator: Adobe Illustrator 16.0.4, SVG Export Plug-In . SVG Version: 6.00 Build 0)  -->
<!DOCTYPE svg PUBLIC "-//W3C//DTD SVG 1.1//EN" "http://www.w3.org/Graphics/SVG/1.1/DTD/svg11.dtd">
<svg version="1.1" id="Layer_1" xmlns="http://www.w3.org/2000/svg" xmlns:xlink="http://www.w3.org/1999/xlink" x="0px" y="0px"
	 width="32px" height="32px" viewBox="0 0 32 32" enable-background="new 0 0 32 32" xml:space="preserve">
<g>
	<circle cx="15.729" cy="7.152" r="0.862"/>
	<circle cx="15.729" cy="24.331" r="0.862"/>
	<circle cx="24.318" cy="15.741" r="0.862"/>
	<circle cx="7.138" cy="15.741" r="0.862"/>
	<circle cx="21.803" cy="9.667" r="0.86"/>
	<circle cx="9.655" cy="21.815" r="0.86"/>
	<circle cx="21.802" cy="21.816" r="0.861"/>
	<path d="M10.264,10.277c0.338-0.337,0.337-0.883,0-1.218c-0.337-0.337-0.881-0.337-1.22,0C8.71,9.394,8.71,9.94,9.047,10.276
		C9.383,10.613,9.927,10.614,10.264,10.277z"/>
	<path d="M3.471,25.072l-2.699,4.084c-0.557,0.841-0.326,1.973,0.516,2.527c0.309,0.205,0.658,0.303,1.005,0.303
		c0.59,0,1.171-0.288,1.521-0.819l2.257-3.414C5.1,26.969,4.226,26.068,3.471,25.072z"/>
	<path d="M30.674,29.157l-2.693-4.075c-0.756,0.995-1.631,1.896-2.602,2.68l2.252,3.407c0.35,0.531,0.932,0.819,1.521,0.819
		c0.347,0,0.695-0.098,1.006-0.303C30.999,31.13,31.229,29.998,30.674,29.157z"/>
	<path d="M1.18,10.802c1.585-4.603,5.294-8.225,9.953-9.686C10.076,0.51,8.855,0.161,7.552,0.161c-1.078,0-2.102,0.238-3.02,0.662
		C4.117,0.495,3.595,0.297,3.024,0.297c-1.345,0-2.433,1.089-2.433,2.432c0,0.544,0.181,1.045,0.482,1.45
		c-0.48,0.968-0.752,2.058-0.752,3.212C0.322,8.626,0.634,9.786,1.18,10.802z"/>
	<path d="M26.547,4.872c1.443,1.43,2.605,3.143,3.396,5.048c0.295-0.787,0.459-1.638,0.459-2.528c0-1.154-0.271-2.245-0.752-3.212
		c0.301-0.405,0.479-0.906,0.479-1.45c0-1.343-1.089-2.432-2.432-2.432c-0.57,0-1.095,0.197-1.509,0.525
		c-0.92-0.423-1.94-0.661-3.021-0.661c-1.2,0-2.33,0.295-3.325,0.813c2.17,0.604,4.148,1.672,5.82,3.092
		C25.971,4.323,26.264,4.592,26.547,4.872z"/>
	<path d="M29.759,15.795c0-7.736-6.294-14.029-14.029-14.029C7.993,1.766,1.7,8.059,1.7,15.795c0,7.736,6.293,14.029,14.03,14.029
		C23.465,29.824,29.759,23.531,29.759,15.795z M15.729,26.175c-5.725,0-10.382-4.657-10.382-10.38
		c0-5.724,4.657-10.381,10.382-10.381c5.724,0,10.38,4.657,10.38,10.381C26.109,21.518,21.453,26.175,15.729,26.175z"/>
	<path d="M21.613,14.806h-3.746c-0.199-0.401-0.465-0.799-0.865-1.04v-3.237c0-0.671-0.597-1.216-1.269-1.216
		s-1.269,0.544-1.269,1.216v3.237c-0.669,0.414-1.129,1.167-1.129,2.029c0,1.307,1.074,2.364,2.381,2.364
		c0.772,0,1.47-0.415,1.902-0.949h3.995c0.673,0,1.217-0.53,1.217-1.202C22.831,15.336,22.287,14.806,21.613,14.806z"/>
</g>
</svg>
