<?xml version="1.0" encoding="utf-8"?>
<!-- Generator: Adobe Illustrator 16.0.4, SVG Export Plug-In . SVG Version: 6.00 Build 0)  -->
<!DOCTYPE svg PUBLIC "-//W3C//DTD SVG 1.1//EN" "http://www.w3.org/Graphics/SVG/1.1/DTD/svg11.dtd">
<svg version="1.1" id="Layer_1" xmlns="http://www.w3.org/2000/svg" xmlns:xlink="http://www.w3.org/1999/xlink" x="0px" y="0px"
	 width="32px" height="32px" viewBox="0 0 32 32" enable-background="new 0 0 32 32" xml:space="preserve">
<g>
	<path d="M3.006,25.686c0,0.58,0.472,1.054,1.054,1.054h1.853c0.582,0,1.054-0.474,1.054-1.054v-6.304l-3.207,3.22l-0.754-0.769
		V25.686z"/>
	<path d="M9.653,25.727c0,0.56,0.453,1.013,1.012,1.013h1.937c0.559,0,1.012-0.453,1.012-1.013v-7.679l-2.643-2.655l-1.318,1.333
		V25.727z"/>
	<path d="M19.248,26.738c0.559,0,1.012-0.453,1.012-1.012V15.41l-4.031,3.986v6.33c0,0.56,0.453,1.013,1.012,1.013L19.248,26.738
		L19.248,26.738z"/>
	<path d="M22.877,12.754v12.973c0,0.56,0.453,1.013,1.012,1.013h2.006c0.56,0,1.013-0.453,1.013-1.013V13.82l-2.544-2.53
		L22.877,12.754z"/>
	<path d="M9.955,14.279c0.553-0.552,1.447-0.552,2,0l2.385,2.385c0.337,0.337,0.794,0.525,1.271,0.525
		c0.476,0,0.934-0.188,1.271-0.525l7.489-7.489l1.218,1.218c0.187,0.186,0.466,0.242,0.707,0.144
		c0.243-0.099,0.404-0.333,0.408-0.595L26.766,5.7c0.006-0.308-0.113-0.604-0.33-0.823c-0.215-0.219-0.51-0.342-0.815-0.342h-4.312
		c-0.266,0-0.502,0.159-0.604,0.403s-0.045,0.525,0.144,0.711l1.039,1.041l-5.273,5.274c-0.265,0.265-0.625,0.415-1,0.415
		s-0.734-0.149-1-0.414l-2.655-2.656c-0.553-0.552-1.447-0.552-2,0L2.32,16.945c-0.28,0.279-0.438,0.66-0.438,1.057
		s0.157,0.775,0.438,1.057l0.43,0.432c0.553,0.552,1.447,0.552,2,0L9.955,14.279z"/>
	<path d="M30.336,0.363c-0.824,0-1.52,0.669-1.52,1.495v26.931H1.83c-0.826,0-1.494,0.659-1.494,1.484
		c0,0.826,0.668,1.484,1.494,1.484h28.516c0.824,0,1.51-0.669,1.51-1.494V1.858C31.855,1.032,31.161,0.363,30.336,0.363z"/>
</g>
</svg>
