<?xml version="1.0" encoding="utf-8"?>
<!-- Generator: Adobe Illustrator 16.0.4, SVG Export Plug-In . SVG Version: 6.00 Build 0)  -->
<!DOCTYPE svg PUBLIC "-//W3C//DTD SVG 1.1//EN" "http://www.w3.org/Graphics/SVG/1.1/DTD/svg11.dtd">
<svg version="1.1" id="Layer_1" xmlns="http://www.w3.org/2000/svg" xmlns:xlink="http://www.w3.org/1999/xlink" x="0px" y="0px"
	 width="32px" height="32px" viewBox="0 0 32 32" enable-background="new 0 0 32 32" xml:space="preserve">
<g>
	<path d="M25.955,15.972c3.896-3.34,5.88-6.568,4.719-8.292c-0.539-0.801-1.691-1.182-3.27-1.182c-1.684,0-3.846,0.434-6.262,1.247
		c-1.02-4.588-2.854-7.652-4.951-7.652c-2.111,0-3.957,3.105-4.97,7.743C8.824,7.055,6.672,6.641,4.99,6.641
		c-1.643,0-2.841,0.394-3.384,1.224c-1.138,1.739,0.884,4.941,4.823,8.23c-3.897,3.34-5.879,6.568-4.718,8.292
		c0.539,0.803,1.692,1.182,3.273,1.182c1.68,0,3.843-0.434,6.258-1.244c1.017,4.587,2.852,7.65,4.95,7.65
		c2.113,0,3.958-3.104,4.97-7.742c2.396,0.781,4.55,1.194,6.23,1.194c1.646,0,2.84-0.394,3.385-1.223
		C31.918,22.464,29.895,19.26,25.955,15.972z M27.404,8.667c0.986,0,1.39,0.158,1.49,0.21c0.045,0.75-1.306,2.997-4.623,5.773
		c-0.748-0.556-1.547-1.109-2.391-1.652c-0.074-1.079-0.189-2.12-0.341-3.11C23.807,9.106,25.854,8.667,27.404,8.667z
		 M18.229,18.811c-0.662,0.381-1.33,0.746-1.999,1.088c-0.681-0.338-1.362-0.697-2.039-1.074c-0.572-0.321-1.116-0.643-1.639-0.965
		c-0.025-0.588-0.04-1.194-0.04-1.824c0-0.609,0.014-1.196,0.038-1.766c0.511-0.321,1.044-0.645,1.607-0.969
		c0.677-0.39,1.358-0.76,2.04-1.11c0.668,0.333,1.335,0.686,1.997,1.056c0.572,0.321,1.117,0.641,1.641,0.96
		c0.023,0.589,0.04,1.197,0.04,1.829c0,0.623-0.015,1.225-0.039,1.808C19.324,18.164,18.79,18.486,18.229,18.811z M19.643,20.419
		c-0.035,0.328-0.072,0.649-0.115,0.962c-0.301-0.121-0.604-0.246-0.906-0.376c0.222-0.125,0.441-0.25,0.666-0.377
		C19.404,20.559,19.523,20.488,19.643,20.419z M13.843,21.042c-0.325,0.144-0.649,0.283-0.971,0.416
		c-0.047-0.332-0.088-0.675-0.127-1.026c0.137,0.079,0.274,0.158,0.415,0.235C13.389,20.794,13.616,20.919,13.843,21.042z
		 M10.401,16.463c-0.182-0.125-0.36-0.251-0.535-0.377c0.175-0.127,0.353-0.257,0.535-0.386c-0.001,0.111-0.002,0.222-0.002,0.334
		C10.399,16.177,10.4,16.321,10.401,16.463z M12.744,11.647c0.035-0.328,0.073-0.649,0.116-0.961
		c0.301,0.121,0.603,0.246,0.907,0.375c-0.222,0.125-0.443,0.25-0.666,0.378C12.98,11.508,12.862,11.578,12.744,11.647z
		 M18.59,11.051c0.312-0.138,0.623-0.271,0.932-0.398c0.045,0.317,0.084,0.648,0.121,0.981c-0.138-0.078-0.273-0.157-0.416-0.234
		C19.016,11.282,18.803,11.165,18.59,11.051z M21.984,15.603c0.19,0.134,0.381,0.266,0.562,0.398
		c-0.185,0.134-0.371,0.27-0.562,0.407c0.002-0.123,0.002-0.248,0.002-0.373C21.986,15.89,21.986,15.747,21.984,15.603z
		 M16.193,2.207c0.633,0,2.069,2.138,2.95,6.276c-0.973,0.391-1.975,0.835-2.99,1.331c-0.994-0.469-1.973-0.891-2.924-1.261
		C14.107,4.369,15.556,2.207,16.193,2.207z M3.4,9.019c0.133-0.075,0.562-0.265,1.591-0.265c1.55,0,3.593,0.428,5.847,1.187
		c-0.148,0.989-0.263,2.027-0.337,3.106c-0.845,0.559-1.646,1.127-2.393,1.697C4.759,12.013,3.377,9.778,3.4,9.019z M4.985,23.461
		c-0.989,0-1.393-0.189-1.494-0.242c-0.044-0.751,1.311-3.002,4.648-5.783c0.741,0.549,1.53,1.098,2.364,1.635
		c0.078,1.098,0.194,2.154,0.35,3.158C8.584,23.018,6.534,23.461,4.985,23.461z M16.193,29.859c-0.633,0-2.07-2.137-2.949-6.276
		c0.972-0.39,1.972-0.835,2.987-1.33c0.994,0.472,1.974,0.892,2.926,1.263C18.279,27.698,16.83,29.859,16.193,29.859z
		 M27.395,23.312c-1.549,0-3.592-0.428-5.847-1.188c0.149-0.989,0.263-2.027,0.337-3.105c0.846-0.56,1.645-1.125,2.393-1.696
		c3.353,2.733,4.732,4.967,4.709,5.726C28.854,23.125,28.424,23.312,27.395,23.312z"/>
	<circle cx="16.193" cy="15.9" r="2.069"/>
</g>
</svg>
