<?xml version="1.0" encoding="utf-8"?>
<!-- Generator: Adobe Illustrator 16.0.4, SVG Export Plug-In . SVG Version: 6.00 Build 0)  -->
<!DOCTYPE svg PUBLIC "-//W3C//DTD SVG 1.1//EN" "http://www.w3.org/Graphics/SVG/1.1/DTD/svg11.dtd">
<svg version="1.1" id="Layer_1" xmlns="http://www.w3.org/2000/svg" xmlns:xlink="http://www.w3.org/1999/xlink" x="0px" y="0px"
	 width="32px" height="32px" viewBox="0 0 32 32" enable-background="new 0 0 32 32" xml:space="preserve">
<g>
	<path d="M12,31.773c-1.372,0-2.754-0.448-3.906-1.371l-2.409-1.932c-1.305-1.045-2.125-2.535-2.309-4.197
		c-0.181-1.641,0.306-3.315,1.337-4.602l7.967-9.945c0.784-0.98,1.902-1.593,3.148-1.731C17.084,7.862,18.3,8.217,19.277,9
		l0.639,0.51c0.98,0.787,1.596,1.905,1.73,3.152c0.14,1.242-0.217,2.469-1,3.447l-5.75,7.175c-0.6,0.745-1.689,0.864-2.433,0.269
		c-0.746-0.599-0.867-1.688-0.27-2.433l5.75-7.176c0.205-0.257,0.3-0.578,0.263-0.904c-0.036-0.33-0.197-0.623-0.455-0.828
		l-0.638-0.51c-0.531-0.428-1.309-0.342-1.733,0.191l-7.968,9.945c-0.461,0.574-0.679,1.322-0.598,2.055
		c0.082,0.744,0.447,1.41,1.031,1.877l2.409,1.932c1.202,0.962,2.967,0.771,3.932-0.436l11.207-13.989
		c0.965-1.205,0.771-2.969-0.435-3.932l-6.619-5.303c-0.585-0.469-1.317-0.687-2.056-0.599c-0.743,0.081-1.409,0.447-1.876,1.031
		l-8.95,11.177c-0.6,0.747-1.689,0.867-2.433,0.27c-0.746-0.599-0.867-1.688-0.27-2.434l8.953-11.175
		c1.045-1.306,2.535-2.126,4.197-2.31c1.669-0.185,3.295,0.293,4.601,1.339l6.618,5.302c2.693,2.156,3.129,6.103,0.973,8.797
		L16.891,29.43C15.656,30.971,13.836,31.773,12,31.773z"/>
</g>
</svg>
