<?xml version="1.0" encoding="utf-8"?>
<!-- Generator: Adobe Illustrator 16.0.4, SVG Export Plug-In . SVG Version: 6.00 Build 0)  -->
<!DOCTYPE svg PUBLIC "-//W3C//DTD SVG 1.1//EN" "http://www.w3.org/Graphics/SVG/1.1/DTD/svg11.dtd">
<svg version="1.1" id="Layer_1" xmlns="http://www.w3.org/2000/svg" xmlns:xlink="http://www.w3.org/1999/xlink" x="0px" y="0px"
	 width="32px" height="32px" viewBox="0 0 32 32" enable-background="new 0 0 32 32" xml:space="preserve">
<g>
	<path d="M30.773,7.228h-7.469l-4.449-4.397c0-0.015,0-0.023,0-0.038c0-1.367-1.107-2.473-2.477-2.473
		c-1.366,0-2.475,1.109-2.475,2.476c0,0.061,0.003,0.113,0.008,0.172l-4.548,4.26h-8.14c-0.655,0-1.152,0.549-1.152,1.204v20.991
		c0,0.654,0.497,1.187,1.152,1.187h29.549c0.656,0,1.151-0.53,1.151-1.187V8.433C31.926,7.778,31.43,7.228,30.773,7.228z
		 M15.234,4.981c0.343,0.179,0.732,0.286,1.147,0.286c0.448,0,0.867-0.127,1.23-0.334l2.324,2.295h-7.104L15.234,4.981z
		 M29.588,28.271H2.409V9.64h27.179V28.271z"/>
	<path d="M3.793,12.636c0,0.654,0.529,1.168,1.185,1.168h22.04c0.656,0,1.188-0.514,1.188-1.168c0-0.655-0.53-1.169-1.188-1.169
		H4.978C4.322,11.466,3.793,11.981,3.793,12.636z"/>
	<path d="M27.02,15.704H4.978c-0.656,0-1.185,0.514-1.185,1.169c0,0.654,0.529,1.168,1.185,1.168h22.04
		c0.656,0,1.188-0.514,1.188-1.168C28.205,16.218,27.675,15.704,27.02,15.704z"/>
	<path d="M26.244,20.234h-9.745c-0.654,0-1.186,0.515-1.186,1.168c0,0.654,0.531,1.17,1.186,1.17h9.745
		c0.656,0,1.188-0.514,1.188-1.17C27.432,20.749,26.9,20.234,26.244,20.234z"/>
	<path d="M26.244,24.618h-9.745c-0.654,0-1.186,0.514-1.186,1.169c0,0.654,0.531,1.17,1.186,1.17h9.745
		c0.656,0,1.188-0.516,1.188-1.17C27.432,25.132,26.9,24.618,26.244,24.618z"/>
	<path d="M11.852,22.072l-1.508-0.312c-0.283-0.058-0.632-0.31-0.773-0.562l-0.763-1.339c-0.142-0.25-0.375-0.25-0.518,0
		l-0.762,1.339c-0.143,0.252-0.491,0.504-0.772,0.562l-1.508,0.312c-0.281,0.058-0.355,0.281-0.159,0.494l1.035,1.137
		c0.194,0.213,0.328,0.622,0.297,0.908l-0.17,1.529c-0.033,0.286,0.156,0.424,0.419,0.305l1.402-0.633
		c0.262-0.119,0.691-0.119,0.955,0l1.402,0.633c0.262,0.119,0.451-0.019,0.418-0.305l-0.169-1.529
		c-0.032-0.286,0.101-0.695,0.297-0.908l1.035-1.137C12.205,22.354,12.133,22.13,11.852,22.072z"/>
</g>
</svg>
