<?xml version="1.0" encoding="utf-8"?>
<!-- Generator: Adobe Illustrator 16.0.4, SVG Export Plug-In . SVG Version: 6.00 Build 0)  -->
<!DOCTYPE svg PUBLIC "-//W3C//DTD SVG 1.1//EN" "http://www.w3.org/Graphics/SVG/1.1/DTD/svg11.dtd">
<svg version="1.1" id="Layer_1" xmlns="http://www.w3.org/2000/svg" xmlns:xlink="http://www.w3.org/1999/xlink" x="0px" y="0px"
	 width="32px" height="32px" viewBox="0 0 32 32" enable-background="new 0 0 32 32" xml:space="preserve">
<g>
	<path d="M31.639,20.609c-0.644-4.262-4.346-10.375-6.43-11.631l-0.512-0.306H21.34c-1.775-2.437-3.688-3.637-5.761-3.561
		c-2.797,0.102-4.783,2.602-5.445,3.561h-2.8L6.608,9.123c-2.116,1.524-5.59,7.369-6.213,11.486
		c-0.61,4.029,1.006,5.716,2.027,6.361c0.705,0.446,1.54,0.67,2.42,0.668c0.577,0,1.174-0.096,1.766-0.283
		c0,1.082,0.877,1.959,1.958,1.959H23.25c1.081,0,1.958-0.877,1.958-1.959v-0.073c0.662,0.237,1.335,0.356,1.981,0.356
		c0.881,0,1.718-0.223,2.42-0.668C30.63,26.325,32.25,24.639,31.639,20.609z M15.661,7.176c0.993-0.024,1.991,0.474,2.991,1.496
		h-5.846C13.519,7.95,14.519,7.214,15.661,7.176z M4.083,24.355c-0.64-0.406-0.872-1.633-0.622-3.283
		c0.406-2.691,1.893-5.371,3.147-7.215v10.091C5.69,24.552,4.657,24.719,4.083,24.355z M22.604,26.369
		c0.035,0.152,0,0.312-0.098,0.436c-0.098,0.122-0.244,0.193-0.402,0.193h-0.578c-0.144,0-0.28-0.064-0.375-0.175
		c-0.092-0.111-0.131-0.259-0.104-0.4l0.269-1.483c-0.477-0.166-0.82-0.625-0.82-1.16c0-0.459,0.219-0.86,0.627-1.07v-9.471H10.696
		V23.68c0,0.285-0.226,0.518-0.511,0.518s-0.512-0.231-0.512-0.518V12.713c0-0.286,0.237-0.5,0.523-0.5h11.439
		c0.286,0,0.508,0.215,0.508,0.5v9.914c0.479,0.174,0.799,0.622,0.799,1.146c0,0.482-0.274,0.906-0.683,1.106L22.604,26.369z
		 M27.95,24.355c-0.579,0.367-1.63,0.192-2.552-0.424c-0.063-0.041-0.125-0.078-0.191-0.109v-10.28
		c1.295,1.843,2.936,4.681,3.365,7.53C28.823,22.723,28.591,23.948,27.95,24.355z"/>
</g>
</svg>
