<?xml version="1.0" encoding="utf-8"?>
<!-- Generator: Adobe Illustrator 16.0.4, SVG Export Plug-In . SVG Version: 6.00 Build 0)  -->
<!DOCTYPE svg PUBLIC "-//W3C//DTD SVG 1.1//EN" "http://www.w3.org/Graphics/SVG/1.1/DTD/svg11.dtd">
<svg version="1.1" id="Layer_1" xmlns="http://www.w3.org/2000/svg" xmlns:xlink="http://www.w3.org/1999/xlink" x="0px" y="0px"
	 width="32px" height="32px" viewBox="0 0 32 32" enable-background="new 0 0 32 32" xml:space="preserve">
<path d="M31.014,9.276c0.562-0.525,0.885-1.259,0.895-2.028c0.008-0.77-0.301-1.51-0.852-2.048l-3.822-3.737
	C26.7,0.94,25.979,0.651,25.229,0.66c-0.748,0.009-1.461,0.314-1.982,0.85l-7.197,7.377L8.955,1.494
	C8.396,0.912,7.63,0.575,6.823,0.56C6.016,0.543,5.235,0.848,4.654,1.407l-3.695,3.55C0.403,5.49,0.091,6.227,0.093,6.998
	c0.002,0.77,0.318,1.505,0.876,2.036l7.746,7.368L1.857,23.43c-1.046,1.072-1.071,2.775-0.058,3.879l2.67,2.902
	c0.509,0.555,1.218,0.881,1.97,0.909c0.751,0.028,1.483-0.244,2.032-0.759l7.522-7.035l7.339,6.98
	c0.545,0.519,1.273,0.797,2.025,0.773c0.752-0.021,1.463-0.344,1.978-0.895l2.692-2.877c1.022-1.096,1.013-2.799-0.024-3.879
	l-6.68-6.964L31.014,9.276z"/>
</svg>
