<?xml version="1.0" encoding="utf-8"?>
<!-- Generator: Adobe Illustrator 16.0.4, SVG Export Plug-In . SVG Version: 6.00 Build 0)  -->
<!DOCTYPE svg PUBLIC "-//W3C//DTD SVG 1.1//EN" "http://www.w3.org/Graphics/SVG/1.1/DTD/svg11.dtd">
<svg version="1.1" id="Layer_1" xmlns="http://www.w3.org/2000/svg" xmlns:xlink="http://www.w3.org/1999/xlink" x="0px" y="0px"
	 width="32px" height="32px" viewBox="0 0 32 32" enable-background="new 0 0 32 32" xml:space="preserve">
<g>
	<g>
		<path d="M28.232,7.809L21.626,1.98l-8.948,10.141l6.606,5.828L28.232,7.809z M16.143,11.173c-0.227-0.201-0.249-0.548-0.048-0.776
			l4.754-5.389c0.096-0.109,0.231-0.176,0.379-0.185c0.145-0.009,0.289,0.04,0.396,0.136l0.354,0.312
			c0.228,0.201,0.25,0.548,0.049,0.776l-4.756,5.388c-0.098,0.109-0.231,0.176-0.377,0.185c-0.146,0.009-0.289-0.04-0.398-0.137
			L16.143,11.173z"/>
		<path d="M0.226,30.759c-0.087,0.327,0.018,0.677,0.271,0.9c0.254,0.224,0.613,0.284,0.927,0.157l6.224-2.528L1.96,24.27
			L0.226,30.759z M5.347,28.896L2.51,30.049c-0.174,0.071-0.372,0.037-0.514-0.087c-0.141-0.125-0.199-0.317-0.15-0.499l0.79-2.958
			L5.347,28.896z"/>
		<path d="M11.866,13.044l-8.947,10.14l5.504,4.857L17.37,17.9L11.866,13.044z M6.99,23.296c-0.201,0.228-0.548,0.25-0.776,0.05
			L5.86,23.033c-0.109-0.098-0.176-0.232-0.185-0.379c-0.009-0.146,0.04-0.288,0.136-0.397l5.572-6.315
			c0.201-0.227,0.548-0.25,0.775-0.049l0.355,0.312c0.109,0.097,0.176,0.232,0.185,0.378c0.009,0.146-0.04,0.289-0.137,0.399
			L6.99,23.296z"/>
		<path d="M30.486,6.93L18.488,20.527l-0.163-0.146c-0.369-0.323-0.931-0.29-1.255,0.079l-1.982,2.245
			c-0.397,0.45-0.599,1.039-0.562,1.64c0.038,0.598,0.312,1.157,0.762,1.555l0.474,0.418c0.182,0.16,0.419,0.242,0.661,0.228
			c0.242-0.015,0.468-0.126,0.628-0.307l14.325-16.235c0.627-0.711,0.56-1.795-0.151-2.423L30.486,6.93z"/>
		<path d="M27.797,0.868c-1.527-1.348-3.857-1.201-5.206,0.326l5.531,4.881C29.471,4.547,29.325,2.217,27.797,0.868z"/>
	</g>
</g>
</svg>
