<?xml version="1.0" encoding="utf-8"?>
<!-- Generator: Adobe Illustrator 16.0.4, SVG Export Plug-In . SVG Version: 6.00 Build 0)  -->
<!DOCTYPE svg PUBLIC "-//W3C//DTD SVG 1.1//EN" "http://www.w3.org/Graphics/SVG/1.1/DTD/svg11.dtd">
<svg version="1.1" id="Layer_1" xmlns="http://www.w3.org/2000/svg" xmlns:xlink="http://www.w3.org/1999/xlink" x="0px" y="0px"
	 width="32px" height="32px" viewBox="0 0 32 32" enable-background="new 0 0 32 32" xml:space="preserve">
<g>
	<path d="M12.381,9.257c-0.42-0.06-0.834-0.104-1.239-0.136c-0.914,1.908-1.53,3.981-1.794,6.168
		c2.799-0.01,7.457,1.146,8.944,8.518c0.731,3.65,2.479,5.508,5.408,5.713c2.417-1.377,4.426-3.385,5.809-5.797
		C27.113,16.271,20.648,10.444,12.381,9.257z"/>
	<path d="M7.925,16.707c-2.133,0.324-3.621,1.168-4.422,2.504c-1.134,1.889-0.675,4.371-0.339,5.58
		c2.164,3.154,5.462,5.471,9.307,6.363c-2.882-3.611-4.57-8.258-4.57-13.457C7.9,17.365,7.911,17.037,7.925,16.707z"/>
	<path d="M10.374,7.772c0.589-1.104,1.269-2.152,2.038-3.134c-1.835-0.64-2.397-1.984-2.453-2.979
		C6.204,3.245,3.196,6.262,1.63,10.032c2.388-1.486,5.122-2.271,8.133-2.271C9.964,7.762,10.17,7.767,10.374,7.772z"/>
	<path d="M8.028,15.379c0.244-2.226,0.833-4.35,1.712-6.316c-3.495,0.007-6.413,1.1-8.791,2.99C0.617,13.311,0.442,14.634,0.442,16
		c0,1.98,0.37,3.878,1.045,5.625c0.06-1.025,0.309-2.098,0.894-3.08C3.431,16.793,5.333,15.728,8.028,15.379z"/>
	<path d="M13.33,3.55c1.029-1.149,2.184-2.187,3.439-3.087c-0.256-0.013-0.513-0.02-0.767-0.02c-2.982,0-4.725,0.814-4.725,0.814
		C11.246,1.441,11.06,3.03,13.33,3.55z"/>
	<path d="M28.625,6.908l-0.027,0.019c-2.914-3.642-7.619-1.747-7.668-1.728c-1.279,0.53-3.613,0.456-7.125-0.224
		c-0.751,0.9-1.424,1.869-2.008,2.898c0.254,0.026,0.512,0.056,0.772,0.093c5.933,0.851,11.177,3.966,14.772,8.761
		c1.25,1.67,2.247,3.474,2.979,5.364c0.799-1.87,1.24-3.932,1.24-6.092C31.557,12.605,30.471,9.465,28.625,6.908z"/>
	<path d="M20.432,3.997c1.086-0.452,2.943-0.836,4.865-0.47c-1.889-1.416-4.113-2.403-6.529-2.839
		c-1.447,0.883-2.771,1.944-3.946,3.154C18.252,4.442,19.766,4.273,20.432,3.997z"/>
	<path d="M17.016,24.064c-1.293-6.422-5.12-7.531-7.781-7.479c-0.021,0.367-0.031,0.736-0.031,1.107
		c0,5.352,1.922,10.207,5.259,13.783c0.506,0.047,1.02,0.076,1.541,0.076c2.023,0,3.961-0.387,5.739-1.092
		C19.291,29.645,17.707,27.508,17.016,24.064z"/>
</g>
</svg>
