<?xml version="1.0" encoding="utf-8"?>
<!-- Generator: Adobe Illustrator 16.0.4, SVG Export Plug-In . SVG Version: 6.00 Build 0)  -->
<!DOCTYPE svg PUBLIC "-//W3C//DTD SVG 1.1//EN" "http://www.w3.org/Graphics/SVG/1.1/DTD/svg11.dtd">
<svg version="1.1" id="Layer_1" xmlns="http://www.w3.org/2000/svg" xmlns:xlink="http://www.w3.org/1999/xlink" x="0px" y="0px"
	 width="32px" height="32px" viewBox="0 0 32 32" enable-background="new 0 0 32 32" xml:space="preserve">
<g>
	<g>
		<path d="M30.906,1.374c-1.303-1.302-3.413-1.302-4.713-0.002c-0.357,0.356-0.834,0.992-1.307,1.749
			C20.074,1.248,13.306,5.006,6.998,7.635c-6.146,2.561-7.516,5.546-6.844,8.788c0.423,2.043,1.648,4.13,2.924,5.863
			c0.701-0.327,1.477-0.474,2.247-0.437l0.495-0.494c-2.683-3.293-3.966-6.323-2.934-7.356c1.286-1.282,5.678,1.025,9.812,5.16
			c4.134,4.131,6.442,8.526,5.157,9.81c-1.069,1.07-4.292-0.349-7.724-3.236l-0.423,0.422c0.045,0.779-0.107,1.566-0.455,2.283
			c1.832,1.317,4.117,2.615,6.332,3.026c3.115,0.575,5.867-0.479,8.646-6.594c2.565-5.647,6.137-12.448,4.688-17.335
			c0.86-0.52,1.591-1.058,1.981-1.449C32.208,4.786,32.208,2.676,30.906,1.374z M20.098,7.831c-0.039,0.009-3.867,0.783-8.298,3.526
			c-0.227,0.141-0.479,0.207-0.727,0.207c-0.463,0-0.915-0.233-1.179-0.654c-0.4-0.652-0.2-1.506,0.45-1.909
			c4.889-3.022,9.051-3.852,9.225-3.885c0.756-0.151,1.475,0.342,1.619,1.092C21.334,6.956,20.846,7.685,20.098,7.831z"/>
		<path d="M12.574,21.334l-2.387-2.389L6.934,22.2l-0.388,0.388c-1.341,0.026-2.908,0.714-3.735,1.539
			c-1.264,1.266-1.264,3.318,0,4.582c1.267,1.268,3.318,1.268,4.582,0c0.828-0.826,1.515-2.395,1.542-3.736l0.403-0.402
			L12.574,21.334z"/>
	</g>
</g>
</svg>
