<?xml version="1.0" encoding="utf-8"?>
<!-- Generator: Adobe Illustrator 16.0.4, SVG Export Plug-In . SVG Version: 6.00 Build 0)  -->
<!DOCTYPE svg PUBLIC "-//W3C//DTD SVG 1.1//EN" "http://www.w3.org/Graphics/SVG/1.1/DTD/svg11.dtd">
<svg version="1.1" id="Layer_1" xmlns="http://www.w3.org/2000/svg" xmlns:xlink="http://www.w3.org/1999/xlink" x="0px" y="0px"
	 width="32px" height="32px" viewBox="0 0 32 32" enable-background="new 0 0 32 32" xml:space="preserve">
<g>
	<path d="M8.036,0C6.25,0,4.802,1.448,4.802,3.234v23.214c0,1.786,1.448,3.233,3.234,3.233H8.65v1.711
		c0,0.197,0.106,0.381,0.278,0.479c0.171,0.099,0.382,0.099,0.553-0.003l2.604-1.52l2.604,1.52c0.171,0.102,0.382,0.102,0.554,0.002
		c0.172-0.1,0.278-0.282,0.278-0.479v-1.711h8.151c1.786,0,3.234-1.449,3.234-3.234V3.234C26.904,1.448,25.457,0,23.671,0H8.036z
		 M10.494,6.604c0-0.525,0.425-0.95,0.95-0.95h8.781c0.525,0,0.95,0.425,0.95,0.95v2.105c0,0.525-0.425,0.95-0.95,0.95h-8.781
		c-0.525,0-0.95-0.425-0.95-0.95V6.604z M24.589,26.303c0,0.608-0.493,1.102-1.103,1.102H15.52v-0.819
		c0-0.606-0.493-1.103-1.102-1.103H9.751c-0.608,0-1.102,0.492-1.102,1.103v0.819H8.18c-0.608,0-1.102-0.491-1.102-1.102V25.13
		c0-0.608,0.493-1.103,1.102-1.103h15.306c0.609,0,1.103,0.494,1.103,1.103V26.303z"/>
</g>
</svg>
