<?xml version="1.0" encoding="utf-8"?>
<!-- Generator: Adobe Illustrator 16.0.4, SVG Export Plug-In . SVG Version: 6.00 Build 0)  -->
<!DOCTYPE svg PUBLIC "-//W3C//DTD SVG 1.1//EN" "http://www.w3.org/Graphics/SVG/1.1/DTD/svg11.dtd">
<svg version="1.1" id="Layer_1" xmlns="http://www.w3.org/2000/svg" xmlns:xlink="http://www.w3.org/1999/xlink" x="0px" y="0px"
	 width="32px" height="32px" viewBox="0 0 32 32" enable-background="new 0 0 32 32" xml:space="preserve">
<g>
	<path d="M0,17.215v8.049c0,1.355,1.1,2.454,2.455,2.454h27.077c1.356,0,2.454-1.099,2.454-2.454v-8.125l-15.989,2.252L0,17.215z"/>
	<path d="M22.749,6.365V6.347V4.289c0-1.357-1.101-2.456-2.455-2.456h-9.123c-1.356,0-2.455,1.099-2.455,2.456v2.058v0.018H2.455
		C1.1,6.365,0,7.464,0,8.821v6.002L15.99,17l15.996-2.255V8.821c0-1.356-1.1-2.456-2.454-2.456H22.749z M19.611,11.071v2.963h-7.147
		v-2.963v-0.609h7.147V11.071z M20.395,6.347v0.018h-9.327V6.347V5.469c0-0.708,0.573-1.281,1.281-1.281h6.764
		c0.709,0,1.281,0.574,1.281,1.281V6.347L20.395,6.347z"/>
</g>
</svg>
