<?xml version="1.0" encoding="utf-8"?>
<!-- Generator: Adobe Illustrator 16.0.4, SVG Export Plug-In . SVG Version: 6.00 Build 0)  -->
<!DOCTYPE svg PUBLIC "-//W3C//DTD SVG 1.1//EN" "http://www.w3.org/Graphics/SVG/1.1/DTD/svg11.dtd">
<svg version="1.1" id="Layer_1" xmlns="http://www.w3.org/2000/svg" xmlns:xlink="http://www.w3.org/1999/xlink" x="0px" y="0px"
	 width="32px" height="32px" viewBox="0 0 32 32" enable-background="new 0 0 32 32" xml:space="preserve">
<g>
	<path d="M11.126,27.072c-0.009,0.014-0.018,0.029-0.024,0.043C11.108,27.102,11.117,27.086,11.126,27.072z"/>
	<path d="M6.598,23.025c0.011-0.002,0.021-0.004,0.03-0.006C6.619,23.021,6.608,23.023,6.598,23.025z"/>
	<path d="M10.985,27.312c0.003-0.002,0.003-0.002,0.005-0.004C10.988,27.311,10.988,27.311,10.985,27.312z"/>
	<g>
		<path d="M30.859,0.716c-1.004-0.906-1.666-0.462-1.666-0.462L13.026,15.877l4.598,4.143L31.491,2.326
			C31.491,2.326,31.866,1.623,30.859,0.716z"/>
		<path d="M7.582,21.917l4.597,4.144l4.629-5.153l-4.625-4.117L7.582,21.917z M10.721,22.18c-0.093,0.105-0.226,0.17-0.366,0.178
			c-0.142,0.011-0.28-0.039-0.387-0.131l-0.271-0.24c-0.106-0.094-0.171-0.226-0.18-0.365c-0.009-0.143,0.039-0.28,0.132-0.387
			l2.11-2.392c0.194-0.221,0.531-0.241,0.752-0.047l0.271,0.239c0.106,0.094,0.171,0.226,0.18,0.367
			c0.009,0.142-0.039,0.279-0.133,0.386L10.721,22.18z"/>
		<path d="M6.628,23.02c-0.01,0.002-0.02,0.004-0.03,0.006c-3.481,0.822-6.905,4.56-3.46,8.746c0.158,0.193,0.415,0.276,0.657,0.215
			c0.242-0.062,0.426-0.26,0.471-0.506c0.101-0.551,0.322-1.153,0.786-1.594c1.058-1,3.993,0.617,5.934-2.574
			c0.001-0.002,0.217-0.383,0.254-0.459l-4.318-3.896C6.823,22.977,6.726,22.999,6.628,23.02z M6.729,28.364
			c-0.865,0.032-1.762,0.067-2.444,0.713c-0.133,0.126-0.252,0.259-0.358,0.397c-0.12,0.157-0.318,0.234-0.514,0.2
			c-0.195-0.032-0.355-0.173-0.417-0.36c-0.193-0.602-0.241-1.24-0.054-1.901c0.109-0.386,0.287-0.746,0.514-1.076
			c0.879,0.957,1.644,1.503,3.062,1.375c0.886-0.08,1.7-0.043,2.455,0.155C8.276,28.305,7.517,28.333,6.729,28.364z"/>
	</g>
</g>
</svg>
