<?xml version="1.0" encoding="utf-8"?>
<!-- Generator: Adobe Illustrator 16.0.4, SVG Export Plug-In . SVG Version: 6.00 Build 0)  -->
<!DOCTYPE svg PUBLIC "-//W3C//DTD SVG 1.1//EN" "http://www.w3.org/Graphics/SVG/1.1/DTD/svg11.dtd">
<svg version="1.1" id="Layer_1" xmlns="http://www.w3.org/2000/svg" xmlns:xlink="http://www.w3.org/1999/xlink" x="0px" y="0px"
	 width="32px" height="32px" viewBox="0 0 32 32" enable-background="new 0 0 32 32" xml:space="preserve">
<g>
	<path d="M29.797,7.684c-0.361,0-0.654,0.293-0.654,0.655v3.916c0,0.361,0.293,0.655,0.654,0.655h1.477
		c0.361,0,0.656-0.293,0.656-0.655V8.267c0-0.322-0.262-0.584-0.584-0.584V7.637l-0.022-1.014c0.006-0.048,0.026-1.192-0.782-2.115
		c-0.575-0.654-1.05-1.025-2.675-1.096c0-0.463-0.375-0.838-0.839-0.838H5.141c-0.467,0-0.846,0.379-0.846,0.846
		c0,0,0.02,0,0.016,0.001C2.795,3.509,2.389,3.872,1.834,4.505C1.031,5.42,0.928,6.547,0.928,6.547v1.136h-0.05
		C0.393,7.684,0,8.077,0,8.562v3.469c0,0.485,0.393,0.878,0.878,0.878h0.914c0.485,0,0.878-0.393,0.878-0.878V8.338
		c0-0.361-0.293-0.655-0.655-0.655L2.05,6.511C2.049,6.505,2.111,5.773,2.601,5.214C2.929,4.841,3.558,4.598,4.34,4.506
		L4.296,14.649H3.94c-0.573,0-1.038,0.464-1.038,1.037v10.931c0,0.572,0.465,1.037,1.038,1.037h1.052v-0.062v2.158
		c0,0.573,0.465,1.037,1.038,1.037h2.22c0.573,0,1.038-0.464,1.038-1.037v-2.158v0.062h13.353v-0.062v2.158
		c0,0.573,0.465,1.037,1.039,1.037h2.104c0.573,0,1.038-0.464,1.038-1.037v-2.158v0.062h1.4c0.571,0,1.036-0.465,1.036-1.037V15.686
		c0-0.573-0.465-1.037-1.036-1.037h-0.356V4.485c0.813,0.082,1.442,0.319,1.788,0.705c0.498,0.557,0.535,1.285,0.535,1.358v1.136
		H29.797z M8.299,14.649c-0.608,0-1.101-0.493-1.101-1.101V8.781c0-0.607,0.491-1.099,1.097-1.101l15.678-0.05
		c0.293-0.001,0.574,0.115,0.781,0.32c0.207,0.207,0.324,0.488,0.324,0.78v4.817c0,0.608-0.493,1.101-1.102,1.101L8.299,14.649
		L8.299,14.649z M23.105,21.152H9.288v-1.51h13.817V21.152L23.105,21.152z M23.105,18.714H9.288v-1.51h13.817V18.714L23.105,18.714z
		 M4.992,23.614c0-0.462,0.374-0.837,0.836-0.837h1.231c0.461,0,0.836,0.375,0.836,0.837v0.069c0,0.463-0.374,0.836-0.836,0.836
		H5.828c-0.461,0-0.836-0.373-0.836-0.836V23.614z M7.895,20.664c0,0.462-0.374,0.836-0.836,0.836h-1.23
		c-0.461,0-0.836-0.374-0.836-0.836V18.04c0-0.462,0.374-0.836,0.836-0.836h1.23c0.461,0,0.836,0.374,0.836,0.836V20.664z
		 M8.708,4.681c0-0.329,0.267-0.596,0.597-0.596h13.552c0.33,0,0.598,0.267,0.598,0.596v0.897c0,0.329-0.268,0.596-0.598,0.596
		H9.304c-0.33,0-0.597-0.267-0.597-0.596L8.708,4.681L8.708,4.681z M9.288,23.589v-1.507h13.817v1.507H9.288z M27.285,23.684
		c0,0.463-0.374,0.836-0.836,0.836h-1.232c-0.461,0-0.836-0.373-0.836-0.836v-0.068c0-0.463,0.374-0.838,0.836-0.838h1.232
		c0.461,0,0.836,0.375,0.836,0.838V23.684z M27.285,20.664c0,0.462-0.374,0.836-0.836,0.836h-1.232
		c-0.461,0-0.836-0.374-0.836-0.836V18.04c0-0.462,0.374-0.836,0.836-0.836h1.232c0.461,0,0.836,0.374,0.836,0.836V20.664z"/>
</g>
</svg>
