<?xml version="1.0" encoding="utf-8"?>
<!-- Generator: Adobe Illustrator 16.0.4, SVG Export Plug-In . SVG Version: 6.00 Build 0)  -->
<!DOCTYPE svg PUBLIC "-//W3C//DTD SVG 1.1//EN" "http://www.w3.org/Graphics/SVG/1.1/DTD/svg11.dtd">
<svg version="1.1" id="Layer_1" xmlns="http://www.w3.org/2000/svg" xmlns:xlink="http://www.w3.org/1999/xlink" x="0px" y="0px"
	 width="32px" height="32px" viewBox="0 0 32 32" enable-background="new 0 0 32 32" xml:space="preserve">
<g>
	<path d="M5.664,0.143c-1.264,0-2.289,1.025-2.289,2.29v27.133c0,1.266,1.025,2.291,2.289,2.291h20.672
		c1.264,0,2.289-1.025,2.289-2.291V2.433c0-1.265-1.025-2.29-2.289-2.29H5.664z M15.227,27.386c0,0.735-0.597,1.332-1.332,1.332
		H8.596c-0.735,0-1.332-0.596-1.332-1.332v-1.364c0-0.734,0.597-1.332,1.332-1.332h5.299c0.735,0,1.332,0.597,1.332,1.332V27.386z
		 M15.227,20.359c0,0.736-0.597,1.332-1.332,1.332H8.596c-0.735,0-1.332-0.596-1.332-1.332v-1.131c0-0.734,0.597-1.332,1.332-1.332
		h5.299c0.735,0,1.332,0.597,1.332,1.332V20.359z M24.83,27.386c0,0.736-0.598,1.332-1.332,1.332H18.62
		c-0.735,0-1.332-0.596-1.332-1.332v-1.364c0-0.735,0.597-1.332,1.332-1.332h4.878c0.734,0,1.332,0.597,1.332,1.332V27.386z
		 M24.83,20.359c0,0.736-0.598,1.332-1.332,1.332H18.62c-0.735,0-1.332-0.596-1.332-1.332v-1.131c0-0.735,0.597-1.332,1.332-1.332
		h4.878c0.734,0,1.332,0.597,1.332,1.332V20.359z M24.83,13.473c0,0.735-0.598,1.332-1.332,1.332H8.503
		c-0.735,0-1.332-0.596-1.332-1.332V5.55c0-0.735,0.597-1.332,1.332-1.332h14.995c0.734,0,1.332,0.596,1.332,1.332V13.473z"/>
	<polygon points="11.352,7.685 11.387,7.685 11.387,12.698 12.791,12.698 12.791,6.373 11.576,6.373 9.904,7.159 10.148,8.264 	"/>
	<polygon points="15.695,12.698 16.633,12.698 16.633,10.59 18.646,10.59 18.646,9.653 16.633,9.653 16.633,7.544 15.695,7.544 
		15.695,9.653 13.634,9.653 13.634,10.59 15.695,10.59 	"/>
	<path d="M20.509,7.469c0.728,0,1.039,0.409,1.039,0.924c-0.021,0.738-0.694,1.448-2.077,2.684l-0.824,0.74v0.881h4.498V11.48
		h-2.391v-0.006l0.588-0.484c0.915-0.817,1.686-1.664,1.686-2.724c0-1.148-0.789-1.984-2.217-1.984
		c-0.854,0-1.598,0.292-2.072,0.651l0.419,1.061C19.486,7.741,19.963,7.469,20.509,7.469z"/>
</g>
</svg>
