<?xml version="1.0" encoding="utf-8"?>
<!-- Generator: Adobe Illustrator 16.0.4, SVG Export Plug-In . SVG Version: 6.00 Build 0)  -->
<!DOCTYPE svg PUBLIC "-//W3C//DTD SVG 1.1//EN" "http://www.w3.org/Graphics/SVG/1.1/DTD/svg11.dtd">
<svg version="1.1" id="Layer_1" xmlns="http://www.w3.org/2000/svg" xmlns:xlink="http://www.w3.org/1999/xlink" x="0px" y="0px"
	 width="32px" height="32px" viewBox="0 0 32 32" enable-background="new 0 0 32 32" xml:space="preserve">
<g>
	<path d="M31.377,5.166c0-1.194-0.968-2.162-2.162-2.162h-3.656V1.103c0-0.487-0.395-0.882-0.882-0.882h-1.905
		c-0.486,0-0.883,0.395-0.883,0.882v1.902H9.749V1.103c0-0.487-0.395-0.882-0.882-0.882H7.089c-0.487,0-0.882,0.395-0.882,0.882
		v1.902h-3.91c-1.194,0-2.162,0.968-2.162,2.162v7.704h1.139V29.62c0,1.228,0.995,2.223,2.223,2.223h24.394
		c1.229,0,2.223-0.995,2.223-2.223V12.87h1.266L31.377,5.166L31.377,5.166z M26.57,25.951c0,1.229-0.994,2.223-2.223,2.223H7.165
		c-1.228,0-2.223-0.994-2.223-2.223V12.87H26.57V25.951L26.57,25.951z"/>
	<rect x="7.978" y="15.272" width="3.541" height="3.669"/>
	<rect x="14.049" y="15.272" width="3.541" height="3.669"/>
	<rect x="20.119" y="15.272" width="3.542" height="3.669"/>
	<rect x="7.978" y="21.723" width="3.541" height="3.668"/>
	<rect x="14.049" y="21.723" width="3.541" height="3.668"/>
	<rect x="20.119" y="21.723" width="3.542" height="3.668"/>
</g>
</svg>
