<?xml version="1.0" encoding="utf-8"?>
<!-- Generator: Adobe Illustrator 16.0.4, SVG Export Plug-In . SVG Version: 6.00 Build 0)  -->
<!DOCTYPE svg PUBLIC "-//W3C//DTD SVG 1.1//EN" "http://www.w3.org/Graphics/SVG/1.1/DTD/svg11.dtd">
<svg version="1.1" id="Layer_1" xmlns="http://www.w3.org/2000/svg" xmlns:xlink="http://www.w3.org/1999/xlink" x="0px" y="0px"
	 width="32px" height="32px" viewBox="0 0 32 32" enable-background="new 0 0 32 32" xml:space="preserve">
<g>
	<path d="M14.222,13.923h3.417v-1.17h-3.466v1.004l-1.629-5.262H8.039L3.398,23.689h3.56l1.081-3.881h4.348l1.17,3.881h3.695
		L14.222,13.923z M8.534,17.221l0.902-3.215c0.248-0.878,0.473-2.044,0.697-2.92h0.045c0.226,0.876,0.496,2.019,0.767,2.92
		l0.946,3.215H8.534z"/>
	<path d="M27.238,17.176c0-1.974-0.68-3.701-2.629-4.41v-0.013h-0.062c-0.596-0.207-1.307-0.325-2.15-0.325
		c-2.004,0-3.514,0.537-4.277,0.966l0.629,2.207c0.723-0.451,1.906-0.834,3.031-0.834c1.691,0,1.996,0.833,1.996,1.419v0.156
		c-3.883-0.021-6.455,1.352-6.455,4.215c0,1.756,1.332,3.368,3.562,3.368c1.307,0,2.438-0.442,3.158-1.36h0.068l0.203,1.125h3.086
		c-0.112-0.625-0.16-1.625-0.16-2.684V17.176L27.238,17.176z M23.898,19.677c0,0.202-0.02,0.405-0.064,0.585
		c-0.227,0.698-0.922,1.262-1.777,1.262c-0.767,0-1.354-0.428-1.354-1.307c0-1.328,1.4-1.758,3.195-1.734V19.677L23.898,19.677z"/>
	<rect x="7.203" y="4.74" width="3.465" height="1.168"/>
	<rect x="0.232" y="4.74" width="3.464" height="1.168"/>
	<rect x="21.145" y="4.74" width="3.465" height="1.168"/>
	<rect x="14.173" y="4.74" width="3.466" height="1.168"/>
	<rect x="28.115" y="4.74" width="3.464" height="1.168"/>
	<rect x="0.232" y="24.107" width="3.464" height="1.168"/>
	<rect x="28.115" y="24.107" width="3.464" height="1.168"/>
	<rect x="14.173" y="24.107" width="3.466" height="1.168"/>
	<rect x="7.203" y="24.107" width="3.465" height="1.168"/>
	<rect x="21.145" y="24.107" width="3.465" height="1.168"/>
	<rect x="0.232" y="12.753" width="3.464" height="1.169"/>
	<rect x="28.115" y="12.753" width="3.464" height="1.169"/>
</g>
</svg>
