<?xml version="1.0" encoding="utf-8"?>
<!-- Generator: Adobe Illustrator 16.0.4, SVG Export Plug-In . SVG Version: 6.00 Build 0)  -->
<!DOCTYPE svg PUBLIC "-//W3C//DTD SVG 1.1//EN" "http://www.w3.org/Graphics/SVG/1.1/DTD/svg11.dtd">
<svg version="1.1" id="Layer_1" xmlns="http://www.w3.org/2000/svg" xmlns:xlink="http://www.w3.org/1999/xlink" x="0px" y="0px"
	 width="32px" height="32px" viewBox="0 0 32 32" enable-background="new 0 0 32 32" xml:space="preserve">
<path d="M27.705,2.562c-2.354,0-4.258,1.906-4.258,4.256c0,0.411,0.059,0.806,0.166,1.182l-4.219,2.71
	c-1.142-1.195-2.75-1.939-4.534-1.939c-1.347,0-2.593,0.424-3.614,1.146l-3.31-3.521c0.367-0.628,0.576-1.359,0.576-2.138
	C8.514,1.905,6.608,0,4.256,0C1.907,0,0,1.905,0,4.258c0,2.35,1.907,4.255,4.256,4.255c0.686,0,1.334-0.161,1.906-0.449l3.404,3.621
	c-0.615,0.97-0.973,2.121-0.973,3.354c0,1.493,0.524,2.863,1.394,3.939l-3.283,4.349c-0.461-0.175-0.962-0.267-1.484-0.267
	c-2.351,0-4.257,1.903-4.257,4.254c0,2.352,1.906,4.26,4.257,4.26c2.351,0,4.257-1.907,4.257-4.26c0-0.942-0.308-1.815-0.828-2.521
	l3.21-4.252c0.893,0.488,1.916,0.766,3.004,0.766c3.463,0,6.269-2.808,6.269-6.269c0-0.802-0.151-1.569-0.427-2.274l4.227-2.716
	c0.745,0.64,1.715,1.027,2.774,1.027c2.349,0,4.256-1.905,4.256-4.258C31.961,4.469,30.055,2.562,27.705,2.562z"/>
</svg>
