<?xml version="1.0" encoding="utf-8"?>
<!-- Generator: Adobe Illustrator 16.0.4, SVG Export Plug-In . SVG Version: 6.00 Build 0)  -->
<!DOCTYPE svg PUBLIC "-//W3C//DTD SVG 1.1//EN" "http://www.w3.org/Graphics/SVG/1.1/DTD/svg11.dtd">
<svg version="1.1" id="Layer_1" xmlns="http://www.w3.org/2000/svg" xmlns:xlink="http://www.w3.org/1999/xlink" x="0px" y="0px"
	 width="32px" height="32px" viewBox="0 0 32 32" enable-background="new 0 0 32 32" xml:space="preserve">
<path d="M31.799,8.996c-0.371-1.17-1.566-1.851-2.742-1.598l-2.797-2.49c-0.001-0.233-0.037-0.47-0.111-0.704
	c-0.394-1.242-1.721-1.935-2.965-1.539c-0.76,0.241-1.311,0.831-1.535,1.535l-2.922,0.926c-0.604-0.593-1.508-0.844-2.372-0.57
	c-0.21,0.067-0.402,0.162-0.578,0.276l-2.38-2.119c0.052-0.345,0.03-0.708-0.082-1.062c-0.394-1.244-1.722-1.934-2.966-1.538
	c-0.847,0.267-1.435,0.968-1.6,1.782L5.323,2.98C4.742,2.577,3.989,2.435,3.261,2.665C2.017,3.06,1.328,4.388,1.722,5.632
	c0.104,0.33,0.277,0.621,0.494,0.863L1.439,9.82c-1.109,0.47-1.699,1.716-1.328,2.887c0.375,1.181,1.59,1.858,2.775,1.589
	l2.749,2.446c-0.084,0.388-0.073,0.803,0.056,1.209c0.138,0.434,0.392,0.8,0.714,1.076l-0.763,3.262
	c-0.006,0.003-0.012,0.003-0.018,0.004c-1.245,0.395-1.933,1.723-1.539,2.965c0.394,1.244,1.722,1.934,2.966,1.541
	c0.005-0.001,0.011-0.005,0.017-0.007l2.501,2.226c-0.104,0.414-0.102,0.857,0.036,1.293c0.394,1.244,1.722,1.934,2.965,1.539
	c0.829-0.265,1.41-0.94,1.589-1.73l3.428-1.086c0.603,0.542,1.466,0.763,2.295,0.501c1.245-0.396,1.933-1.724,1.54-2.97
	c-0.107-0.338-0.288-0.635-0.514-0.881l0.828-3.539c0.007-0.002,0.012-0.004,0.018-0.006c1.055-0.334,1.706-1.338,1.643-2.394
	l3.231-1.024c0.577,0.387,1.315,0.52,2.029,0.291c1.243-0.394,1.933-1.723,1.538-2.966c-0.1-0.315-0.26-0.593-0.461-0.828
	l0.785-3.358C31.598,11.375,32.164,10.15,31.799,8.996z M27.23,14.506c-0.938,0.3-1.56,1.125-1.643,2.046l-3.645,1.154
	c-0.43-0.179-0.912-0.233-1.394-0.131l-2.937-2.614c0.004-0.249-0.029-0.503-0.108-0.755c-0.146-0.459-0.42-0.843-0.771-1.125
	l0.935-3.99c0.038-0.011,0.075-0.018,0.112-0.029c0.795-0.252,1.361-0.886,1.564-1.634l2.827-0.896
	c0.603,0.643,1.539,0.923,2.437,0.638c0.145-0.045,0.281-0.105,0.41-0.175l2.269,2.019c-0.138,0.445-0.146,0.934,0.005,1.408
	c0.156,0.49,0.457,0.891,0.839,1.176l-0.665,2.846C27.389,14.462,27.309,14.481,27.23,14.506z M18.625,24.982
	c-0.057,0.013-0.113,0.024-0.169,0.045c-0.829,0.262-1.409,0.938-1.589,1.73l-3.426,1.088c-0.579-0.522-1.4-0.746-2.199-0.529
	L8.653,25.01c0.076-0.38,0.061-0.783-0.064-1.179s-0.347-0.733-0.627-1.002l0.789-3.375c0.778-0.285,1.322-0.938,1.494-1.698
	l3.425-1.087c0.603,0.546,1.469,0.769,2.298,0.504c0.056-0.019,0.109-0.04,0.163-0.062l2.594,2.311
	c-0.076,0.383-0.062,0.782,0.063,1.18c0.125,0.396,0.346,0.733,0.627,1L18.625,24.982z M4.615,11.279
	c-0.15-0.475-0.436-0.865-0.802-1.149l0.68-2.909c0.066-0.015,0.13-0.029,0.195-0.051c0.924-0.293,1.541-1.1,1.635-2.008
	l3.198-1.013c0.6,0.518,1.445,0.723,2.256,0.466c0.042-0.013,0.082-0.029,0.122-0.044l2.825,2.515
	c0.018,0.147,0.048,0.293,0.093,0.437c0.1,0.315,0.26,0.594,0.463,0.829l-1.039,4.438c-0.582,0.275-1.009,0.77-1.213,1.35
	l-3.714,1.176c-0.582-0.413-1.34-0.562-2.072-0.333l-2.611-2.325C4.759,12.222,4.763,11.745,4.615,11.279z"/>
</svg>
