<?xml version="1.0" encoding="utf-8"?>
<!-- Generator: Adobe Illustrator 16.0.4, SVG Export Plug-In . SVG Version: 6.00 Build 0)  -->
<!DOCTYPE svg PUBLIC "-//W3C//DTD SVG 1.1//EN" "http://www.w3.org/Graphics/SVG/1.1/DTD/svg11.dtd">
<svg version="1.1" id="Layer_1" xmlns="http://www.w3.org/2000/svg" xmlns:xlink="http://www.w3.org/1999/xlink" x="0px" y="0px"
	 width="32px" height="32px" viewBox="0 0 32 32" enable-background="new 0 0 32 32" xml:space="preserve">
<g>
	<path d="M16.406,15.212c4.203,0,7.611-0.925,7.611-5.129S21.395-0.012,16.406-0.012c-4.199,0-7.612,5.323-7.612,9.527
		C8.794,13.718,12.203,15.212,16.406,15.212z"/>
	<path d="M17.544,25.657v-2.003h-2.997v2.016c-5.542,0.548-7.887,3.457-7.994,3.592c-0.359,0.455-0.275,1.116,0.181,1.475
		c0.192,0.152,0.423,0.227,0.651,0.227c0.311,0,0.608-0.137,0.815-0.398c0.021-0.024,1.894-2.276,6.347-2.781v0.324h0.364v2.855
		c0,0.58,0.463,1.051,1.044,1.051c0.579,0,1.044-0.471,1.044-1.051v-2.855h0.545V27.77c4.543,0.496,6.487,2.926,6.584,3.049
		c0.354,0.455,1.021,0.541,1.479,0.188c0.461-0.353,0.531-1.012,0.177-1.472C25.672,29.389,23.177,26.195,17.544,25.657z"/>
	<path d="M27.945,11.012c-0.58,0-1.043,0.47-1.043,1.05v4.015c0,1.229-0.746,1.598-1.118,1.698c-0.556-0.899-1.55-1.481-2.685-1.481
		H9.45c-1.025,0-1.935,0.474-2.51,1.231l-1.812-5.771c-0.174-0.552-0.76-0.865-1.316-0.69c-0.555,0.175-0.861,0.762-0.687,1.315
		l2.128,6.762c0.142,0.447,0.555,0.733,1.001,0.733c0.027,0,0.054,0,0.081-0.003c0.223,1.521,1.533,2.691,3.116,2.691h13.65
		c1.602,0,2.922-1.199,3.119-2.748c1.084-0.26,2.771-1.285,2.771-3.738v-4.015C28.991,11.482,28.527,11.012,27.945,11.012z"/>
</g>
</svg>
