<?xml version="1.0" encoding="utf-8"?>
<!-- Generator: Adobe Illustrator 16.0.4, SVG Export Plug-In . SVG Version: 6.00 Build 0)  -->
<!DOCTYPE svg PUBLIC "-//W3C//DTD SVG 1.1//EN" "http://www.w3.org/Graphics/SVG/1.1/DTD/svg11.dtd">
<svg version="1.1" id="Layer_1" xmlns="http://www.w3.org/2000/svg" xmlns:xlink="http://www.w3.org/1999/xlink" x="0px" y="0px"
	 width="32px" height="32px" viewBox="0 0 32 32" enable-background="new 0 0 32 32" xml:space="preserve">
<g>
	<path d="M30.803,3.868h-9.814V3.322c0-0.903-0.73-1.634-1.633-1.634h-6.682c-0.903,0-1.634,0.731-1.634,1.634v0.546H1.226
		c-0.605,0-1.09,0.5-1.09,1.105v19.718c0,0.604,0.485,1.121,1.09,1.121h5.597l-1.994,5.451h3.806l1.994-5.451h2.592v3.271h5.587
		v-3.271H21.4l1.994,5.451h3.807l-1.994-5.451h5.598c0.604,0,1.09-0.517,1.09-1.121V4.974C31.895,4.368,31.408,3.868,30.803,3.868z
		 M29.713,23.631H2.316V6.049h27.396L29.713,23.631L29.713,23.631z"/>
	<rect x="3.952" y="7.549" width="23.989" height="14.584"/>
</g>
</svg>
