<?xml version="1.0" encoding="utf-8"?>
<!-- Generator: Adobe Illustrator 16.0.4, SVG Export Plug-In . SVG Version: 6.00 Build 0)  -->
<!DOCTYPE svg PUBLIC "-//W3C//DTD SVG 1.1//EN" "http://www.w3.org/Graphics/SVG/1.1/DTD/svg11.dtd">
<svg version="1.1" id="Layer_1" xmlns="http://www.w3.org/2000/svg" xmlns:xlink="http://www.w3.org/1999/xlink" x="0px" y="0px"
	 width="32px" height="32px" viewBox="0 0 32 32" enable-background="new 0 0 32 32" xml:space="preserve">
<g>
	<path d="M25.57,9.773c2.66,0,4.824-2.163,4.824-4.824c0-2.661-2.164-4.824-4.824-4.824s-4.824,2.164-4.824,4.824
		C20.746,7.609,22.91,9.773,25.57,9.773z M25.57,2.359c1.428,0,2.591,1.162,2.591,2.59c0,1.428-1.163,2.59-2.591,2.59
		s-2.59-1.162-2.59-2.59C22.98,3.52,24.143,2.359,25.57,2.359z"/>
	<path d="M25.57,11.154c-2.66,0-4.824,2.165-4.824,4.824c0,2.661,2.164,4.825,4.824,4.825s4.824-2.164,4.824-4.825
		C30.395,13.318,28.23,11.154,25.57,11.154z M25.57,18.568c-1.428,0-2.59-1.161-2.59-2.59c0-1.427,1.162-2.589,2.59-2.589
		s2.591,1.162,2.591,2.589C28.161,17.407,26.998,18.568,25.57,18.568z"/>
	<path d="M25.57,22.368c-2.66,0-4.824,2.164-4.824,4.823c0,2.66,2.164,4.824,4.824,4.824s4.824-2.164,4.824-4.824
		C30.395,24.532,28.23,22.368,25.57,22.368z M25.57,29.782c-1.428,0-2.59-1.162-2.59-2.591c0-1.428,1.162-2.59,2.59-2.59
		s2.591,1.162,2.591,2.59C28.161,28.62,26.998,29.782,25.57,29.782z"/>
	<path d="M17.674,2.095H2.235c-0.925,0-1.675,0.76-1.675,1.685c0,0.925,0.75,1.684,1.676,1.684h15.438
		c0.926,0,1.676-0.759,1.676-1.684C19.35,2.855,18.6,2.095,17.674,2.095z"/>
	<path d="M17.674,12.783H2.235c-0.926,0-1.676,0.759-1.676,1.684c0,0.926,0.75,1.685,1.676,1.685h15.438
		c0.927,0,1.677-0.759,1.677-1.685C19.35,13.542,18.6,12.783,17.674,12.783z"/>
	<path d="M17.674,24.366H2.235c-0.926,0-1.676,0.731-1.676,1.657c0,0.927,0.75,1.658,1.676,1.658h15.438
		c0.927,0,1.677-0.731,1.677-1.658C19.35,25.098,18.6,24.366,17.674,24.366z"/>
	<path d="M17.674,8.887c0.616,0,1.117-0.516,1.117-1.132c0-0.616-0.501-1.132-1.117-1.132H2.235c-0.618,0-1.116,0.515-1.116,1.132
		c0,0.617,0.498,1.132,1.116,1.132H17.674z"/>
	<path d="M17.674,19.574c0.616,0,1.117-0.516,1.117-1.131c0-0.617-0.501-1.133-1.117-1.133H2.235c-0.618,0-1.116,0.516-1.116,1.133
		s0.498,1.131,1.116,1.131H17.674z"/>
	<path d="M17.674,28.893H2.235c-0.618,0-1.116,0.489-1.116,1.105c0,0.617,0.498,1.105,1.116,1.105h15.438
		c0.616,0,1.117-0.488,1.117-1.105C18.791,29.381,18.29,28.893,17.674,28.893z"/>
	<circle cx="25.568" cy="15.978" r="1.723"/>
</g>
</svg>
