<?xml version="1.0" encoding="utf-8"?>
<!-- Generator: Adobe Illustrator 16.0.4, SVG Export Plug-In . SVG Version: 6.00 Build 0)  -->
<!DOCTYPE svg PUBLIC "-//W3C//DTD SVG 1.1//EN" "http://www.w3.org/Graphics/SVG/1.1/DTD/svg11.dtd">
<svg version="1.1" id="Layer_1" xmlns="http://www.w3.org/2000/svg" xmlns:xlink="http://www.w3.org/1999/xlink" x="0px" y="0px"
	 width="32px" height="32px" viewBox="0 0 32 32" enable-background="new 0 0 32 32" xml:space="preserve">
<g>
	<path d="M23.016,4.798H11.619c-1.244,0-2.229,0.976-2.229,2.221V9.46c0,1.028,0.682,1.896,1.571,2.167v15.364
		c0,0.043,0.018,0.086,0.02,0.13c0.097,1.654,1.548,4.786,6.33,4.786c4.428,0,6.076-2.992,6.317-4.575
		c0.017-0.113,0.046-0.227,0.046-0.341V11.628c0.889-0.271,1.572-1.139,1.572-2.167V7.019C25.246,5.774,24.26,4.798,23.016,4.798z
		 M22.99,8.678c0,0.424-0.344,0.768-0.768,0.768h-0.035c-0.424,0-0.77,0.344-0.77,0.768v16.779c0,0-0.438,2.661-4.102,2.661
		c-3.916,0-4.102-2.661-4.102-2.661v-16.78c0-0.424-0.344-0.768-0.768-0.768h-0.036c-0.424,0-0.768-0.344-0.768-0.768V7.821
		c0-0.424,0.344-0.768,0.768-0.768h9.81c0.424,0,0.768,0.344,0.768,0.768v0.857H22.99z"/>
	<path d="M17.316,28.552c2.57,0,2.871-2.149,2.871-2.149v-7.113h-5.742v7.113C14.447,26.4,14.571,28.552,17.316,28.552z"/>
	<circle cx="17.707" cy="14.672" r="1.426"/>
	<circle cx="15.89" cy="9.743" r="1.427"/>
	<circle cx="20.171" cy="2.177" r="1.384"/>
	<circle cx="15.284" cy="1.01" r="0.822"/>
</g>
</svg>
