<?xml version="1.0" encoding="utf-8"?>
<!-- Generator: Adobe Illustrator 16.0.4, SVG Export Plug-In . SVG Version: 6.00 Build 0)  -->
<!DOCTYPE svg PUBLIC "-//W3C//DTD SVG 1.1//EN" "http://www.w3.org/Graphics/SVG/1.1/DTD/svg11.dtd">
<svg version="1.1" id="Layer_1" xmlns="http://www.w3.org/2000/svg" xmlns:xlink="http://www.w3.org/1999/xlink" x="0px" y="0px"
	 width="32px" height="32px" viewBox="0 0 32 32" enable-background="new 0 0 32 32" xml:space="preserve">
<g>
	<path d="M16.034,0c0,0-2.357,0.494-3.07,0.695l0.826,2.903c1.025-0.291,1.832-0.445,2.224-0.507l-0.083,12.848L3.214,15.954
		c-0.002-0.537,0.02-1.061,0.071-1.563l-3.02-0.282c-0.06,0.599-0.187,1.901-0.187,1.901c0,8.695,7.144,15.932,15.957,15.932
		c8.814,0,15.958-7.157,15.958-15.97S24.848,0,16.034,0z"/>
	<path d="M10.106,5.007L8.727,2.303C7.863,2.745,6.986,3.268,6.142,3.887l1.794,2.448C8.592,5.854,9.322,5.406,10.106,5.007z"/>
	<path d="M5.35,8.874L2.91,7.069C2.33,7.854,1.814,8.725,1.393,9.691l2.781,1.214C4.488,10.19,4.882,9.506,5.35,8.874z"/>
</g>
</svg>
