<?xml version="1.0" encoding="utf-8"?>
<!-- Generator: Adobe Illustrator 16.0.4, SVG Export Plug-In . SVG Version: 6.00 Build 0)  -->
<!DOCTYPE svg PUBLIC "-//W3C//DTD SVG 1.1//EN" "http://www.w3.org/Graphics/SVG/1.1/DTD/svg11.dtd">
<svg version="1.1" id="Layer_1" xmlns="http://www.w3.org/2000/svg" xmlns:xlink="http://www.w3.org/1999/xlink" x="0px" y="0px"
	 width="32px" height="32px" viewBox="0 0 32 32" enable-background="new 0 0 32 32" xml:space="preserve">
<g>
	<path d="M20.757,7.249c-0.448,0-0.881,0.061-1.291,0.174c0.759,0.327,1.29,1.082,1.29,1.961c0,1.18-0.956,2.135-2.136,2.135
		c-1.063,0-1.945-0.778-2.108-1.795c-0.402,0.709-0.633,1.529-0.633,2.401c0,2.692,2.184,4.876,4.878,4.876
		c2.692,0,4.875-2.184,4.875-4.876S23.449,7.249,20.757,7.249z"/>
	<path d="M25.613,22.075c3.678-1.804,6.216-5.585,6.216-9.949c0-6.106-4.968-11.074-11.072-11.074
		c-6.106,0-11.074,4.968-11.074,11.074c0,4.501,2.699,8.382,6.564,10.113l-0.004,0.001l-5.867,2.715v2.691h21.351v-2.691
		l-6.104-2.878L25.613,22.075z M20.757,18.953c-3.765,0-6.827-3.062-6.827-6.827s3.062-6.827,6.827-6.827
		c3.763,0,6.823,3.062,6.823,6.827S24.52,18.953,20.757,18.953z"/>
	<path d="M11.724,21.945c0.481-0.737,0.272-1.723-0.466-2.202c-0.735-0.479-1.723-0.272-2.204,0.465
		c-0.019,0.032-2.164,3.237-7.495,3.929c-0.873,0.112-1.486,0.912-1.375,1.785c0.103,0.803,0.789,1.389,1.577,1.389
		c0.068,0,0.137-0.004,0.206-0.015C8.74,26.417,11.606,22.128,11.724,21.945z"/>
</g>
</svg>
