<?xml version="1.0" encoding="utf-8"?>
<!-- Generator: Adobe Illustrator 16.0.4, SVG Export Plug-In . SVG Version: 6.00 Build 0)  -->
<!DOCTYPE svg PUBLIC "-//W3C//DTD SVG 1.1//EN" "http://www.w3.org/Graphics/SVG/1.1/DTD/svg11.dtd">
<svg version="1.1" id="Layer_1" xmlns="http://www.w3.org/2000/svg" xmlns:xlink="http://www.w3.org/1999/xlink" x="0px" y="0px"
	 width="32px" height="32px" viewBox="0 0 32 32" enable-background="new 0 0 32 32" xml:space="preserve">
<g>
	<path d="M21.24,5.083c-5.818,0-10.535-4.406-10.535,1.489c0,1.1,0.164,2.375,0.468,3.722c1.55-0.095,3.046-0.513,4.386-0.885
		c1.302-0.363,2.427-0.676,3.47-0.676c1.266,0,2.713,0.461,3.354,2.348c0.002-0.006,0.004-0.019,0.004-0.019h4.682
		c0.045,0.183,0.076,0.29,0.076,0.443c0,1.027-1.082,1.86-2.416,1.86c-0.869,0-1.629-0.352-2.056-0.88
		c0.03,0.299,0.046,0.62,0.046,0.967c0,1.059-0.134,2.261-0.388,3.536c1.342,0.433,2.392,1.566,2.671,3.006l-1.044-0.364
		c-0.325-0.823-0.998-1.461-1.821-1.753c-0.421,1.775-1.061,3.65-1.89,5.436c0.327,0.067,0.657,0.106,0.993,0.106
		c5.818,0,10.535-10.952,10.535-16.848S27.059,5.083,21.24,5.083z"/>
	<path d="M15.747,11.068c-0.142,0.039-0.286,0.079-0.432,0.119c-1.435,0.39-3.059,0.774-4.779,0.774C4.717,11.962,0,7.559,0,13.454
		C0,19.348,4.717,30.3,10.536,30.3c5.818,0,10.534-10.952,10.534-16.846C21.07,9.479,18.926,10.185,15.747,11.068z M4.643,19.066
		c-0.044-0.092-0.076-0.271-0.076-0.426c0-1.025,1.082-1.844,2.417-1.844s2.417,0.816,2.417,1.844c0,0.152-0.031,0.334-0.076,0.426
		H4.643z M10.536,26.518c-2.076,0-3.801-1.537-4.182-3.447h8.364C14.335,24.98,12.611,26.518,10.536,26.518z M16.364,19.066h-4.681
		c-0.045-0.092-0.076-0.271-0.076-0.426c0-1.025,1.082-1.844,2.417-1.844s2.417,0.816,2.417,1.844
		C16.44,18.795,16.409,18.977,16.364,19.066z"/>
</g>
</svg>
