<?xml version="1.0" encoding="utf-8"?>
<!-- Generator: Adobe Illustrator 16.0.4, SVG Export Plug-In . SVG Version: 6.00 Build 0)  -->
<!DOCTYPE svg PUBLIC "-//W3C//DTD SVG 1.1//EN" "http://www.w3.org/Graphics/SVG/1.1/DTD/svg11.dtd">
<svg version="1.1" id="Layer_1" xmlns="http://www.w3.org/2000/svg" xmlns:xlink="http://www.w3.org/1999/xlink" x="0px" y="0px"
	 width="32px" height="32px" viewBox="0 0 32 32" enable-background="new 0 0 32 32" xml:space="preserve">
<g>
	<path d="M27.438,28.316l0.941-0.496L20.74,13.296c1.017-1.132,1.646-2.629,1.646-4.267c0-2.998-2.154-5.519-4.853-6.209V1.347
		c0-0.744-0.604-1.346-1.346-1.346H15.99c-0.744,0-1.346,0.602-1.346,1.346V2.79c-2.89,0.643-5.027,3.195-5.027,6.239
		c0,1.56,0.544,2.991,1.475,4.102l-7.48,14.717l0.944,0.481l-1.049,2.062c-0.104,0.205-0.123,0.443-0.052,0.661
		c0.071,0.22,0.227,0.4,0.431,0.505l0.359,0.184c0.205,0.104,0.443,0.121,0.662,0.051c0.218-0.07,0.4-0.227,0.504-0.434l1.046-2.062
		l0.956,0.485l5.69-11.203v0.882h5.973v-0.319l5.564,10.668l0.926-0.498l1.029,2.041c0.104,0.207,0.284,0.362,0.504,0.436
		c0.219,0.07,0.459,0.053,0.664-0.053l0.348-0.178c0.426-0.218,0.595-0.738,0.379-1.164L27.438,28.316z M16.044,15.415
		c-0.868,0-1.573-0.704-1.573-1.573c0-0.868,0.705-1.573,1.573-1.573s1.572,0.705,1.572,1.573
		C17.616,14.711,16.912,15.415,16.044,15.415z M19.077,12.045V9.656c0-0.756-0.613-1.37-1.37-1.37h-3.234
		c-0.756,0-1.37,0.613-1.37,1.37v2.512c-0.771-0.779-1.384-1.898-1.384-3.139c0-2.35,1.91-4.26,4.259-4.26
		c2.35,0,4.306,1.91,4.306,4.26C20.285,10.206,19.848,11.273,19.077,12.045z"/>
</g>
</svg>
