<?xml version="1.0" encoding="utf-8"?>
<!-- Generator: Adobe Illustrator 16.0.4, SVG Export Plug-In . SVG Version: 6.00 Build 0)  -->
<!DOCTYPE svg PUBLIC "-//W3C//DTD SVG 1.1//EN" "http://www.w3.org/Graphics/SVG/1.1/DTD/svg11.dtd">
<svg version="1.1" id="Layer_1" xmlns="http://www.w3.org/2000/svg" xmlns:xlink="http://www.w3.org/1999/xlink" x="0px" y="0px"
	 width="32px" height="32px" viewBox="0 0 32 32" enable-background="new 0 0 32 32" xml:space="preserve">
<g>
	<path d="M15.999,0.149C7.258,0.149,0.148,7.259,0.148,16c0,8.74,7.11,15.852,15.851,15.852c8.742,0,15.853-7.11,15.853-15.852
		S24.741,0.149,15.999,0.149z M15.999,28.193c-6.722,0-12.19-5.471-12.19-12.192c0-6.723,5.469-12.193,12.19-12.193
		c6.724,0,12.192,5.47,12.192,12.193C28.191,22.723,22.723,28.193,15.999,28.193z"/>
	<path d="M13.721,21.934l1.42,5.09h1.725l1.571-5.057c-0.703,0.338-1.492,0.526-2.325,0.526
		C15.254,22.493,14.441,22.292,13.721,21.934z"/>
	<path d="M19.125,12.649l-2.26-7.401H15.14l-2.106,7.447c0.875-0.608,1.935-0.965,3.079-0.965
		C17.229,11.73,18.266,12.069,19.125,12.649z"/>
	<circle cx="16.022" cy="16.613" r="4.224"/>
</g>
</svg>
