<?xml version="1.0" encoding="utf-8"?>
<!-- Generator: Adobe Illustrator 16.0.4, SVG Export Plug-In . SVG Version: 6.00 Build 0)  -->
<!DOCTYPE svg PUBLIC "-//W3C//DTD SVG 1.1//EN" "http://www.w3.org/Graphics/SVG/1.1/DTD/svg11.dtd">
<svg version="1.1" id="Layer_1" xmlns="http://www.w3.org/2000/svg" xmlns:xlink="http://www.w3.org/1999/xlink" x="0px" y="0px"
	 width="32px" height="32px" viewBox="0 0 32 32" enable-background="new 0 0 32 32" xml:space="preserve">
<g>
	<path d="M18.718,8.109H0.975c-0.543,0-0.873,0.411-0.873,0.956v11.828c0,0.545,0.33,1.015,0.873,1.015h7.698v1.409v0.062H5.954
		c-0.865,0-1.567,0.702-1.567,1.566v0.31h10.581v-0.31c0-0.865-0.702-1.566-1.567-1.566h-2.719v-0.062v-1.409h8.036
		c0.544,0,0.937-0.468,0.937-1.015V9.064C19.654,8.52,19.262,8.109,18.718,8.109z M17.645,18.762c0,0.7-0.565,1.268-1.268,1.268
		H3.244c-0.7,0-1.268-0.566-1.268-1.268v-7.376c0-0.7,0.567-1.267,1.268-1.267h13.134c0.7,0,1.269,0.567,1.269,1.267v7.376H17.645z"
		/>
	<path d="M23.273,7.976c-1.11,0-2.012,0.9-2.012,2.011v15.399h10.445V9.543c0-0.866-0.702-1.567-1.566-1.567H23.273z M26.512,23.482
		c-0.476,0-0.859-0.375-0.859-0.836s0.386-0.836,0.859-0.836c0.473,0,0.858,0.375,0.858,0.836S26.984,23.482,26.512,23.482z
		 M29.434,14.003H23.54v-0.938h5.894V14.003z M29.434,11.994H23.54v-0.938h5.894V11.994z"/>
</g>
</svg>
