<?xml version="1.0" encoding="utf-8"?>
<!-- Generator: Adobe Illustrator 16.0.4, SVG Export Plug-In . SVG Version: 6.00 Build 0)  -->
<!DOCTYPE svg PUBLIC "-//W3C//DTD SVG 1.1//EN" "http://www.w3.org/Graphics/SVG/1.1/DTD/svg11.dtd">
<svg version="1.1" id="Layer_1" xmlns="http://www.w3.org/2000/svg" xmlns:xlink="http://www.w3.org/1999/xlink" x="0px" y="0px"
	 width="32px" height="32px" viewBox="0 0 32 32" enable-background="new 0 0 32 32" xml:space="preserve">
<path d="M15.999,0c-8.504,0-15.4,6.178-15.4,13.793c0,3.835,1.747,7.303,4.564,9.803l1.794-3.349v7.735
	c0,0.94,0.535,1.805,1.379,2.223c1.5,0.74,4.185,1.727,7.869,1.727c3.307,0,5.736-0.795,7.252-1.492
	c1.061-0.488,1.738-1.551,1.738-2.719v-7.474l0.087,0.171l1.649,3.098c2.766-2.494,4.469-5.93,4.469-9.723
	C31.4,6.178,24.505,0,15.999,0z M10.786,19.796c-1.992,0-3.61-1.944-3.61-4.327c0-0.473,0.383-0.854,0.855-0.854h5.508
	c0.474,0,0.857,0.384,0.857,0.858c0-0.001,0,0,0,0C14.396,17.854,12.779,19.796,10.786,19.796z M17.812,23.137l-1.201-0.611
	c-0.374-0.189-0.814-0.188-1.187,0.007l-1.142,0.599l-1.061-0.915l2.093-2.43c0.173-0.201,0.425-0.317,0.69-0.319
	c0.266-0.002,0.519,0.11,0.694,0.311l2.162,2.434L17.812,23.137z M21.562,19.796c-1.992,0-3.606-1.944-3.606-4.327
	c0-0.473,0.383-0.854,0.854-0.854h5.508c0.473,0,0.854,0.383,0.854,0.854c0,0,0,0.001,0,0.002
	C25.174,17.854,23.557,19.796,21.562,19.796z"/>
</svg>
