<?xml version="1.0" encoding="utf-8"?>
<!-- Generator: Adobe Illustrator 16.0.4, SVG Export Plug-In . SVG Version: 6.00 Build 0)  -->
<!DOCTYPE svg PUBLIC "-//W3C//DTD SVG 1.1//EN" "http://www.w3.org/Graphics/SVG/1.1/DTD/svg11.dtd">
<svg version="1.1" id="Layer_1" xmlns="http://www.w3.org/2000/svg" xmlns:xlink="http://www.w3.org/1999/xlink" x="0px" y="0px"
	 width="32px" height="32px" viewBox="0 0 32 32" enable-background="new 0 0 32 32" xml:space="preserve">
<g>
	<path d="M14.959,17.07c-1.044-1.062-3.715-3.403-6.129-2.517l-7.339,7.238c0.038-0.006,0.076-0.012,0.114-0.016
		c1.682-0.221,4.117,0.041,6.459,2.414c1.89,1.918,2.702,3.678,2.285,4.955c-0.233,0.707-0.825,1.188-1.628,1.319
		c-0.141,0.021-0.296,0.034-0.458,0.034c-1.351,0-3.353-0.84-5.176-3.298l1.128-0.839c1.484,1.998,3.281,2.887,4.28,2.715
		c0.421-0.07,0.492-0.295,0.518-0.37c0.175-0.536-0.23-1.785-1.952-3.526c-2.78-2.82-5.592-2.089-6.569-1.701
		c-0.265,1.611,0.65,3.861,2.489,5.727c2.377,2.412,5.423,3.289,6.929,2.04c0.011-0.002,0.015-0.003,0.015-0.003l8.173-8.059
		c0.125-0.328,0.252-1.062-0.351-2.27C17.091,19.6,16.075,18.2,14.959,17.07z"/>
	<path d="M29.258,3.293c-2.453-2.486-5.619-3.342-7.07-1.912c-0.041,0.04-5.896,5.807-5.896,5.807
		c1.791,0.721,3.709,2.043,5.274,3.63c1.811,1.835,2.945,3.762,3.365,5.624c0,0,6.102-6.015,6.139-6.052
		C32.521,8.958,31.711,5.781,29.258,3.293z"/>
	<path d="M24.896,19.715c-0.752-0.176-1.31-0.238-1.394-0.244c0.172-0.59,0.229-1.193,0.185-1.8c-0.148-2.06-1.436-4.151-3.121-5.86
		c-1.484-1.506-3.277-2.716-4.875-3.342c-0.183-0.072-0.36-0.12-0.536-0.151l-4.719,4.653c1.953,0.186,3.908,1.473,5.526,3.112
		c1.283,1.304,2.356,2.831,3.043,4.201c0.277,0.551,0.44,1.048,0.524,1.487c0.328,1.67-0.461,2.521-0.461,2.521l2.617-2.58
		c0.112-0.021,0.229-0.051,0.34-0.094c0.121,0.562,0.146,1.105,0.1,1.633c-0.254,2.887-2.605,5.102-2.605,5.102l2.782,1.201
		c3.491-2.803,2.368-6.197,1.447-7.904c-0.215-0.396-0.418-0.7-0.55-0.887c-0.006-0.01-0.014-0.021-0.02-0.035
		c0.008,0.008,0.012,0.016,0.02,0.024c0.336,0.146,0.644,0.326,0.927,0.521c2.791,1.945,2.976,5.982,2.976,5.982l2.724-1.326
		C29.971,21.555,26.809,20.158,24.896,19.715z"/>
</g>
</svg>
