<?xml version="1.0" encoding="utf-8"?>
<!-- Generator: Adobe Illustrator 16.0.4, SVG Export Plug-In . SVG Version: 6.00 Build 0)  -->
<!DOCTYPE svg PUBLIC "-//W3C//DTD SVG 1.1//EN" "http://www.w3.org/Graphics/SVG/1.1/DTD/svg11.dtd">
<svg version="1.1" id="Layer_1" xmlns="http://www.w3.org/2000/svg" xmlns:xlink="http://www.w3.org/1999/xlink" x="0px" y="0px"
	 width="32px" height="32px" viewBox="0 0 32 32" enable-background="new 0 0 32 32" xml:space="preserve">
<path d="M31.875,4.128c-0.311-1.174-1.512-1.875-2.686-1.566c-1.176,0.309-1.877,1.511-1.568,2.686
	c0.145,0.551,0.488,0.996,0.932,1.284c-0.107,1.614-0.587,3.58-2.008,5.299c-4.005-4.569-5.697-6.434-6.479-7.189
	c0.418-0.265,0.771-0.43,1.004-0.523c0.529,0.44,1.254,0.629,1.97,0.44c1.173-0.309,1.875-1.512,1.565-2.685
	c-0.31-1.175-1.513-1.877-2.686-1.569c-0.881,0.232-1.495,0.966-1.618,1.813c-1.657,0.703-7.31,3.832-6.467,13.582
	c-6.191,0.18-9.447,1.819-10.928,2.889c-0.381-0.12-0.798-0.139-1.213-0.03c-1.174,0.311-1.875,1.512-1.567,2.688
	c0.31,1.175,1.512,1.877,2.686,1.566c0.968-0.254,1.614-1.117,1.637-2.07l6.472,6.794c-0.152,0.094-0.301,0.181-0.446,0.257
	c-0.516-0.376-1.19-0.525-1.856-0.352c-1.174,0.309-1.876,1.512-1.567,2.687c0.31,1.175,1.512,1.877,2.687,1.567
	c0.916-0.241,1.541-1.027,1.627-1.918c3.028-1.504,5.535-5.199,4.881-11.935c1.943-0.009,3.734-0.228,5.344-0.651
	c2.406-0.633,4.406-1.716,5.92-3.229c1.912-1.911,3.002-4.414,3.188-7.291C31.632,6.223,32.148,5.165,31.875,4.128z M11.783,26.876
	L5.03,19.788c0.433-0.235,0.97-0.487,1.632-0.728l6.326,6.303C12.626,25.986,12.211,26.482,11.783,26.876z M13.484,24.337
	l-5.667-5.647c0.871-0.244,1.902-0.461,3.11-0.613l3.242,3.094C14.074,22.434,13.827,23.477,13.484,24.337z M12.336,17.932
	c0.552-0.043,1.135-0.072,1.751-0.086c0.073,0.666,0.111,1.289,0.121,1.872L12.336,17.932z M15.996,15.693
	c-0.141-1.48-0.119-2.781,0.019-3.92l3.165,3.712C18.184,15.629,17.121,15.698,15.996,15.693z M20.407,15.266l-4.154-4.87
	c0.222-0.963,0.531-1.787,0.892-2.491c1.349,1.457,3.856,4.284,5.838,6.54C22.195,14.789,21.335,15.063,20.407,15.266z
	 M23.979,13.949c-3.515-4.011-5.309-6.012-6.266-7.007c0.479-0.703,0.997-1.25,1.491-1.667c0.847,0.837,4.134,4.537,6.601,7.345
	C25.27,13.123,24.658,13.567,23.979,13.949z"/>
</svg>
