<?xml version="1.0" encoding="utf-8"?>
<!-- Generator: Adobe Illustrator 16.0.4, SVG Export Plug-In . SVG Version: 6.00 Build 0)  -->
<!DOCTYPE svg PUBLIC "-//W3C//DTD SVG 1.1//EN" "http://www.w3.org/Graphics/SVG/1.1/DTD/svg11.dtd">
<svg version="1.1" id="Layer_1" xmlns="http://www.w3.org/2000/svg" xmlns:xlink="http://www.w3.org/1999/xlink" x="0px" y="0px"
	 width="32px" height="32px" viewBox="0 0 32 32" enable-background="new 0 0 32 32" xml:space="preserve">
<g>
	<path d="M25.141,2.656c0-1.441-1.168-2.609-2.607-2.609H4.599c-1.383,0-2.504,1.121-2.504,2.504v21.762
		c0,1.441,1.168,2.609,2.609,2.609h17.827c1.441,0,2.609-1.168,2.609-2.609V2.656L25.141,2.656z M22.542,22.341
		c0,1.095-0.888,1.983-1.983,1.983H6.676c-1.095,0-1.983-0.889-1.983-1.983V4.561c0-1.095,0.888-1.983,1.983-1.983h13.883
		c1.094,0,1.982,0.888,1.982,1.983L22.542,22.341L22.542,22.341z"/>
	<path d="M26.167,5.04v2.599c0.792,0,1.435,0.643,1.435,1.435v18.875c0,0.792-0.643,1.435-1.435,1.435H11.054
		c-0.755,0-1.368-0.612-1.368-1.368H7.155v1.289c0,1.441,1.168,2.609,2.609,2.609h17.757c1.44,0,2.608-1.169,2.608-2.609V7.649
		c0-1.441-1.168-2.609-2.608-2.609H26.167z"/>
	<path d="M7.977,8.458h11.511c0.707,0,1.279-0.558,1.279-1.265s-0.572-1.266-1.279-1.266H7.977c-0.707,0-1.279,0.559-1.279,1.266
		C6.699,7.9,7.27,8.458,7.977,8.458z"/>
	<path d="M7.977,12.698h11.511c0.707,0,1.279-0.561,1.279-1.265c0-0.707-0.572-1.265-1.279-1.265H7.977
		c-0.707,0-1.279,0.558-1.279,1.265C6.699,12.137,7.27,12.698,7.977,12.698z"/>
	<path d="M7.977,16.938h11.511c0.707,0,1.279-0.56,1.279-1.265c0-0.706-0.572-1.265-1.279-1.265H7.977
		c-0.707,0-1.279,0.559-1.279,1.265C6.699,16.378,7.27,16.938,7.977,16.938z"/>
	<path d="M7.977,21.041h11.511c0.707,0,1.279-0.559,1.279-1.266c0-0.705-0.572-1.266-1.279-1.266H7.977
		c-0.707,0-1.279,0.561-1.279,1.266C6.699,20.482,7.27,21.041,7.977,21.041z"/>
</g>
</svg>
