<?xml version="1.0" encoding="utf-8"?>
<!-- Generator: Adobe Illustrator 16.0.4, SVG Export Plug-In . SVG Version: 6.00 Build 0)  -->
<!DOCTYPE svg PUBLIC "-//W3C//DTD SVG 1.1//EN" "http://www.w3.org/Graphics/SVG/1.1/DTD/svg11.dtd">
<svg version="1.1" id="Layer_1" xmlns="http://www.w3.org/2000/svg" xmlns:xlink="http://www.w3.org/1999/xlink" x="0px" y="0px"
	 width="32px" height="32px" viewBox="0 0 32 32" enable-background="new 0 0 32 32" xml:space="preserve">
<path d="M16.012,11.88c0,0.588-0.476,1.064-1.065,1.064H5.37c-0.588,0-1.065-0.476-1.065-1.064c0-0.587,0.477-1.063,1.065-1.063
	h9.577C15.537,10.817,16.012,11.293,16.012,11.88z M21.592,11.232l5.342,4.791L15.607,28.65l-5.34-4.791L21.592,11.232z
	 M20.081,16.333l-0.034-0.03c-0.126-0.114-0.292-0.172-0.461-0.163c-0.168,0.009-0.327,0.085-0.439,0.211l-6.079,6.777
	c-0.253,0.28-0.229,0.713,0.052,0.965c0.126,0.114,0.291,0.173,0.461,0.163c0.168-0.01,0.327-0.085,0.44-0.212l6.109-6.81
	C20.365,16.973,20.343,16.568,20.081,16.333z M21.343,13.896l-0.301,0.336c-0.112,0.126-0.171,0.292-0.162,0.461
	s0.085,0.328,0.211,0.441l0.035,0.031c0.126,0.113,0.292,0.171,0.461,0.162c0.169-0.009,0.327-0.085,0.44-0.211l0.727-0.811
	l-0.51-0.457C21.982,13.612,21.578,13.634,21.343,13.896z M22.107,10.655l5.341,4.791l1.312-1.462l-5.34-4.791L22.107,10.655z
	 M31.12,11.355l-1.877,2.093l-5.341-4.79l1.88-2.093c0.247-0.28,0.6-0.448,0.975-0.468c0.375-0.021,0.742,0.109,1.021,0.359
	l3.234,2.903C31.592,9.88,31.641,10.774,31.12,11.355z M30.068,10.409l-3.233-2.902l-0.937,1.042l3.234,2.903L30.068,10.409z
	 M9.629,24.573l5.339,4.791l-6.31,2.585C8.415,32.048,8.137,32,7.942,31.825c-0.196-0.177-0.273-0.447-0.201-0.699L9.629,24.573z
	 M10.117,26.275l-0.722,2.507l1.411,1.267l2.412-0.986L10.117,26.275z M8.287,24.43l-0.623,2.162H2.931
	c-1.332,0-2.413-1.08-2.413-2.412V6.638c0-1.332,1.08-2.413,2.413-2.413h2.94V4.051c0-0.492,0.399-0.89,0.89-0.89h0.74
	C7.486,3.054,7.478,2.926,7.478,2.806c0-1.467,1.193-2.661,2.661-2.661c1.469,0,2.661,1.194,2.661,2.661
	c0,0.12-0.01,0.248-0.023,0.354h0.749c0.492,0,0.89,0.399,0.89,0.89v0.174h2.869c1.332,0,2.413,1.081,2.413,2.413v4.63l-2.128,2.372
	V7.651c0-0.699-0.566-1.265-1.264-1.265h-1.891v1.201c0,0.491-0.399,0.89-0.89,0.89H6.762c-0.492,0-0.89-0.399-0.89-0.89V6.386
	H3.946c-0.699,0-1.265,0.567-1.265,1.265v15.514c0,0.7,0.567,1.265,1.265,1.265H8.287z M9.075,2.806
	c0,0.124,0.023,0.248,0.061,0.355h2.005c0.04-0.107,0.062-0.23,0.062-0.355c0-0.587-0.477-1.065-1.064-1.065
	C9.552,1.741,9.075,2.219,9.075,2.806z M15.021,16.486l0.991-1.105c-0.014-0.576-0.484-1.054-1.064-1.054H5.37
	c-0.588,0-1.065,0.493-1.065,1.082c0,0.587,0.477,1.081,1.065,1.081h9.577C14.972,16.489,14.997,16.487,15.021,16.486z
	 M4.305,18.936c0,0.588,0.477,1.062,1.065,1.062h6.502l1.907-2.126H5.37C4.782,17.872,4.305,18.348,4.305,18.936z"/>
</svg>
