<?xml version="1.0" encoding="utf-8"?>
<!-- Generator: Adobe Illustrator 16.0.4, SVG Export Plug-In . SVG Version: 6.00 Build 0)  -->
<!DOCTYPE svg PUBLIC "-//W3C//DTD SVG 1.1//EN" "http://www.w3.org/Graphics/SVG/1.1/DTD/svg11.dtd">
<svg version="1.1" id="Layer_1" xmlns="http://www.w3.org/2000/svg" xmlns:xlink="http://www.w3.org/1999/xlink" x="0px" y="0px"
	 width="32px" height="32px" viewBox="0 0 32 32" enable-background="new 0 0 32 32" xml:space="preserve">
<g>
	<path d="M27.836,14.77c0-6.784-5.037-12.413-11.574-13.339V1.224c0-0.646-0.557-1.171-1.257-1.171
		c-0.701,0-1.259,0.525-1.259,1.171v1.488c0,0.625,0.507,1.132,1.132,1.132h0.118c5.74,0.325,10.312,5.103,10.312,10.923
		c0,6.032-4.908,10.94-10.941,10.94c-2.935,0-5.601-1.167-7.566-3.059c-0.416-0.399-1.067-0.424-1.51-0.053
		c-0.069,0.057-0.138,0.113-0.207,0.172c-0.246,0.207-0.394,0.508-0.405,0.828c-0.011,0.32,0.114,0.631,0.345,0.854
		c2.278,2.208,5.315,3.621,8.723,3.779v0.986h-2.044c-0.979,0-1.773,0.793-1.773,1.771v0.785h10.15V30.99
		c0-0.979-0.793-1.772-1.771-1.772h-2.043v-1.106C22.8,27.184,27.836,21.555,27.836,14.77z"/>
	<path d="M14.366,24.175c5.194,0,9.405-4.211,9.405-9.405c0-5.193-4.211-9.404-9.405-9.404c-5.192,0-9.404,4.211-9.404,9.404
		C4.962,19.964,9.173,24.175,14.366,24.175z M22.107,14.77c0,0.615-0.071,1.212-0.207,1.785c-0.07-0.111-0.562-0.832-0.652-1.068
		c-0.091-0.237-1.25,1.369-1.359,1.46c-0.111,0.092-0.089-1.99-0.089-2.263s-0.382-0.639-0.598-0.821
		c-0.22-0.183-1.481-1.379-1.845-1.241c-0.404,0.153,0.795,1.058,0.705,1.15c-0.092,0.092-1.035,0.346-1.42,0.418
		c-0.387,0.074-0.664-0.456-0.791-0.693c-0.128-0.236-0.49-1.076-0.561-1.295c-0.072-0.22-0.326,0.316-0.29,0.552
		c0.036,0.238,0.382,0.926,0.544,1.182c0.164,0.255,0.236,0.564,0.236,0.803c0,0.237,0.343,0.401,0.703,0.51
		c0.366,0.11,0,0.347-0.125,0.493c-0.128,0.147-0.65,0.438-1.196,0.711c-0.543,0.273-1.122,1.205-1.319,1.588
		c-0.2,0.383-0.653,1.076-1.033,1.386s-2.281,0.968-2.95,0.802c-0.668-0.162-0.777-2.535-0.723-2.989
		c0.055-0.456,0.362-1.188,0.325-1.606c-0.034-0.42,0.142-1.114,0.234-1.278c0.094-0.165,0.526,0.017,0.726-0.001
		c0.199-0.019-0.2-0.514-0.308-0.496c-0.108,0.018-0.361-0.149-0.511-0.224c-0.142-0.072-0.303-0.518-0.864-0.645
		c-0.563-0.128-0.635-0.837-0.708-1.184c-0.072-0.348,0.381-1.254,0.473-1.436c0.091-0.183,1.23-1.178,1.23-1.178
		s0.607-0.312,0.78-0.302c0.506,0.031,0.998,0.515,0.998,0.515s0.724,0.445,1.189,1.189c0.389,0.621,1.208,0.733,1.208,0.733
		c0.455-0.039,0.75-0.388,0.772-0.515c0.082-0.417-0.236-0.767-0.677-0.745c-0.092,0.005-0.127,0.183-0.271,0.183
		c-0.145,0-0.11-0.183-0.164-0.367c-0.054-0.181-0.068-0.398-0.155-0.617c-0.09-0.219-0.162-0.488-0.342-0.688
		c-0.182-0.202-0.434-0.05-0.669-0.104c-0.235-0.056-0.589,0.134-0.842,0.115c-0.255-0.019-0.381-0.218-0.363-0.401
		c0.018-0.183,0.639-0.411,0.945-0.448c0.309-0.036,0.586-0.07,0.675-0.198c0.092-0.128,0.528-0.197,0.673-0.179
		c0.145,0.019,0.377,0.117,0.517,0.298c0.189,0.25,0.199,0.643,0.639,0.585c0.17-0.022,0.62-0.277,0.278-0.479
		c-0.192-0.114-0.452-0.291-0.269-0.62c0.025-0.046,0.078-0.08,0.153-0.106C18.874,7.276,22.107,10.652,22.107,14.77z
		 M13.701,19.445c0.144-0.254,0.453-0.311,0.795-0.383c0.36-0.078,0,0.785-0.185,0.896c-0.179,0.108-0.758,0.364-0.92,0.299
		C13.227,20.191,13.553,19.701,13.701,19.445z"/>
</g>
</svg>
