<?xml version="1.0" encoding="utf-8"?>
<!-- Generator: Adobe Illustrator 16.0.4, SVG Export Plug-In . SVG Version: 6.00 Build 0)  -->
<!DOCTYPE svg PUBLIC "-//W3C//DTD SVG 1.1//EN" "http://www.w3.org/Graphics/SVG/1.1/DTD/svg11.dtd">
<svg version="1.1" id="Layer_1" xmlns="http://www.w3.org/2000/svg" xmlns:xlink="http://www.w3.org/1999/xlink" x="0px" y="0px"
	 width="32px" height="32px" viewBox="0 0 32 32" enable-background="new 0 0 32 32" xml:space="preserve">
<g>
	<path d="M3.635,13.784h22.975v-3.088h-1.461c-0.979-2.377-0.573-4.831-0.157-6.257h1.618V1.35H3.635C1.632,1.35,0,2.971,0,4.975
		v5.193C0,12.172,1.632,13.784,3.635,13.784z M3.087,4.975c0-0.286,0.262-0.537,0.548-0.537h18.926
		c-0.387,1.584-0.625,3.88,0.104,6.257H3.635c-0.286,0-0.548-0.241-0.548-0.527V4.975z"/>
	<path d="M27.779,20.199H5.543v3.088H6.29c0.684,2.218,0.146,3.881-0.224,4.673H5.543v3.088h22.236c2.006,0,3.66-1.456,3.66-3.269
		v-4.328C31.439,21.639,29.785,20.199,27.779,20.199z M27.779,27.959H8.57c0.358-1.107,0.596-2.771,0.148-4.673h19.062
		c0.324,0,0.5,0.149,0.521,0.17l0.007,4.297C28.279,27.807,28.104,27.959,27.779,27.959z"/>
	<path d="M27.919,14.655l-2.181,1.333v-1.333H0.157v4.593h25.581v-1.307l2.181,1.307h2.508c0.821,0,1.487-0.666,1.487-1.487v-1.865
		c0-0.685-0.557-1.241-1.24-1.241H27.919z"/>
</g>
</svg>
