<?xml version="1.0" encoding="utf-8"?>
<!-- Generator: Adobe Illustrator 16.0.4, SVG Export Plug-In . SVG Version: 6.00 Build 0)  -->
<!DOCTYPE svg PUBLIC "-//W3C//DTD SVG 1.1//EN" "http://www.w3.org/Graphics/SVG/1.1/DTD/svg11.dtd">
<svg version="1.1" id="Layer_1" xmlns="http://www.w3.org/2000/svg" xmlns:xlink="http://www.w3.org/1999/xlink" x="0px" y="0px"
	 width="32px" height="32px" viewBox="0 0 32 32" enable-background="new 0 0 32 32" xml:space="preserve">
<g>
	<path d="M5.77,10.541h20.518c0.608,0,1.104-0.498,1.104-1.108c0-0.609-0.494-1.107-1.104-1.107H5.77
		c-0.609,0-1.104,0.498-1.104,1.107S5.161,10.541,5.77,10.541z"/>
	<path d="M5.77,14.448h20.518c0.608,0,1.104-0.465,1.104-1.074c0-0.61-0.494-1.075-1.104-1.075H5.77
		c-0.609,0-1.104,0.465-1.104,1.075C4.666,13.983,5.161,14.448,5.77,14.448z"/>
	<path d="M15.562,16.468H6.491c-0.609,0-1.103,0.498-1.103,1.108c0,0.609,0.494,1.107,1.103,1.107h9.071
		c0.609,0,1.104-0.498,1.104-1.107C16.666,16.966,16.172,16.468,15.562,16.468z"/>
	<path d="M15.562,20.57H6.491c-0.609,0-1.103,0.498-1.103,1.109c0,0.607,0.494,1.105,1.103,1.105h9.071
		c0.609,0,1.104-0.498,1.104-1.105C16.666,21.068,16.172,20.57,15.562,20.57z"/>
	<circle cx="23.057" cy="19.209" r="3.232"/>
	<path d="M31.807,11.272L31.266,9.65l0.541-1.622c0.039-0.113,0.039-0.235,0-0.348l-0.551-1.654l0.439-1.892
		c0.043-0.183-0.012-0.375-0.144-0.51c-0.13-0.135-0.319-0.191-0.505-0.156L28.49,3.987l-2.385-0.57
		c-0.084-0.021-0.172-0.021-0.256,0l-2.371,0.568l-2.369-0.568c-0.086-0.021-0.172-0.021-0.258,0l-2.369,0.568l-2.366-0.568
		c-0.084-0.021-0.174-0.021-0.258,0l-2.364,0.568l-2.367-0.568c-0.085-0.021-0.174-0.021-0.257,0L8.501,3.986L6.135,3.418
		c-0.084-0.021-0.173-0.021-0.258,0L3.5,3.987L0.95,3.47C0.768,3.434,0.576,3.492,0.445,3.626C0.313,3.761,0.26,3.953,0.302,4.135
		l0.44,1.9l-0.55,1.661c-0.038,0.113-0.038,0.234,0,0.348l0.541,1.631l-0.541,1.627c-0.038,0.113-0.038,0.235,0,0.348l0.541,1.63
		l-0.541,1.627c-0.038,0.113-0.038,0.235,0,0.349l0.541,1.624l-0.541,1.628c-0.038,0.113-0.038,0.235,0,0.35l0.541,1.621
		l-0.541,1.623c-0.038,0.112-0.038,0.234,0,0.349l0.55,1.651l-0.439,1.894c-0.043,0.183,0.011,0.375,0.142,0.51
		c0.131,0.136,0.322,0.197,0.505,0.162l2.46-0.493h0.182l2.301,0.545c0.084,0.021,0.171,0.023,0.258,0.004l2.295-0.55h0.149
		l2.295,0.545c0.043,0.011,0.086,0.015,0.129,0.015s0.087-0.002,0.13-0.014l2.295-0.546h0.148l2.292,0.545
		c0.084,0.021,0.174,0.023,0.259,0.003l2.289-0.549h0.148l2.292,0.545c0.086,0.021,0.174,0.023,0.258,0.002l2.294-0.548h0.148
		l2.293,0.545c0.083,0.021,0.173,0.023,0.257,0.002l2.294-0.548h0.182l2.45,0.492c0.04,0.008,0.08,0.006,0.122,0.008
		c0.305-0.01,0.562-0.244,0.562-0.553c0-0.098-0.025-0.191-0.069-0.271l-0.407-1.742l0.551-1.676c0.037-0.113,0.037-0.234,0-0.347
		l-0.541-1.631l0.541-1.627c0.039-0.113,0.039-0.235,0-0.349l-0.541-1.629l0.541-1.63c0.039-0.113,0.039-0.235,0-0.348l-0.541-1.625
		l0.541-1.628C31.846,11.507,31.846,11.385,31.807,11.272z M28.703,6.633v17.326H3.365V6.633H28.703z"/>
</g>
</svg>
