<?xml version="1.0" encoding="utf-8"?>
<!-- Generator: Adobe Illustrator 16.0.4, SVG Export Plug-In . SVG Version: 6.00 Build 0)  -->
<!DOCTYPE svg PUBLIC "-//W3C//DTD SVG 1.1//EN" "http://www.w3.org/Graphics/SVG/1.1/DTD/svg11.dtd">
<svg version="1.1" id="Layer_1" xmlns="http://www.w3.org/2000/svg" xmlns:xlink="http://www.w3.org/1999/xlink" x="0px" y="0px"
	 width="32px" height="32px" viewBox="0 0 32 32" enable-background="new 0 0 32 32" xml:space="preserve">
<g>
	<path d="M7.612,4.691c0-1.127,0.878-2.048,2.005-2.048h14.287c1.127,0,2.068,0.919,2.068,2.048v9.9l2.62-1.899V2.731
		c0-1.481-1.177-2.71-2.657-2.71H7.479c-1.423,0-2.565,1.18-2.565,2.602v10.17l2.699,1.951L7.612,4.691L7.612,4.691z"/>
	<path d="M22.803,6.091H10.957c-0.729,0-1.317,0.584-1.317,1.312c0,0.726,0.588,1.311,1.317,1.311h11.846
		c0.729,0,1.315-0.585,1.315-1.311C24.118,6.675,23.529,6.091,22.803,6.091z"/>
	<path d="M22.803,10.437H10.957c-0.729,0-1.317,0.584-1.317,1.312c0,0.725,0.588,1.312,1.317,1.312h11.846
		c0.729,0,1.315-0.588,1.315-1.312C24.118,11.021,23.529,10.437,22.803,10.437z"/>
	<path d="M24.098,15.908c-0.104-0.617-0.645-1.048-1.295-1.048H10.957c-0.729,0-1.317,0.559-1.317,1.286
		c0,0.042,0.002,0.063,0.006,0.105l1.612,1.157h10.694L24.098,15.908z"/>
	<path d="M16.032,20.792c0.339,0.229,0.782,0.228,1.12-0.003l2.52-1.734h-6.196L16.032,20.792z"/>
	<path d="M3.388,13.133c-0.21-0.153-0.489-0.175-0.72-0.058c-0.231,0.118-0.377,0.356-0.377,0.616v15.831
		c0,0.328,0.183,0.629,0.472,0.78c0.291,0.15,0.642,0.128,0.91-0.062l11.006-7.739c0.183-0.129,0.292-0.337,0.293-0.56
		c0.002-0.224-0.104-0.436-0.283-0.562L3.388,13.133z"/>
	<path d="M4.639,31.021c-0.182,0.125-0.26,0.355-0.193,0.567c0.066,0.21,0.262,0.354,0.484,0.354h22.966
		c0.303,0,0.566-0.195,0.66-0.484c0.088-0.288-0.021-0.602-0.269-0.771l-11.121-7.703c-0.312-0.215-0.724-0.215-1.034,0.002
		L4.639,31.021z"/>
	<path d="M18.475,21.331c-0.183,0.132-0.291,0.341-0.291,0.565c0.002,0.226,0.112,0.438,0.299,0.563l11.576,8.005
		c0.211,0.146,0.486,0.165,0.713,0.044c0.229-0.116,0.369-0.354,0.369-0.608V13.669c0-0.258-0.144-0.495-0.373-0.614
		c-0.229-0.119-0.506-0.099-0.716,0.051L18.475,21.331z"/>
</g>
</svg>
