<?xml version="1.0" encoding="utf-8"?>
<!-- Generator: Adobe Illustrator 16.0.4, SVG Export Plug-In . SVG Version: 6.00 Build 0)  -->
<!DOCTYPE svg PUBLIC "-//W3C//DTD SVG 1.1//EN" "http://www.w3.org/Graphics/SVG/1.1/DTD/svg11.dtd">
<svg version="1.1" id="Layer_1" xmlns="http://www.w3.org/2000/svg" xmlns:xlink="http://www.w3.org/1999/xlink" x="0px" y="0px"
	 width="32px" height="32px" viewBox="0 0 32 32" enable-background="new 0 0 32 32" xml:space="preserve">
<g>
	<path d="M30.697,16.052h-1.008c-0.186-0.084-0.395-0.169-0.615-0.169h-9.731c-0.364,0-0.711,0.15-0.96,0.416
		c-1.771-0.733-3.503-0.494-4.839,0.039c-0.01-0.011-0.017-0.021-0.026-0.032c-0.249-0.27-0.601-0.423-0.968-0.423H2.818
		c-0.223,0-0.432,0.085-0.615,0.169H1.195c-0.643,0-1.163,0.498-1.163,1.142s0.521,1.142,1.163,1.142h0.278v6.437
		c0,0.727,0.617,1.34,1.345,1.34h9.124c0.686,0,1.256-0.539,1.311-1.223l0.455-5.679c0.717-0.468,2.553-1.382,4.474-0.021
		l0.457,5.699c0.055,0.685,0.625,1.221,1.312,1.221h9.124c0.728,0,1.303-0.612,1.303-1.34v-6.436h0.318
		c0.644,0,1.162-0.498,1.162-1.141C31.859,16.55,31.34,16.052,30.697,16.052z M10.829,22.204c-0.058,0.726-0.664,1.285-1.392,1.285
		H5.489c-0.771,0-1.396-0.625-1.396-1.396v-2.194c0-0.771,0.625-1.396,1.396-1.396h4.123c0.39,0,0.762,0.163,1.025,0.449
		c0.265,0.287,0.398,0.67,0.366,1.058L10.829,22.204z M27.757,22.093c0,0.771-0.625,1.396-1.396,1.396h-3.906
		c-0.729,0-1.334-0.56-1.393-1.285l-0.174-2.194c-0.031-0.389,0.102-0.771,0.364-1.058c0.265-0.287,0.638-0.449,1.024-0.449h4.08
		c0.771,0,1.396,0.625,1.396,1.396L27.757,22.093L27.757,22.093z"/>
	<path d="M8.814,8.818c0.013-0.023,1.284-2.297,2.773-1.59c0.695,0.329,0.705,1.204,0.484,2.701l-0.058,0.4
		c-0.081,0.636,0.369,1.22,1.007,1.302c0.639,0.083,1.22-0.369,1.301-1.006l0.051-0.353c0.193-1.303,0.595-4.014-1.788-5.144
		C9.819,3.819,7.576,6.235,6.826,7.613l-5.01,7.509h2.795L8.814,8.818z"/>
	<path d="M17.238,10.625c0.082,0.637,0.66,1.091,1.302,1.005c0.637-0.082,1.088-0.665,1.005-1.302L19.488,9.93
		c-0.223-1.497-0.209-2.371,0.484-2.7c1.476-0.703,2.725,1.498,2.824,1.672l4.148,6.219h2.797l-4.956-7.424
		c-0.804-1.462-3.058-3.881-5.812-2.573c-2.384,1.13-1.981,3.842-1.789,5.146L17.238,10.625z"/>
</g>
</svg>
