<?xml version="1.0" encoding="utf-8"?>
<!-- Generator: Adobe Illustrator 16.0.4, SVG Export Plug-In . SVG Version: 6.00 Build 0)  -->
<!DOCTYPE svg PUBLIC "-//W3C//DTD SVG 1.1//EN" "http://www.w3.org/Graphics/SVG/1.1/DTD/svg11.dtd">
<svg version="1.1" id="Layer_1" xmlns="http://www.w3.org/2000/svg" xmlns:xlink="http://www.w3.org/1999/xlink" x="0px" y="0px"
	 width="32px" height="32px" viewBox="0 0 32 32" enable-background="new 0 0 32 32" xml:space="preserve">
<g>
	<path d="M7.2,23.445H5.864c-0.553,0-0.984,0.459-0.984,1.014v0.708H4.435c-0.555,0-0.932-0.41-0.932-0.964v-1.064
		c0-0.556,0.377-1.07,0.932-1.07h2.118c-0.513-1.202-0.798-2.603-0.798-4.045c0-5.978,4.805-10.805,10.779-10.805
		c1.767,0,3.489,0.442,4.866,1.193V3.208c0-1.624-1.24-2.992-2.866-2.992H4.302c-1.625,0-2.864,1.368-2.864,2.992v21.128
		c0,1.626,1.239,2.896,2.864,2.896H4.88v1.604c0,0.182,0.087,0.348,0.244,0.438c0.156,0.091,0.343,0.088,0.5-0.002l2.367-1.379
		l2.368,1.379c0.156,0.09,0.328,0.093,0.484,0.002c0.156-0.09,0.232-0.256,0.232-0.438v-1.441C9.526,26.441,8.142,25.167,7.2,23.445
		z"/>
	<path d="M15.8,21.395c-2.418-0.439-3.024-2.772-3.05-2.881c-0.119-0.498-0.616-0.803-1.118-0.689
		c-0.5,0.117-0.812,0.617-0.694,1.117c0.034,0.148,0.888,3.625,4.53,4.285c0.057,0.013,0.112,0.017,0.167,0.017
		c0.442,0,0.835-0.315,0.917-0.767C16.643,21.971,16.305,21.486,15.8,21.395z"/>
	<path d="M30.123,27.507l-3.555-3.554c-0.191-0.193-0.435-0.322-0.694-0.379c-0.095-0.02-0.192-0.032-0.292-0.032
		c-0.371,0-0.727,0.146-0.988,0.411l-0.967-0.969c2.579-3.528,2.275-8.522-0.91-11.708C21.012,9.569,18.742,8.63,16.33,8.63
		s-4.68,0.939-6.387,2.646c-1.706,1.706-2.645,3.975-2.645,6.387c-0.001,2.411,0.939,4.68,2.645,6.386
		c1.707,1.707,3.974,2.646,6.387,2.646c1.939,0,3.787-0.607,5.322-1.733l0.967,0.966v0.002c-0.36,0.358-0.482,0.869-0.365,1.328
		c0.061,0.236,0.182,0.461,0.365,0.646l3.555,3.555c0.279,0.28,0.658,0.438,1.053,0.438c0.396,0,0.775-0.155,1.056-0.438
		l1.844-1.845C30.706,29.031,30.706,28.088,30.123,27.507z M20.741,22.076c-1.179,1.176-2.746,1.826-4.412,1.826
		s-3.233-0.65-4.41-1.826c-1.178-1.182-1.827-2.746-1.827-4.411c0-1.668,0.649-3.232,1.827-4.413
		c1.177-1.176,2.745-1.826,4.41-1.826c1.666,0,3.233,0.65,4.412,1.826C23.172,15.686,23.172,19.645,20.741,22.076z"/>
	<circle cx="12.038" cy="15.938" r="0.912"/>
</g>
</svg>
