<?xml version="1.0" encoding="utf-8"?>
<!-- Generator: Adobe Illustrator 16.0.4, SVG Export Plug-In . SVG Version: 6.00 Build 0)  -->
<!DOCTYPE svg PUBLIC "-//W3C//DTD SVG 1.1//EN" "http://www.w3.org/Graphics/SVG/1.1/DTD/svg11.dtd">
<svg version="1.1" id="Layer_1" xmlns="http://www.w3.org/2000/svg" xmlns:xlink="http://www.w3.org/1999/xlink" x="0px" y="0px"
	 width="32px" height="32px" viewBox="0 0 32 32" enable-background="new 0 0 32 32" xml:space="preserve">
<g>
	<path d="M11.157,28.633c2.242,1.95,4.542,3.104,5.948,3.104c1.806,0,4.354-1.305,6.678-3.484c-2.445,0.684-4.835,0.918-6.971,0.918
		C14.569,29.169,12.608,28.908,11.157,28.633z"/>
	<path d="M23.043,3.168c-2.223-1.924-4.505-3.062-5.938-3.062c-1.338,0-3.484,1.045-5.622,2.826
		C14.195,2.446,18.486,2.062,23.043,3.168z"/>
	<path d="M25.625,26.266c2.241-2.771,3.932-6.389,3.932-10.344c0-4.184-2.037-7.988-4.553-10.816
		c-6.586-2.375-13.269-0.985-15.36-0.441c-2.707,2.868-4.987,6.852-4.987,11.257c0,4.26,2.132,8.125,4.72,10.969
		C11.202,27.391,18.557,29.089,25.625,26.266z M13.974,15.275c0.357,0,0.646,0.285,0.646,0.643c0,0.357-0.289,0.643-0.646,0.643
		h-1.591c0.06,1.179,0.347,2.463,0.978,3.854h1.865c0.357,0,0.646,0.285,0.646,0.644c0,0.355-0.29,0.642-0.646,0.642h-1.149
		c0.28,0.428,0.6,0.864,0.963,1.304c0.455,0.549,0.378,1.357-0.172,1.812c-0.241,0.199-0.533,0.293-0.823,0.293
		c-0.372,0-0.741-0.148-0.997-0.457c-0.82-0.991-1.454-1.989-1.936-2.953H9.395c-0.357,0-0.646-0.285-0.646-0.643
		c0-0.356,0.289-0.643,0.646-0.643h1.163c-0.485-1.393-0.708-2.678-0.748-3.854H8.144c-0.357,0-0.646-0.286-0.646-0.643
		c0-0.358,0.289-0.643,0.646-0.643h1.69c0.098-1.499,0.426-2.783,0.837-3.961H9.395c-0.357,0-0.646-0.285-0.646-0.643
		c0-0.357,0.289-0.642,0.646-0.642h1.8c0.868-1.927,1.825-3.11,1.852-3.143c0.456-0.55,1.269-0.632,1.819-0.177
		c0.55,0.454,0.628,1.275,0.174,1.825c-0.063,0.077-0.492,0.639-0.987,1.495h1.171c0.357,0,0.646,0.285,0.646,0.642
		c0,0.358-0.29,0.643-0.646,0.643h-1.819c-0.474,1.07-0.893,2.462-1.005,3.961H13.974L13.974,15.275z"/>
</g>
</svg>
