<?xml version="1.0" encoding="utf-8"?>
<!-- Generator: Adobe Illustrator 16.0.4, SVG Export Plug-In . SVG Version: 6.00 Build 0)  -->
<!DOCTYPE svg PUBLIC "-//W3C//DTD SVG 1.1//EN" "http://www.w3.org/Graphics/SVG/1.1/DTD/svg11.dtd">
<svg version="1.1" id="Layer_1" xmlns="http://www.w3.org/2000/svg" xmlns:xlink="http://www.w3.org/1999/xlink" x="0px" y="0px"
	 width="32px" height="32px" viewBox="0 0 32 32" enable-background="new 0 0 32 32" xml:space="preserve">
<path d="M31.729,11.408c-0.567-1.893-2.562-2.969-4.457-2.399c-1.894,0.57-2.967,2.566-2.396,4.459
	c0.021,0.078,0.049,0.154,0.078,0.229l-2.129,1.858c-0.527-0.046-1.1-0.055-1.689-0.035l-0.717-5.983
	c1.787-0.634,2.777-2.565,2.229-4.399c-0.57-1.894-2.564-2.97-4.459-2.4c-1.894,0.57-2.965,2.565-2.396,4.459
	c0.291,0.973,0.961,1.728,1.799,2.155l-0.299,6.674c-0.298,0.068-0.59,0.14-0.873,0.218L11.769,7.86
	c0.693-0.886,0.96-2.081,0.613-3.239c-0.57-1.893-2.564-2.968-4.457-2.4C6.031,2.793,4.958,4.79,5.527,6.682
	C6.025,8.34,7.621,9.371,9.283,9.215l3.322,8.176c-0.517,0.18-1.008,0.375-1.454,0.594L7.06,15.662
	c0.258-0.702,0.298-1.49,0.067-2.26c-0.569-1.892-2.564-2.968-4.458-2.397c-1.893,0.569-2.966,2.564-2.398,4.457
	c0.569,1.892,2.564,2.968,4.458,2.397c0.314-0.094,0.606-0.229,0.871-0.396l3.286,3.229c-0.082,1.048,0.394,2.396,1.689,4.185
	c2.305,3.185,5.818,7.044,12.252,5.04c5.474-1.705,0.621-7.639,2.719-11.316c0.113-0.197,0.197-0.385,0.259-0.56l1.573-2.144
	c0.621,0.165,1.294,0.168,1.954-0.032C31.225,15.296,32.297,13.301,31.729,11.408z"/>
</svg>
