<?xml version="1.0" encoding="utf-8"?>
<!-- Generator: Adobe Illustrator 16.0.4, SVG Export Plug-In . SVG Version: 6.00 Build 0)  -->
<!DOCTYPE svg PUBLIC "-//W3C//DTD SVG 1.1//EN" "http://www.w3.org/Graphics/SVG/1.1/DTD/svg11.dtd">
<svg version="1.1" id="Layer_1" xmlns="http://www.w3.org/2000/svg" xmlns:xlink="http://www.w3.org/1999/xlink" x="0px" y="0px"
	 width="32px" height="32px" viewBox="0 0 32 32" enable-background="new 0 0 32 32" xml:space="preserve">
<g>
	<path d="M13.638,14.624c0.001,0.005,0.002,0.011,0.004,0.015h0.004C13.643,14.639,13.64,14.633,13.638,14.624z"/>
	<path d="M13.638,14.624c-0.004-0.021-0.008-0.045-0.015-0.063C13.63,14.581,13.634,14.607,13.638,14.624z"/>
	<polygon points="25.919,14.639 25.921,14.639 25.921,14.638 	"/>
	<path d="M25.921,14.638C25.925,14.635,25.925,14.625,25.921,14.638L25.921,14.638z"/>
	<path d="M29.374,5.249c-2.679-3.214-10.233-5.485-16.611-3.666C6.049,3.497,2.674,7.707,2.231,15.149
		c-0.033,0.554-0.176,1.101-0.42,1.599l-1.704,3.479c-0.134,0.273-0.143,0.594-0.025,0.875c0.119,0.281,0.353,0.498,0.643,0.594
		l0.556,0.187c0.482,0.16,0.801,0.614,0.789,1.122c-0.15,6.657,0.194,8.354,7.237,8.354c7.507,0,6.544-5.521,15.615-6.598
		C31.628,23.962,33.971,10.766,29.374,5.249z M27.543,13.894c0,0.424-0.339,0.745-0.764,0.745h-0.858
		c-0.001,0.003-0.002,0.005-0.002,0.008c-0.153,0.606-0.392,1.183-0.704,1.707l0.6,0.605c0.302,0.299,0.302,0.787,0,1.087
		l-1.104,1.106c-0.3,0.3-0.785,0.3-1.086,0l-0.602-0.603c-0.512,0.308-1.071,0.542-1.666,0.694c-0.002,0-0.004,0.436-0.01,0.854
		c-0.002,0.422-0.345,0.76-0.767,0.76h-1.563c-0.205,0-0.398-0.08-0.545-0.226c-0.145-0.146-0.226-0.342-0.223-0.546l0.009-0.828
		c-0.614-0.152-1.19-0.393-1.72-0.708l-0.599,0.603c-0.145,0.145-0.34,0.226-0.544,0.226s-0.399-0.081-0.543-0.226l-1.109-1.105
		c-0.143-0.145-0.223-0.339-0.223-0.543s0.08-0.398,0.223-0.543l0.602-0.601c-0.312-0.523-0.551-1.094-0.702-1.701
		c-0.002-0.006-0.003-0.012-0.004-0.019h-0.83c-0.423,0-0.76-0.322-0.76-0.745v-1.566c0-0.424,0.341-0.768,0.764-0.768h0.838
		c0,0-0.001,0,0.001-0.002c0.15-0.598,0.387-1.163,0.695-1.679l-0.604-0.603c-0.298-0.3-0.298-0.785,0-1.086l1.108-1.107
		c0.145-0.144,0.34-0.224,0.544-0.224s0.399,0.081,0.544,0.224l0.6,0.601c0.53-0.317,1.106-0.581,1.722-0.711l-0.011-0.839
		c-0.001-0.206,0.079-0.4,0.226-0.546c0.145-0.145,0.338-0.225,0.545-0.225h1.562c0.422,0,0.766,0.339,0.768,0.761
		c0.004,0.425,0.006,0.867,0.01,0.868c0.594,0.151,1.152,0.388,1.664,0.695l0.603-0.603c0.146-0.144,0.34-0.225,0.544-0.225
		s0.398,0.081,0.543,0.224l1.108,1.107c0.297,0.3,0.298,0.785,0,1.085l-0.604,0.603c0.309,0.516,0.547,1.091,0.697,1.689
		c0.001,0.002,0.001,0.014,0.002,0.014h0.865c0.424,0,0.763,0.323,0.763,0.747v1.565H27.543z"/>
	<circle cx="19.781" cy="13.118" r="2.159"/>
</g>
</svg>
