<?xml version="1.0" encoding="utf-8"?>
<!-- Generator: Adobe Illustrator 16.0.4, SVG Export Plug-In . SVG Version: 6.00 Build 0)  -->
<!DOCTYPE svg PUBLIC "-//W3C//DTD SVG 1.1//EN" "http://www.w3.org/Graphics/SVG/1.1/DTD/svg11.dtd">
<svg version="1.1" id="Layer_1" xmlns="http://www.w3.org/2000/svg" xmlns:xlink="http://www.w3.org/1999/xlink" x="0px" y="0px"
	 width="32px" height="32px" viewBox="0 0 32 32" enable-background="new 0 0 32 32" xml:space="preserve">
<path d="M30.331,19.107c0.86,0,1.56-0.697,1.56-1.561V14.37c0-0.861-0.697-1.56-1.56-1.56h-1.755
	c-0.001-0.001-0.001-0.002-0.004-0.006c-0.307-1.215-0.79-2.361-1.418-3.41l1.223-1.225c0.607-0.609,0.607-1.596,0-2.205
	L26.13,3.718c-0.293-0.293-0.69-0.457-1.104-0.457c-0.412,0-0.811,0.165-1.103,0.458l-1.222,1.223
	c-1.039-0.623-2.176-1.104-3.381-1.412c-0.004-0.001-0.012-0.903-0.019-1.765c-0.005-0.857-0.7-1.549-1.559-1.549h-3.175
	c-0.416,0-0.814,0.166-1.107,0.461c-0.293,0.295-0.456,0.696-0.452,1.111l0.015,1.706c-1.244,0.264-2.417,0.8-3.491,1.442
	L8.316,3.718C8.024,3.425,7.627,3.261,7.214,3.261c-0.414,0-0.811,0.165-1.103,0.457L3.862,5.966c-0.608,0.609-0.609,1.596,0,2.205
	l1.223,1.223c-0.626,1.05-1.108,2.195-1.416,3.41c-0.001,0.004-0.001,0.005-0.003,0.006H1.964c-0.861,0-1.56,0.698-1.56,1.56v3.179
	c0,0.861,0.698,1.561,1.56,1.561h1.694c-0.015-0.062-0.027-0.119-0.042-0.183c0.015,0.058,0.027,0.118,0.042,0.175
	c0.308,1.232,0.793,2.394,1.429,3.455l-1.222,1.221c-0.293,0.291-0.457,0.688-0.457,1.104s0.164,0.811,0.457,1.104l2.247,2.248
	c0.292,0.291,0.688,0.457,1.102,0.457c0.413,0,0.811-0.166,1.103-0.457l1.221-1.223c1.071,0.641,2.245,1.131,3.488,1.438
	l-0.015,1.687c-0.004,0.416,0.159,0.816,0.452,1.111s0.691,0.461,1.107,0.461h3.175c0.856,0,1.554-0.692,1.56-1.55
	c0.006-0.85,0.012-1.732,0.019-1.733c1.204-0.31,2.339-0.789,3.379-1.411l1.222,1.221c0.609,0.609,1.598,0.609,2.205,0l2.247-2.243
	c0.606-0.609,0.608-1.597,0-2.207l-1.224-1.224c0.637-1.062,1.121-2.223,1.432-3.455c0.016-0.058,0.016-0.054,0,0.008h1.748
	L30.331,19.107L30.331,19.107z M16.121,20.359c-2.421,0-4.384-1.965-4.384-4.385c0-2.42,1.963-4.385,4.384-4.385
	c2.422,0,4.385,1.964,4.385,4.385C20.506,18.395,18.543,20.359,16.121,20.359z"/>
</svg>
