<?xml version="1.0" encoding="utf-8"?>
<!-- Generator: Adobe Illustrator 16.0.4, SVG Export Plug-In . SVG Version: 6.00 Build 0)  -->
<!DOCTYPE svg PUBLIC "-//W3C//DTD SVG 1.1//EN" "http://www.w3.org/Graphics/SVG/1.1/DTD/svg11.dtd">
<svg version="1.1" id="Layer_1" xmlns="http://www.w3.org/2000/svg" xmlns:xlink="http://www.w3.org/1999/xlink" x="0px" y="0px"
	 width="32px" height="32px" viewBox="0 0 32 32" enable-background="new 0 0 32 32" xml:space="preserve">
<path d="M31.448,9.602c0.372-0.439,0.554-1.011,0.501-1.585c-0.055-0.574-0.338-1.102-0.785-1.466l-3.811-3.084
	c-0.92-0.744-2.269-0.602-3.013,0.317l-11.67,14.421l-5.536-4.667c-1.054-0.889-2.61-0.822-3.585,0.151l-2.927,2.926
	c-0.421,0.421-0.647,0.999-0.626,1.594c0.022,0.596,0.291,1.152,0.742,1.542l11.108,9.565c0.432,0.373,0.994,0.558,1.562,0.513
	c0.568-0.044,1.096-0.312,1.465-0.747L31.448,9.602z"/>
</svg>
