<?xml version="1.0" encoding="utf-8"?>
<!-- Generator: Adobe Illustrator 16.0.4, SVG Export Plug-In . SVG Version: 6.00 Build 0)  -->
<!DOCTYPE svg PUBLIC "-//W3C//DTD SVG 1.1//EN" "http://www.w3.org/Graphics/SVG/1.1/DTD/svg11.dtd">
<svg version="1.1" id="Layer_1" xmlns="http://www.w3.org/2000/svg" xmlns:xlink="http://www.w3.org/1999/xlink" x="0px" y="0px"
	 width="32px" height="32px" viewBox="0 0 32 32" enable-background="new 0 0 32 32" xml:space="preserve">
<path d="M28.706,10.614h-7.884C20.45,9.751,20.4,8.844,20.674,7.951c0.486-1.582,1.395-4.524-1.236-6.451
	c-0.842-0.617-1.836-0.941-2.877-0.941c-1.552,0-3.022,0.748-3.938,1.999c-1.604,2.193-1.884,4.05-1.827,6.517
	c0.025,1.07-0.177,1.49-0.24,1.545L6.12,10.626c-3.344,0-5.683,1.889-5.958,4.81c-0.149,1.574-0.111,3.041,0.128,4.897
	c0.285,2.196,0.647,4.089,0.994,5.183c0.73,2.299,2.926,4.635,5.708,4.635l21.707-0.022c0.814,0.003,1.595-0.317,2.174-0.896
	c0.578-0.578,0.896-1.359,0.896-2.176V13.539C31.77,11.841,30.406,10.614,28.706,10.614z M19.512,25.584
	c-0.386,1.018-1.353,2.109-2.174,2.109H6.99c-0.744,0-1.453-0.329-2.038-0.823c0.001,0,0.001,0,0.001,0
	c-1.265-1.318,0.135-1.767,0.827-1.916c0.203-0.044,0.35-0.222,0.363-0.427l0.005-0.09c0.006-0.104-0.028-0.203-0.098-0.277
	c-0.069-0.075-0.165-0.122-0.268-0.125c-1.824-0.062-2.749-0.321-2.641-1.445c0.264-0.547,1.196-0.898,1.771-1.066
	c0.279-0.084,0.477-0.34,0.477-0.631v-0.175c0-0.284-0.24-0.515-0.525-0.515H4.765c-1.383-0.041-1.922-0.426-2.127-0.762
	c-0.076-0.252-0.205-0.318-0.081-0.752c0.225-1.062,1.532-1.312,2.287-1.362c0.306-0.021,0.547-0.274,0.547-0.581v-0.084
	c0-0.306-0.241-0.56-0.548-0.581c-2.374-0.163-1.91-1.542-1.888-1.605h0.004c0,0,0.005,0,0.005-0.002l0,0l-0.006-0.006
	c0.785-1.296,2.542-1.426,3.16-1.426h4.207c0.021,0,0.134,0.013,0.154,0.013c0.713,0,1.338-0.248,1.811-0.732
	c0.67-0.686,0.978-1.768,0.942-3.309c-0.05-2.077,0.14-3.357,1.356-5.019c0.773-1.053,2.352-1.3,3.41-0.526
	c0.814,0.597,0.656,1.25,0.344,3.771c-0.615,5.001,1.784,7.392,2.262,12.225C20.837,21.82,20.038,24.177,19.512,25.584z
	 M29.156,15.142h-5.237c-0.726,0-1.31-0.593-1.31-1.317c0-0.725,0.586-1.316,1.31-1.316h5.237c0.725,0,1.31,0.592,1.31,1.316
	C30.467,14.549,29.881,15.142,29.156,15.142z"/>
</svg>
