<?xml version="1.0" encoding="utf-8"?>
<!-- Generator: Adobe Illustrator 16.0.4, SVG Export Plug-In . SVG Version: 6.00 Build 0)  -->
<!DOCTYPE svg PUBLIC "-//W3C//DTD SVG 1.1//EN" "http://www.w3.org/Graphics/SVG/1.1/DTD/svg11.dtd">
<svg version="1.1" id="Layer_1" xmlns="http://www.w3.org/2000/svg" xmlns:xlink="http://www.w3.org/1999/xlink" x="0px" y="0px"
	 width="32px" height="32px" viewBox="0 0 32 32" enable-background="new 0 0 32 32" xml:space="preserve">
<g>
	<path d="M16.957,5.236h-1.141C10.964,5.543,7.095,9.6,7.095,14.558c0,3.408,1.504,6.131,4.102,7.741v2.682
		c0,0.783,0.291,1.086,0.745,1.388c0.113,0.073,0.185,0.198,0.193,0.335c0.008,0.136,0.021,0.312-0.151,0.354
		c-0.703,0-0.701,0.771-0.701,0.771c0,0.312,0,1.729,0,1.729c0,0.387,0.313,0.7,0.701,0.7h0.469c0.375,0,0.648,0.31,0.648,0.31
		s1.649,1.348,3.286,1.348c1.66,0,3.285-1.348,3.285-1.348s0.273-0.31,0.648-0.31h0.469c0.389,0,0.701-0.313,0.701-0.7
		c0,0,0-1.416,0-1.729c0,0,0.002-0.771-0.701-0.771c-0.172-0.041-0.158-0.22-0.15-0.354c0.01-0.137,0.08-0.262,0.193-0.335
		c0.453-0.302,0.744-0.604,0.744-1.388v-2.682c2.598-1.609,4.102-4.333,4.102-7.741C25.678,9.6,21.811,5.542,16.957,5.236z
		 M19.627,20.27l-0.523,0.271v2.489c0,0.426-0.295,0.789-0.709,0.879l-1.102,0.232c-0.186,0.041-1.074,0.188-1.812,0l-1.102-0.232
		c-0.414-0.09-0.709-0.453-0.709-0.879V20.54l-0.523-0.271c-2.626-1.35-3.177-3.761-3.177-5.542c0-3.571,2.875-6.476,6.417-6.488
		c3.541,0.012,6.416,2.917,6.416,6.488C22.803,16.509,22.252,18.92,19.627,20.27z"/>
	<path d="M28.158,6.298c0.035-0.229-0.029-0.462-0.176-0.645c-0.086-0.108-0.174-0.214-0.262-0.321
		c-0.15-0.177-0.365-0.285-0.599-0.298c-0.229-0.013-0.458,0.071-0.626,0.23l-1.505,1.431C24.674,7,24.645,7.499,24.923,7.838
		c0.019,0.02,0.033,0.04,0.052,0.061c0.276,0.342,0.771,0.412,1.133,0.158l1.699-1.192C27.996,6.732,28.123,6.527,28.158,6.298z"/>
	<path d="M16.3,3.852c0.025-0.001,0.051-0.001,0.076-0.001c0.44-0.003,0.804-0.346,0.832-0.786l0.133-2.072
		c0.015-0.231-0.065-0.458-0.226-0.627c-0.156-0.17-0.379-0.266-0.609-0.267c-0.14,0-0.278,0.001-0.417,0.004
		c-0.231,0.006-0.451,0.107-0.605,0.28c-0.154,0.173-0.231,0.403-0.211,0.633l0.179,2.069C15.49,3.523,15.86,3.858,16.3,3.852z"/>
	<path d="M5.813,17.318c-0.101-0.43-0.516-0.703-0.951-0.635L2.811,17.02c-0.229,0.037-0.432,0.166-0.562,0.358
		c-0.129,0.19-0.175,0.429-0.125,0.654c0.03,0.135,0.063,0.271,0.098,0.403c0.057,0.226,0.204,0.416,0.407,0.525
		c0.203,0.111,0.443,0.139,0.664,0.062l1.978-0.635c0.418-0.136,0.664-0.57,0.56-0.998C5.825,17.37,5.819,17.343,5.813,17.318z"/>
	<path d="M7.805,8.107c0.017-0.021,0.032-0.042,0.049-0.062C8.126,7.697,8.083,7.2,7.757,6.904L6.22,5.509
		c-0.172-0.156-0.4-0.234-0.631-0.216C5.359,5.312,5.145,5.424,5,5.604C4.912,5.713,4.827,5.822,4.743,5.933
		c-0.14,0.186-0.197,0.419-0.158,0.648C4.624,6.809,4.755,7.01,4.947,7.14l1.729,1.151C7.042,8.535,7.536,8.454,7.805,8.107z"/>
	<path d="M30.74,17.086c-0.135-0.188-0.34-0.314-0.569-0.347l-2.054-0.291c-0.436-0.061-0.846,0.225-0.938,0.655
		c-0.01,0.022-0.015,0.054-0.021,0.078c-0.101,0.43,0.155,0.855,0.579,0.982l1.988,0.591c0.226,0.065,0.463,0.037,0.662-0.075
		c0.199-0.117,0.344-0.312,0.396-0.537c0.031-0.139,0.061-0.271,0.088-0.404C30.923,17.51,30.873,17.275,30.74,17.086z"/>
</g>
</svg>
