<?xml version="1.0" encoding="utf-8"?>
<!-- Generator: Adobe Illustrator 16.0.4, SVG Export Plug-In . SVG Version: 6.00 Build 0)  -->
<!DOCTYPE svg PUBLIC "-//W3C//DTD SVG 1.1//EN" "http://www.w3.org/Graphics/SVG/1.1/DTD/svg11.dtd">
<svg version="1.1" id="Layer_1" xmlns="http://www.w3.org/2000/svg" xmlns:xlink="http://www.w3.org/1999/xlink" x="0px" y="0px"
	 width="32px" height="32px" viewBox="0 0 32 32" enable-background="new 0 0 32 32" xml:space="preserve">
<g>
	<path d="M4.675,8.082v12.747c0,0.021,0,0.042,0.001,0.062c0.045,0.789,0.731,2.277,3.007,2.277c2.107,0,2.908-1.423,3.023-2.177
		c0.006-0.054,0.038-0.108,0.038-0.163V8.082c0.41-0.128,0.738-0.541,0.738-1.031V5.89c0-0.593-0.497-1.091-1.089-1.091H4.971
		c-0.591,0-1.034,0.498-1.034,1.091v1.161C3.937,7.541,4.265,7.954,4.675,8.082z M5.003,6.27c0-0.201,0.144-0.323,0.346-0.323h4.667
		c0.203,0,0.4,0.122,0.4,0.323v0.409c0,0.201-0.198,0.334-0.4,0.334H9.999c-0.202,0-0.403,0.195-0.403,0.397v13.42
		c0,0-0.185,1.268-1.928,1.268c-1.862,0-1.927-1.268-1.927-1.268V7.409c0-0.202-0.174-0.397-0.375-0.397H5.349
		c-0.202,0-0.346-0.133-0.346-0.334V6.27z"/>
	<path d="M7.667,21.572c1.223,0,1.354-1.024,1.354-1.024v-3.366H6.315v3.366C6.315,20.548,6.362,21.572,7.667,21.572z"/>
	<path d="M13.04,8.082v12.747c0,0.021,0.012,0.042,0.013,0.062c0.045,0.789,0.738,2.277,3.013,2.277
		c2.107,0,2.899-1.423,3.014-2.177c0.008-0.054,0.029-0.108,0.029-0.163V8.082c0.41-0.128,0.738-0.541,0.738-1.031V5.89
		c0-0.593-0.474-1.091-1.065-1.091H13.36c-0.591,0-1.058,0.498-1.058,1.091v1.161C12.302,7.541,12.63,7.954,13.04,8.082z
		 M13.369,6.27c0-0.201,0.167-0.323,0.369-0.323h4.668c0.201,0,0.376,0.122,0.376,0.323v0.409c0,0.201-0.175,0.334-0.376,0.334
		h-0.018c-0.201,0-0.346,0.195-0.346,0.397v13.42c0,0-0.227,1.268-1.968,1.268c-1.863,0-1.969-1.268-1.969-1.268V7.409
		c0-0.202-0.149-0.397-0.351-0.397h-0.018c-0.202,0-0.369-0.133-0.369-0.334L13.369,6.27L13.369,6.27z"/>
	<path d="M16.074,21.572c1.223,0,1.395-1.024,1.395-1.024v-3.366h-2.788v3.366C14.681,20.548,14.769,21.572,16.074,21.572z"/>
	<path d="M21.488,8.082v12.747c0,0.021-0.004,0.042-0.002,0.062c0.045,0.789,0.729,2.277,3.005,2.277
		c2.106,0,2.868-1.423,2.985-2.177c0.006-0.054,0-0.108,0-0.163V8.082c0.49-0.128,0.818-0.541,0.818-1.031V5.89
		c0-0.593-0.505-1.091-1.098-1.091h-5.422c-0.592,0-1.025,0.498-1.025,1.091v1.161C20.75,7.541,21.078,7.954,21.488,8.082z
		 M21.816,6.27c0-0.201,0.136-0.323,0.336-0.323h4.67c0.201,0,0.324,0.122,0.324,0.323v0.409c0,0.201-0.123,0.334-0.324,0.334
		h-0.018c-0.203,0-0.396,0.195-0.396,0.397v13.42c0,0-0.186,1.268-1.928,1.268c-1.862,0-1.928-1.268-1.928-1.268V7.409
		c0-0.202-0.182-0.397-0.384-0.397H22.15c-0.201,0-0.336-0.133-0.336-0.334V6.27H21.816z"/>
	<path d="M24.48,21.572c1.223,0,1.354-1.024,1.354-1.024v-3.366h-2.707v3.366C23.128,20.548,23.175,21.572,24.48,21.572z"/>
	<polygon points="27.967,15.296 27.967,17.348 30.018,17.348 30.018,25.302 1.968,25.302 1.968,17.348 4.019,17.348 4.019,15.296 
		0,15.296 0,29.32 31.958,29.32 31.986,15.296 	"/>
</g>
</svg>
