<?xml version="1.0" encoding="utf-8"?>
<!-- Generator: Adobe Illustrator 16.0.4, SVG Export Plug-In . SVG Version: 6.00 Build 0)  -->
<!DOCTYPE svg PUBLIC "-//W3C//DTD SVG 1.1//EN" "http://www.w3.org/Graphics/SVG/1.1/DTD/svg11.dtd">
<svg version="1.1" id="Layer_1" xmlns="http://www.w3.org/2000/svg" xmlns:xlink="http://www.w3.org/1999/xlink" x="0px" y="0px"
	 width="32px" height="32px" viewBox="0 0 32 32" enable-background="new 0 0 32 32" xml:space="preserve">
<path d="M30.827,4.895c-0.845-1.003-2.237-0.533-2.632-0.418c-2.276-2.118-5.297-2.872-7.822-2.126l-1.557-1.668
	c-0.39-0.415-0.924-0.66-1.493-0.679c-0.568-0.02-1.12,0.188-1.536,0.575l-0.966,0.902c-0.415,0.388-0.66,0.924-0.679,1.492
	c-0.019,0.568,0.188,1.121,0.576,1.536l0.188,0.202L9.02,5.224C8.853,5.239,8.708,5.348,8.649,5.505
	C8.59,5.662,8.626,5.839,8.743,5.961l-6.568,6.287l-0.123-0.06c-0.413-0.201-0.9-0.175-1.29,0.068
	c-0.39,0.244-0.626,0.671-0.626,1.13v5.237c0,0.354,0.179,0.684,0.475,0.876c0.296,0.192,0.67,0.224,0.993,0.08l3.898,7.185
	c-0.23,0.226-0.444,0.459-0.641,0.719h-0.83c-1.959,0-3.547,1.588-3.547,3.547v0.968H19.15v-0.968c0-1.959-1.588-3.547-3.547-3.547
	H15.51c-0.787-1.041-1.859-1.805-3.098-2.237l-4.567-8.417l0.475-0.209c0.269-0.119,0.444-0.382,0.449-0.675
	c0.006-0.293-0.16-0.564-0.424-0.692l4.839-4.633c0.213,0.223,0.534,0.307,0.829,0.216c0.295-0.09,0.513-0.34,0.564-0.644
	l0.829-4.941l0.867,0.93c-0.917,2.466-0.374,5.532,1.581,7.947c-0.793,2.291,0.961,3.256,1.75,3.256c2.017,0,5.006-2.12,7.131-4.105
	c1.564-1.461,2.875-3.026,3.688-4.41C31.479,7.073,31.568,5.777,30.827,4.895z M9.776,24.882c-0.893,0.054-1.74,0.28-2.505,0.647
	l-3.698-6.816l2.305-1.018L9.776,24.882z M6.29,14.25l-2.058-1.001l5.992-5.736l1.481,1.552L6.29,14.25z M25.271,11.708
	c-1.565,1.463-3.068,2.496-4.188,3.051c-0.229,0.114-0.506,0.064-0.681-0.123c-0.176-0.186-0.207-0.466-0.079-0.688
	c0.584-1.003,1.64-2.404,3.325-3.978c1.555-1.451,3.045-2.479,4.183-3.037c0.229-0.113,0.506-0.062,0.681,0.125
	c0.174,0.188,0.204,0.467,0.076,0.688C28.001,8.749,26.949,10.143,25.271,11.708z"/>
</svg>
