<?xml version="1.0" encoding="utf-8"?>
<!-- Generator: Adobe Illustrator 16.0.4, SVG Export Plug-In . SVG Version: 6.00 Build 0)  -->
<!DOCTYPE svg PUBLIC "-//W3C//DTD SVG 1.1//EN" "http://www.w3.org/Graphics/SVG/1.1/DTD/svg11.dtd">
<svg version="1.1" id="Layer_1" xmlns="http://www.w3.org/2000/svg" xmlns:xlink="http://www.w3.org/1999/xlink" x="0px" y="0px"
	 width="32px" height="32px" viewBox="0 0 32 32" enable-background="new 0 0 32 32" xml:space="preserve">
<g>
	<path d="M31.811,5.352c0-0.84-0.682-1.521-1.521-1.521H1.71c-0.84,0-1.521,0.681-1.521,1.521v20.296
		c0,0.841,0.681,1.521,1.521,1.521h28.58c0.84,0,1.521-0.681,1.521-1.521V5.352L31.811,5.352z M28.748,24.107H3.251V6.842h25.497
		V24.107z"/>
	<path d="M15.717,22.703h11.777v-4.694c-1.657-0.56-3.482-0.887-5.452-0.887c-1.032,0-2.026,0.087-2.981,0.251v-2.911
		c0-0.56-0.469-1.014-1.027-1.014s-1.029,0.454-1.029,1.014v3.392c-0.4,0.121-0.761,0.254-1.132,0.402
		c-0.364-1.459-1.127-2.764-2.13-3.795v-3.258c0-0.56-0.469-1.014-1.029-1.014s-1.029,0.454-1.029,1.014v1.769
		c-0.853-0.456-1.857-0.757-2.861-0.87v-1.435c0-0.56-0.444-1.014-1.004-1.014s-1.004,0.454-1.004,1.014v1.464
		c-0.853,0.118-1.606,0.359-2.359,0.697v9.874h6.051L15.717,22.703L15.717,22.703z"/>
	<circle cx="23.643" cy="11.762" r="3.712"/>
</g>
</svg>
