<?xml version="1.0" encoding="utf-8"?>
<!-- Generator: Adobe Illustrator 16.0.4, SVG Export Plug-In . SVG Version: 6.00 Build 0)  -->
<!DOCTYPE svg PUBLIC "-//W3C//DTD SVG 1.1//EN" "http://www.w3.org/Graphics/SVG/1.1/DTD/svg11.dtd">
<svg version="1.1" id="Layer_1" xmlns="http://www.w3.org/2000/svg" xmlns:xlink="http://www.w3.org/1999/xlink" x="0px" y="0px"
	 width="32px" height="32px" viewBox="0 0 32 32" enable-background="new 0 0 32 32" xml:space="preserve">
<g>
	<path d="M26.966,18.232h-1.784v-0.744h0.731c0.614,0,1.13-0.555,1.13-1.171V2.953c0-0.615-0.516-1.094-1.13-1.094H5.865
		c-0.614,0-0.903,0.479-0.903,1.094v13.364c0,0.617,0.289,1.171,0.903,1.171h0.958v0.744h-1.95L0,27.827v1.475
		c0,0.464,0.376,0.841,0.84,0.841h30.324c0.464,0,0.84-0.377,0.84-0.841v-1.475L26.966,18.232z M24.811,13.824
		c0,0.791-0.642,1.433-1.433,1.433H8.503c-0.791,0-1.432-0.642-1.432-1.433v-8.3c0-0.791,0.641-1.432,1.432-1.432h14.875
		c0.791,0,1.433,0.641,1.433,1.432V13.824z M19.352,17.489v0.745H12.53v-0.745H19.352z M13.226,27.04
		c-0.163,0-0.315-0.083-0.403-0.22c-0.089-0.135-0.103-0.31-0.036-0.457l0.289-0.649c0.077-0.174,0.25-0.286,0.439-0.286h4.749
		c0.185,0,0.35,0.104,0.432,0.268l0.322,0.65c0.074,0.148,0.066,0.325-0.021,0.467c-0.087,0.143-0.242,0.229-0.409,0.229
		L13.226,27.04L13.226,27.04z M6.47,24.561c-0.264,0-0.51-0.135-0.653-0.354c-0.144-0.222-0.165-0.5-0.058-0.741l1.524-3.404
		c0.125-0.281,0.403-0.461,0.71-0.461h15.624c0.295,0,0.564,0.168,0.695,0.43l1.705,3.406c0.121,0.24,0.105,0.527-0.035,0.758
		c-0.142,0.229-0.393,0.369-0.662,0.369H6.47V24.561z"/>
</g>
</svg>
