<?xml version="1.0" encoding="utf-8"?>
<!-- Generator: Adobe Illustrator 16.0.4, SVG Export Plug-In . SVG Version: 6.00 Build 0)  -->
<!DOCTYPE svg PUBLIC "-//W3C//DTD SVG 1.1//EN" "http://www.w3.org/Graphics/SVG/1.1/DTD/svg11.dtd">
<svg version="1.1" id="Layer_1" xmlns="http://www.w3.org/2000/svg" xmlns:xlink="http://www.w3.org/1999/xlink" x="0px" y="0px"
	 width="32px" height="32px" viewBox="0 0 32 32" enable-background="new 0 0 32 32" xml:space="preserve">
<g>
	<path d="M27.439,26.665V25.4c0-1.239-1.004-2.243-2.244-2.243h-0.051v-7.389c-1.49-0.097-3.014-0.7-4.139-1.795
		c-1.98-1.928-1.992-3.884-1.841-4.885c0.085-0.552,0.253-1.049,0.474-1.492c0.139-0.28,0.123-0.612-0.041-0.878
		c-0.166-0.266-0.455-0.427-0.77-0.427H13.09c-0.312,0-0.603,0.161-0.767,0.427c-0.165,0.266-0.181,0.598-0.042,0.878
		c0.22,0.443,0.389,0.94,0.473,1.492c0.153,1.001,0.087,2.957-1.893,4.885C9.765,15.04,8.395,15.64,6.789,15.76v7.398H6.63
		c-1.116,0-2.021,0.904-2.021,2.021v1.486v0.048H3.931c-1.336,0-2.419,1.083-2.419,2.419v2.057h29.025v-2.491
		c0-1.095-0.889-1.983-1.982-1.983h-1.115V26.665L27.439,26.665z M19.639,16.542c0-0.883,0.723-1.598,1.605-1.598
		c0.882,0,1.607,0.715,1.607,1.598v6.615h-3.158h-0.055V16.542L19.639,16.542z M14.361,16.542c0-0.883,0.723-1.598,1.606-1.598
		s1.607,0.715,1.607,1.598v6.615h-0.012h-3.195h-0.006V16.542L14.361,16.542z M9.083,16.542c0-0.883,0.666-1.598,1.549-1.598
		c0.883,0,1.549,0.715,1.549,1.598v6.615H9.083V16.542z"/>
	<path d="M30.165,3.6c-1.522-1.632-3.999-2.471-7.358-2.471h-3.271h-3.641h-3.508H9.115c-3.359,0-5.835,0.839-7.358,2.471
		C0.57,4.871,0.013,6.582,0.148,8.535c0.165,2.399,1.796,4.494,4.154,5.33c0.676,0.241,1.358,0.36,2.013,0.36
		c1.363-0.001,2.619-0.505,3.515-1.466c1.048-1.122,1.186-2.269,1.118-3.031c-0.183-2.02-1.973-3.405-2.176-3.556
		C8.067,5.647,7.076,5.794,6.548,6.495c-0.529,0.701-0.389,1.7,0.309,2.235c0.345,0.265,0.873,0.858,0.909,1.29
		c0.006,0.068,0.02,0.247-0.273,0.56c-0.532,0.57-1.445,0.516-2.123,0.277c-0.879-0.312-1.94-1.164-2.034-2.536
		C3.263,7.259,3.518,6.406,4.093,5.788c0.882-0.945,2.619-1.447,5.022-1.447h3.271h3.508h3.641h3.271
		c2.401,0,4.139,0.502,5.021,1.447c0.573,0.618,0.83,1.469,0.757,2.531c-0.098,1.393-1.182,2.251-2.082,2.562
		c-0.666,0.23-1.555,0.275-2.057-0.281c-0.312-0.347-0.295-0.544-0.285-0.618c0.041-0.424,0.553-0.99,0.886-1.24
		c0.709-0.517,0.867-1.512,0.353-2.224c-0.517-0.715-1.515-0.875-2.23-0.36c-0.201,0.146-1.971,1.478-2.184,3.482
		c-0.082,0.771,0.039,1.936,1.089,3.1c0.885,0.982,2.146,1.5,3.521,1.5c0.637,0,1.295-0.11,1.954-0.338
		c2.4-0.829,4.06-2.933,4.226-5.362C31.909,6.587,31.352,4.871,30.165,3.6z"/>
</g>
</svg>
