<?xml version="1.0" encoding="utf-8"?>
<!-- Generator: Adobe Illustrator 16.0.4, SVG Export Plug-In . SVG Version: 6.00 Build 0)  -->
<!DOCTYPE svg PUBLIC "-//W3C//DTD SVG 1.1//EN" "http://www.w3.org/Graphics/SVG/1.1/DTD/svg11.dtd">
<svg version="1.1" id="Layer_1" xmlns="http://www.w3.org/2000/svg" xmlns:xlink="http://www.w3.org/1999/xlink" x="0px" y="0px"
	 width="32px" height="32px" viewBox="0 0 32 32" enable-background="new 0 0 32 32" xml:space="preserve">
<path d="M19.622,15.983c-0.697,0.667-1.431,1.57-2.099,2.781c-0.66-2.383-1.492-4.13-2.334-5.409C19.048,0.462,0.241,0,0.241,0
	S0.79,16.114,10.612,15.744c-0.02-1.079-0.187-2.17-0.421-3.193c-0.153-0.667-0.335-1.303-0.523-1.89
	C9.04,8.714,8.331,7.332,8.331,7.332c0.716,0.962,1.35,1.88,1.91,2.743c1.927,2.965,2.979,5.271,3.468,6.489
	C14.916,19.157,16,23.423,16,30.393c0,0.789,0.641,1.428,1.427,1.428c0.788,0,1.427-0.639,1.427-1.428
	c0-2.259-0.109-4.269-0.305-6.062c0.455-2.188,1.141-3.741,1.852-4.841c0.467-0.891,1.328-2.417,2.488-3.975
	c1.034-1.386,2.307-2.798,3.748-3.806c0,0-2.955,3.271-3.146,6.473c8.163,0.426,8.479-12.415,8.479-12.415
	S17.034,6.276,19.622,15.983z"/>
</svg>
