<?xml version="1.0" encoding="utf-8"?>
<!-- Generator: Adobe Illustrator 16.0.4, SVG Export Plug-In . SVG Version: 6.00 Build 0)  -->
<!DOCTYPE svg PUBLIC "-//W3C//DTD SVG 1.1//EN" "http://www.w3.org/Graphics/SVG/1.1/DTD/svg11.dtd">
<svg version="1.1" id="Layer_1" xmlns="http://www.w3.org/2000/svg" xmlns:xlink="http://www.w3.org/1999/xlink" x="0px" y="0px"
	 width="32px" height="32px" viewBox="0 0 32 32" enable-background="new 0 0 32 32" xml:space="preserve">
<g>
	<path d="M26.552,0H5.338C3.701,0,2.365,1.333,2.365,2.969v25.743c0,1.703,1.393,3.103,3.098,3.103h21.089
		c1.703,0,3.082-1.397,3.082-3.103V3.094C29.634,1.389,28.255,0,26.552,0z M26.547,26.381c0,1.297-1.051,2.348-2.345,2.348H7.797
		c-1.294,0-2.345-1.051-2.345-2.348V5.348c0-1.297,1.051-2.347,2.345-2.347h16.405c1.294,0,2.345,1.05,2.345,2.347V26.381z"/>
	<path d="M9.967,16.757c0.858,0,1.6-0.292,2.073-0.892h0.045l0.133,0.729h2.032c-0.075-0.385-0.094-1.064-0.094-1.759v-2.521
		c0-1.705-0.778-3.127-3.193-3.127c-1.321,0-2.315,0.354-2.821,0.637l0.417,1.452c0.474-0.297,1.26-0.547,2.001-0.547
		c1.111,0,1.323,0.547,1.323,0.934v0.102c-2.571-0.014-4.257,0.891-4.257,2.773C7.626,15.691,8.497,16.757,9.967,16.757z
		 M11.969,13.172v0.784c0,0.137-0.024,0.27-0.053,0.39c-0.15,0.458-0.612,0.828-1.176,0.828c-0.505,0-0.884-0.28-0.884-0.858
		C9.856,13.439,10.769,13.157,11.969,13.172z"/>
	<path d="M18.328,14.021h2.861l0.771,2.572h2.431l-3.098-9.99h-2.966l-3.052,9.99h2.34L18.328,14.021z M19.248,10.215
		c0.162-0.578,0.312-1.34,0.459-1.939h0.029c0.146,0.6,0.324,1.348,0.505,1.939l0.622,2.134h-2.211L19.248,10.215z"/>
	<path d="M23.283,18.521H8.301c-0.69,0-1.248,0.554-1.248,1.244c0,0.689,0.559,1.242,1.248,1.242h14.982
		c0.689,0,1.248-0.553,1.248-1.242C24.531,19.075,23.975,18.521,23.283,18.521z"/>
	<path d="M23.283,22.295H8.301c-0.69,0-1.248,0.555-1.248,1.244s0.559,1.242,1.248,1.242h14.982c0.689,0,1.248-0.553,1.248-1.242
		S23.975,22.295,23.283,22.295z"/>
</g>
</svg>
