<?xml version="1.0" encoding="utf-8"?>
<!-- Generator: Adobe Illustrator 16.0.4, SVG Export Plug-In . SVG Version: 6.00 Build 0)  -->
<!DOCTYPE svg PUBLIC "-//W3C//DTD SVG 1.1//EN" "http://www.w3.org/Graphics/SVG/1.1/DTD/svg11.dtd">
<svg version="1.1" id="Layer_1" xmlns="http://www.w3.org/2000/svg" xmlns:xlink="http://www.w3.org/1999/xlink" x="0px" y="0px"
	 width="32px" height="32px" viewBox="0 0 32 32" enable-background="new 0 0 32 32" xml:space="preserve">
<path d="M31.979,7.951c0.006-0.389-0.145-0.764-0.418-1.042c-0.271-0.277-0.645-0.433-1.035-0.433H24.13
	c-0.181,0-0.344,0.109-0.413,0.276c-0.068,0.167-0.029,0.359,0.098,0.487l1.234,1.232c0.195,0.194,0.305,0.457,0.305,0.732
	c0,0.274-0.108,0.538-0.304,0.732l-6.26,6.257c-0.536,0.537-1.405,0.537-1.94,0l-4.039-4.039c-0.239-0.239-0.562-0.373-0.9-0.373
	s-0.662,0.134-0.901,0.373L0.509,22.65c-0.497,0.498-0.497,1.305,0,1.802l1.353,1.353c0.239,0.239,0.562,0.373,0.9,0.373
	c0.338,0,0.662-0.134,0.901-0.371l7.277-7.277c0.536-0.534,1.405-0.534,1.941,0l3.967,3.969c0.258,0.257,0.606,0.4,0.971,0.4
	c0.365,0,0.715-0.145,0.973-0.4l9.416-9.416c0.193-0.194,0.457-0.303,0.73-0.303c0.275,0,0.539,0.109,0.732,0.304l1.453,1.457
	c0.127,0.127,0.316,0.166,0.484,0.099c0.166-0.067,0.274-0.228,0.279-0.407L31.979,7.951z"/>
</svg>
