<?xml version="1.0" encoding="utf-8"?>
<!-- Generator: Adobe Illustrator 16.0.4, SVG Export Plug-In . SVG Version: 6.00 Build 0)  -->
<!DOCTYPE svg PUBLIC "-//W3C//DTD SVG 1.1//EN" "http://www.w3.org/Graphics/SVG/1.1/DTD/svg11.dtd">
<svg version="1.1" id="Layer_1" xmlns="http://www.w3.org/2000/svg" xmlns:xlink="http://www.w3.org/1999/xlink" x="0px" y="0px"
	 width="32px" height="32px" viewBox="0 0 32 32" enable-background="new 0 0 32 32" xml:space="preserve">
<g>
	<path d="M31.307,9.19c-0.005-0.005-0.013-0.009-0.018-0.014C31.02,8.91,30.646,8.805,30.3,8.862l-4.002,0.052
		c-0.633,0.009-1.139,0.528-1.132,1.161c0.008,0.631,0.488,1.102,1.16,1.13l1.341-0.017l-1.962,1.961
		c-1.165-0.86-2.57-1.325-4.047-1.325c-1.826,0-3.542,0.711-4.833,2.002c-2.664,2.665-2.664,7.002,0,9.667
		c1.291,1.291,3.007,2.002,4.833,2.002s3.543-0.711,4.835-2.002c2.36-2.362,2.633-6.035,0.81-8.696l2.059-2.053v1.499
		c0,0.633,0.514,1.145,1.146,1.145c0.635,0,1.146-0.513,1.146-1.145v-4.239C31.654,9.699,31.525,9.405,31.307,9.19z M24.872,21.873
		c-1.716,1.716-4.71,1.716-6.427,0c-1.772-1.771-1.772-4.655,0-6.427c0.859-0.858,2-1.331,3.213-1.331
		c1.215,0,2.355,0.473,3.215,1.331C26.645,17.218,26.645,20.102,24.872,21.873z"/>
	<path d="M7.068,6.124c-3.77,0-6.839,3.066-6.839,6.836c0,3.34,2.415,6.128,5.576,6.72v2.067H4.013
		c-0.633,0-1.145,0.514-1.145,1.147c0,0.633,0.512,1.146,1.145,1.146h1.792v1.287c0,0.633,0.514,1.146,1.147,1.146
		c0.633,0,1.148-0.514,1.148-1.146V24.04h1.882c0.633,0,1.146-0.515,1.146-1.146c0-0.635-0.513-1.147-1.146-1.147H8.1v-2.029
		c3.291-0.5,5.803-3.34,5.803-6.758C13.903,9.19,10.838,6.124,7.068,6.124z M7.068,17.504c-2.507,0-4.545-2.039-4.545-4.545
		s2.038-4.545,4.545-4.545c2.505,0,4.544,2.039,4.544,4.545S9.574,17.504,7.068,17.504z"/>
</g>
</svg>
