<?xml version="1.0" encoding="utf-8"?>
<!-- Generator: Adobe Illustrator 16.0.4, SVG Export Plug-In . SVG Version: 6.00 Build 0)  -->
<!DOCTYPE svg PUBLIC "-//W3C//DTD SVG 1.1//EN" "http://www.w3.org/Graphics/SVG/1.1/DTD/svg11.dtd">
<svg version="1.1" id="Layer_1" xmlns="http://www.w3.org/2000/svg" xmlns:xlink="http://www.w3.org/1999/xlink" x="0px" y="0px"
	 width="32px" height="32px" viewBox="0 0 32 32" enable-background="new 0 0 32 32" xml:space="preserve">
<path d="M31.375,4.272c-0.316-0.24-0.746-0.321-1.128-0.211l-8.593,2.402l-9.865-2.414C11.59,4,11.379,4,11.18,4.049L0.986,6.543
	C0.416,6.682,0,7.192,0,7.78v17.828C0,26,0.196,26.369,0.504,26.609c0.226,0.179,0.518,0.272,0.798,0.272
	c0.103,0,0.209-0.015,0.311-0.04l9.879-2.47l9.88,2.47c0.215,0.055,0.448,0.053,0.663-0.009l8.921-2.548
	c0.546-0.156,0.938-0.656,0.938-1.225V5.287C31.895,4.888,31.693,4.513,31.375,4.272z M12.744,8.748
	c0-0.444,0.204-0.864,0.553-1.138c0.35-0.275,0.805-0.373,1.237-0.268l4.753,1.162c0.648,0.158,1.104,0.739,1.104,1.405v12.208
	c0,0.445-0.205,0.865-0.557,1.14c-0.352,0.275-0.809,0.371-1.241,0.263l-4.753-1.187c-0.644-0.161-1.096-0.74-1.096-1.403V8.748z
	 M2.549,9.914c0-0.667,0.456-1.247,1.103-1.405l4.753-1.16c0.431-0.105,0.887-0.007,1.236,0.268
	c0.349,0.274,0.553,0.693,0.553,1.138v12.185c0,0.664-0.452,1.244-1.096,1.403l-4.753,1.187c-0.432,0.107-0.89,0.012-1.241-0.264
	c-0.351-0.274-0.556-0.695-0.556-1.141L2.549,9.914L2.549,9.914z M29.346,21.009c0,0.646-0.43,1.214-1.051,1.392l-3.512,1
	c-0.436,0.125-0.906,0.037-1.268-0.234c-0.363-0.271-0.576-0.701-0.576-1.155V9.852c0-0.649,0.434-1.219,1.059-1.394l3.514-0.981
	c0.437-0.122,0.902-0.033,1.264,0.241c0.359,0.274,0.572,0.7,0.572,1.152v12.139H29.346z"/>
</svg>
