<?xml version="1.0" encoding="utf-8"?>
<!-- Generator: Adobe Illustrator 16.0.4, SVG Export Plug-In . SVG Version: 6.00 Build 0)  -->
<!DOCTYPE svg PUBLIC "-//W3C//DTD SVG 1.1//EN" "http://www.w3.org/Graphics/SVG/1.1/DTD/svg11.dtd">
<svg version="1.1" id="Layer_1" xmlns="http://www.w3.org/2000/svg" xmlns:xlink="http://www.w3.org/1999/xlink" x="0px" y="0px"
	 width="32px" height="32px" viewBox="0 0 32 32" enable-background="new 0 0 32 32" xml:space="preserve">
<g>
	<path d="M0.413,28.169c-0.18,0.19-0.257,0.455-0.204,0.712c0.052,0.256,0.227,0.471,0.467,0.574l2.63,1.136
		c0.308,0.134,0.667,0.06,0.898-0.184l0.585-0.616l-3.11-2.955L0.413,28.169z"/>
	<path d="M29.607,9.303l0.063-0.068c0.388-0.414,0.364-1.063-0.05-1.449l0.763-0.819l-7.211-6.738L22.41,1.047l-0.163-0.152
		c-0.481-0.449-1.235-0.423-1.687,0.058l-9.887,10.581c-0.202,0.216-0.31,0.504-0.299,0.799c0.01,0.295,0.137,0.575,0.353,0.776
		l-7.295,7.679c0,0-0.139,1.284,0.44,2.787l-1.899,1.999l4.058,3.854l1.943-2.045c1.508,0.483,2.763,0.342,2.763,0.342l7.351-7.74
		l0.009,0.009c0.45,0.419,1.154,0.396,1.573-0.056l5.351-5.729l1.035,0.967l-7.64,8.18l0.771,0.721
		c0.23,0.214,0.535,0.328,0.85,0.318c0.312-0.013,0.609-0.146,0.822-0.375l10.268-10.99c0.305-0.327,0.469-0.762,0.453-1.21
		c-0.016-0.447-0.207-0.87-0.535-1.176L29.607,9.303z M22.213,4.854l-6.566,6.996c-0.232,0.247-0.545,0.372-0.86,0.372
		c-0.287,0-0.577-0.106-0.805-0.32c-0.475-0.445-0.499-1.19-0.053-1.665l6.566-6.996c0.446-0.476,1.188-0.5,1.666-0.053
		C22.634,3.634,22.658,4.38,22.213,4.854z"/>
</g>
</svg>
