<?xml version="1.0" encoding="utf-8"?>
<!-- Generator: Adobe Illustrator 16.0.4, SVG Export Plug-In . SVG Version: 6.00 Build 0)  -->
<!DOCTYPE svg PUBLIC "-//W3C//DTD SVG 1.1//EN" "http://www.w3.org/Graphics/SVG/1.1/DTD/svg11.dtd">
<svg version="1.1" id="Layer_1" xmlns="http://www.w3.org/2000/svg" xmlns:xlink="http://www.w3.org/1999/xlink" x="0px" y="0px"
	 width="32px" height="32px" viewBox="0 0 32 32" enable-background="new 0 0 32 32" xml:space="preserve">
<g>
	<polygon points="7.97,8.512 8.161,9.38 9.629,8.681 9.666,8.681 9.666,14.775 11.359,14.775 11.359,7.102 9.904,7.102 7.862,8.028 
		7.864,8.034 7.862,8.034 	"/>
	<path d="M30.43,0.671H2.159c-0.601,0-1.068,0.508-1.068,1.108v18.245c0.476-0.888,1.23-1.604,2.144-2.031V2.815h26.063v15.931
		c0.957,0.859,1.56,2.104,1.56,3.488c0,0.043-0.004,0.086-0.004,0.129c0.403-0.168,0.701-0.559,0.701-1.012V1.779
		C31.555,1.179,31.029,0.671,30.43,0.671z"/>
	<path d="M9.491,20.305c0.267,0.588,0.417,1.24,0.417,1.93c0,0.07-0.002,0.144-0.005,0.216h1.113
		c-0.003-0.072-0.006-0.146-0.006-0.216c0-0.688,0.151-1.342,0.418-1.93H9.491z"/>
	<path d="M19.966,20.305c0.267,0.588,0.417,1.24,0.417,1.93c0,0.07-0.003,0.144-0.005,0.216h1.113
		c-0.003-0.072-0.005-0.146-0.005-0.216c0-0.688,0.15-1.342,0.416-1.93H19.966z"/>
	<polygon points="14.856,8.457 14.856,11.052 12.374,11.052 12.374,12.18 14.856,12.18 14.856,14.775 16.097,14.775 16.097,12.18 
		18.579,12.18 18.579,11.052 16.097,11.052 16.097,8.457 	"/>
	<path d="M19.561,12.771l-0.979,0.904v1.1h5.416v-1.467h-2.935v-0.051l0.736-0.592c1.115-0.996,2.076-2.052,2.076-3.344
		c0-1.402-0.961-2.444-2.704-2.444c-0.001,0-0.002,0-0.003,0h-0.002c-1.046,0-1.947,0.378-2.527,0.817L19.15,9
		c0.002,0,0.002,0.006,0.004,0.005V9.01c0.404-0.311,0.984-0.639,1.65-0.64c0.887,0.001,1.269,0.499,1.269,1.127
		C22.048,10.399,21.246,11.265,19.561,12.771z"/>
	<circle cx="5.222" cy="22.232" r="3.054"/>
	<circle cx="15.697" cy="22.232" r="3.054"/>
	<path d="M29.355,26.508h-1.295h-3.779h-1.295c-0.981,0-1.815,0.67-2.062,1.572c0,0.002,0,0.003,0,0.003
		c-0.169-0.61-0.597-1.116-1.165-1.376c-0.269-0.122-0.563-0.199-0.878-0.199h-1.294h-3.78h-1.294c-0.98,0-1.824,0.669-2.072,1.572
		c0,0,0,0.002,0,0.003c-0.169-0.612-0.592-1.116-1.16-1.376c-0.27-0.123-0.558-0.199-0.874-0.199H7.112H3.333H2.039
		c-1.178,0-2.076,0.967-2.076,2.143v3.389h8.788h1.593h0.195h8.688h1.61h0.177h10.43V28.65
		C31.443,27.475,30.532,26.508,29.355,26.508z"/>
	<circle cx="26.172" cy="22.232" r="3.054"/>
</g>
</svg>
