<?xml version="1.0" encoding="utf-8"?>
<!-- Generator: Adobe Illustrator 16.0.4, SVG Export Plug-In . SVG Version: 6.00 Build 0)  -->
<!DOCTYPE svg PUBLIC "-//W3C//DTD SVG 1.1//EN" "http://www.w3.org/Graphics/SVG/1.1/DTD/svg11.dtd">
<svg version="1.1" id="Layer_1" xmlns="http://www.w3.org/2000/svg" xmlns:xlink="http://www.w3.org/1999/xlink" x="0px" y="0px"
	 width="32px" height="32px" viewBox="0 0 32 32" enable-background="new 0 0 32 32" xml:space="preserve">
<g>
	<path d="M7.962,17.874c-0.291,0.521-0.159,1.174,0.311,1.54l1.393,1.085c0.496,0.387,1.206,0.327,1.63-0.138l0.818-0.896
		l1.178,0.995c0.244,0.207,0.56,0.309,0.878,0.281c0.319-0.027,0.613-0.182,0.82-0.426l2.244-2.653
		c-0.705-0.519-1.271-1.212-1.628-2.019c-0.279-0.625-0.435-1.317-0.435-2.045c0-2.779,2.261-5.04,5.04-5.04
		c0.568,0,1.114,0.095,1.624,0.269c0.714,0.245,1.356,0.645,1.888,1.16l2.83-3.348c0.43-0.508,0.366-1.269-0.142-1.698l-0.578-0.488
		L26.13,4.13c0.222-0.242,0.334-0.563,0.313-0.891c-0.021-0.327-0.174-0.632-0.424-0.843l-2.5-2.112
		c-0.25-0.212-0.576-0.312-0.901-0.278c-0.326,0.033-0.624,0.198-0.825,0.455l-0.273,0.35l-0.574-0.485
		c-0.508-0.429-1.269-0.365-1.697,0.143L7.599,14.249c-0.395,0.467-0.377,1.154,0.041,1.601l0.911,0.974L7.962,17.874z"/>
	<path d="M25.107,14.791c-0.289,1.184-0.996,2.206-1.955,2.898c1.359,1.724,2.652,4.235,2.652,7.574v3.362H8.943v-0.212l5.546-2.029
		v-1.033c0-0.666-0.54-1.205-1.205-1.205H1.762c-0.666,0-1.205,0.539-1.205,1.205v1.033l5.013,1.838v1.416
		C5.57,30.943,6.627,32,7.931,32h18.883c1.305,0,2.36-1.057,2.36-2.361v-4.375C29.176,20.441,27.074,16.979,25.107,14.791z"/>
	<path d="M20.21,9.684c-2.16,0-3.917,1.757-3.917,3.917c0,2.16,1.757,3.917,3.917,3.917s3.917-1.757,3.917-3.917
		C24.127,11.44,22.37,9.684,20.21,9.684z"/>
</g>
</svg>
