<?xml version="1.0" encoding="utf-8"?>
<!-- Generator: Adobe Illustrator 16.0.4, SVG Export Plug-In . SVG Version: 6.00 Build 0)  -->
<!DOCTYPE svg PUBLIC "-//W3C//DTD SVG 1.1//EN" "http://www.w3.org/Graphics/SVG/1.1/DTD/svg11.dtd">
<svg version="1.1" id="Layer_1" xmlns="http://www.w3.org/2000/svg" xmlns:xlink="http://www.w3.org/1999/xlink" x="0px" y="0px"
	 width="32px" height="32px" viewBox="0 0 32 32" enable-background="new 0 0 32 32" xml:space="preserve">
<path d="M29.427,4.9C26.782,1.726,19.32-0.518,13.02,1.28C6.304,3.195,2.969,7.438,2.606,14.974
	c-0.016,0.342-0.103,0.681-0.253,0.989L0.454,19.84c-0.114,0.233-0.123,0.506-0.022,0.745c0.101,0.24,0.301,0.424,0.547,0.506
	l0.817,0.271c0.41,0.138,0.681,0.522,0.671,0.953c-0.155,6.672,0.148,8.367,7.145,8.367c7.414,0,6.461-5.451,15.42-6.516
	C31.654,23.38,33.969,10.348,29.427,4.9z M26.911,9.867c0,0.32-0.259,0.58-0.58,0.58c-1.304,0-2.36,1.03-2.36,2.301
	c0,1.272,1.057,2.302,2.36,2.302c0.321,0,0.58,0.26,0.58,0.58v2.298c0,0.553-0.447,0.999-0.999,0.999h-2.29
	c-0.297,0-0.538-0.239-0.538-0.536c0-1.271-1.059-2.303-2.359-2.303c-1.303,0-2.357,1.029-2.357,2.303
	c0,0.297-0.241,0.536-0.537,0.536h-2.223c-0.625,0-1.131-0.506-1.131-1.13v-2.953c-0.249,0.132-0.612,0.206-0.96,0.206
	c-1.304,0-2.352-1.03-2.352-2.302c0-1.271,1.044-2.301,2.346-2.301c0.349,0,0.717,0.074,0.966,0.206V8.078
	c0-0.832,0.675-1.506,1.507-1.506h1.849c0.296,0,0.536,0.24,0.536,0.535c0,1.272,1.056,2.302,2.358,2.302
	c1.301,0,2.358-1.03,2.358-2.302c0-0.296,0.24-0.535,0.536-0.535h2.17c0.619,0,1.121,0.502,1.121,1.121L26.911,9.867L26.911,9.867z"
	/>
</svg>
