<?xml version="1.0" encoding="utf-8"?>
<!-- Generator: Adobe Illustrator 16.0.4, SVG Export Plug-In . SVG Version: 6.00 Build 0)  -->
<!DOCTYPE svg PUBLIC "-//W3C//DTD SVG 1.1//EN" "http://www.w3.org/Graphics/SVG/1.1/DTD/svg11.dtd">
<svg version="1.1" id="Layer_1" xmlns="http://www.w3.org/2000/svg" xmlns:xlink="http://www.w3.org/1999/xlink" x="0px" y="0px"
	 width="32px" height="32px" viewBox="0 0 32 32" enable-background="new 0 0 32 32" xml:space="preserve">
<g>
	<path d="M17.643,7.308c0.117-0.852,0.35-1.524,0.69-1.715c0.38-0.214,0.757-0.388,1.115-0.554c1.271-0.591,2.79-1.298,3.397-3.278
		c0.118-0.387,0.053-0.806-0.184-1.136C22.43,0.294,22.057,0.09,21.65,0.074l-0.178-0.008c-0.588-0.024-1.117,0.346-1.298,0.906
		C19.93,1.74,19.354,2.007,18.27,2.511c-0.42,0.195-0.855,0.4-1.303,0.65c-1.502,0.842-2.021,2.516-2.163,4.165
		C15.714,7.054,16.686,7.177,17.643,7.308z"/>
	<path d="M7.973,17.895v6.02c0,4.47,3.622,8.094,8.109,8.094c4.49,0,8.111-3.625,8.111-8.094v-5.979
		C18.438,17.898,11.286,17.875,7.973,17.895z"/>
	<path d="M16.431,8.743l0.011,6.919c2.11,0.008,4.626,0.02,7.63,0.039C23.539,11.894,20.352,8.935,16.431,8.743z"/>
	<path d="M15.325,15.658l0.006-6.894c-3.776,0.317-6.816,3.206-7.351,6.902C9.442,15.65,11.726,15.646,15.325,15.658z"/>
</g>
</svg>
