<?xml version="1.0" encoding="utf-8"?>
<!-- Generator: Adobe Illustrator 16.0.4, SVG Export Plug-In . SVG Version: 6.00 Build 0)  -->
<!DOCTYPE svg PUBLIC "-//W3C//DTD SVG 1.1//EN" "http://www.w3.org/Graphics/SVG/1.1/DTD/svg11.dtd">
<svg version="1.1" id="Layer_1" xmlns="http://www.w3.org/2000/svg" xmlns:xlink="http://www.w3.org/1999/xlink" x="0px" y="0px"
	 width="32px" height="32px" viewBox="0 0 32 32" enable-background="new 0 0 32 32" xml:space="preserve">
<g>
	<path d="M29.831,11.599c-1.54-4.075-6.646-5.248-6.646-5.248c-2.805-0.715-3.736-3.484-4.045-5.122
		c-0.137-0.715-0.76-1.234-1.486-1.236l-2.683-0.007c-0.539-0.002-1.057,0.211-1.438,0.592c-0.381,0.381-0.596,0.897-0.596,1.437
		v18.24c-0.007-0.002-0.013-0.002-0.018-0.005c-0.896-0.212-1.841-0.328-2.803-0.328c-4.603,0-8.334,2.65-8.334,5.922
		c0,3.268,3.731,5.918,8.334,5.918c4.449,0,8.571-2.478,8.842-5.593c0.011-0.108,0.03-14.996,0.03-14.996
		c1.375,0.472,2.682,0.622,3.566,0.712c1.497,0.149,3.85-0.004,4.413,2.659c0.425,2.003-0.888,3.578-1.563,4.237
		c-0.219,0.212-0.271,0.542-0.131,0.812l0.057,0.105c0.1,0.19,0.275,0.331,0.484,0.388s0.434,0.021,0.615-0.096
		C31.902,16.479,29.831,11.599,29.831,11.599z M12.742,23.417c-0.07,0.834-0.791,1.463-1.636,1.379
		c-3.935-0.321-4.429,1.794-4.433,1.813c-0.15,0.714-0.78,1.203-1.48,1.203c-0.104,0-0.207-0.013-0.312-0.033
		c-0.819-0.172-1.342-0.973-1.171-1.791c0.346-1.652,2.395-4.657,7.651-4.207C12.196,21.852,12.813,22.585,12.742,23.417z"/>
</g>
</svg>
