<?xml version="1.0" encoding="utf-8"?>
<!-- Generator: Adobe Illustrator 16.0.4, SVG Export Plug-In . SVG Version: 6.00 Build 0)  -->
<!DOCTYPE svg PUBLIC "-//W3C//DTD SVG 1.1//EN" "http://www.w3.org/Graphics/SVG/1.1/DTD/svg11.dtd">
<svg version="1.1" id="Layer_1" xmlns="http://www.w3.org/2000/svg" xmlns:xlink="http://www.w3.org/1999/xlink" x="0px" y="0px"
	 width="32px" height="32px" viewBox="0 0 32 32" enable-background="new 0 0 32 32" xml:space="preserve">
<g>
	<path d="M0.971,7.7C0.78,7.57,0.534,7.557,0.331,7.664C0.127,7.772,0,7.983,0,8.213v17.451c0,0.23,0.127,0.441,0.331,0.549
		s0.45,0.094,0.64-0.036l12.498-8.499c0.245-0.167,0.392-0.443,0.392-0.74c0-0.295-0.147-0.572-0.392-0.738L0.971,7.7z"/>
	<path d="M3.052,26.865c-0.226,0.152-0.325,0.436-0.244,0.695C2.888,27.822,3.129,28,3.401,28h25.08
		c0.271,0,0.514-0.178,0.594-0.438c0.08-0.263-0.02-0.543-0.244-0.696l-12.195-8.292c-0.418-0.285-0.968-0.285-1.387,0L3.052,26.865
		z"/>
	<path d="M28.868,7.109c0.221-0.15,0.317-0.426,0.239-0.681C29.027,6.174,28.793,6,28.527,6H3.355c-0.266,0-0.502,0.174-0.58,0.428
		C2.697,6.683,2.793,6.959,3.014,7.109l12.231,8.317c0.419,0.285,0.971,0.285,1.392,0L28.868,7.109z"/>
	<path d="M18.645,16.121c-0.271,0.184-0.434,0.49-0.434,0.816c0,0.328,0.162,0.633,0.434,0.816l12.385,8.422
		c0.189,0.131,0.437,0.145,0.641,0.036S32,25.895,32,25.664V8.213c0-0.23-0.127-0.441-0.331-0.549
		c-0.204-0.107-0.45-0.094-0.64,0.036L18.645,16.121z"/>
</g>
</svg>
