<?xml version="1.0" encoding="utf-8"?>
<!-- Generator: Adobe Illustrator 16.0.4, SVG Export Plug-In . SVG Version: 6.00 Build 0)  -->
<!DOCTYPE svg PUBLIC "-//W3C//DTD SVG 1.1//EN" "http://www.w3.org/Graphics/SVG/1.1/DTD/svg11.dtd">
<svg version="1.1" id="Layer_1" xmlns="http://www.w3.org/2000/svg" xmlns:xlink="http://www.w3.org/1999/xlink" x="0px" y="0px"
	 width="32px" height="32px" viewBox="0 0 32 32" enable-background="new 0 0 32 32" xml:space="preserve">
<path d="M28.506,0.095H7.301c-1.636,0-2.993,1.342-2.993,2.977v0.293H2.286c-0.731,0-1.324,0.576-1.324,1.308
	c0,0.058,0.004,0.122,0.011,0.174C1.054,5.499,1.61,6.015,2.286,6.015H6.35c0.392,0,0.743-0.188,0.986-0.459l0.001-0.003
	c0.006,0.051,0.011,0.082,0.011,0.134c0,0.731-0.593,1.301-1.324,1.301H4.308v1.945H2.286c-0.731,0-1.324,0.571-1.324,1.303
	c0,0.057,0.004,0.122,0.011,0.177c0.081,0.653,0.637,1.171,1.313,1.171H6.35c0.392,0,0.743-0.193,0.986-0.464
	c0.001-0.001,0.001-0.001,0.001-0.003c0.006,0.048,0.01,0.081,0.01,0.134c0,0.732-0.593,1.304-1.324,1.304H4.308v1.856H2.286
	c-0.731,0-1.324,0.612-1.324,1.345c0,0.055,0.004,0.102,0.011,0.156c0.081,0.652,0.637,1.15,1.313,1.15H6.35
	c0.392,0,0.907-0.381,0.986-0.416c0.006,0.055,0.011,0.104,0.011,0.158c0,0.729-0.593,1.315-1.324,1.315H4.308v1.854H2.286
	c-0.731,0-1.324,0.609-1.324,1.342c0,0.057,0.004,0.104,0.011,0.158c0.081,0.652,0.637,1.149,1.313,1.149H6.35
	c0.392,0,0.986-0.418,0.986-0.418c0.006,0.054,0.011,0.104,0.011,0.161c0,0.732-0.593,1.318-1.324,1.318H4.308v1.854H2.286
	c-0.731,0-1.324,0.604-1.324,1.338c0,0.056,0.004,0.104,0.011,0.158c0.081,0.653,0.637,1.153,1.313,1.153H6.35
	c0.392,0,0.986-0.426,0.986-0.426c0.006,0.055,0.011,0.107,0.011,0.164c0,0.731-0.593,1.321-1.324,1.321H4.374
	c0.222,1.502,1.503,2.649,3.051,2.649h21.081c1.704,0,3.105-1.396,3.105-3.103v-25.6C31.611,1.491,30.21,0.095,28.506,0.095z
	 M24.543,16H11.377V6.721h13.166V16z"/>
</svg>
