<?xml version="1.0" encoding="utf-8"?>
<!-- Generator: Adobe Illustrator 16.0.4, SVG Export Plug-In . SVG Version: 6.00 Build 0)  -->
<!DOCTYPE svg PUBLIC "-//W3C//DTD SVG 1.1//EN" "http://www.w3.org/Graphics/SVG/1.1/DTD/svg11.dtd">
<svg version="1.1" id="Layer_1" xmlns="http://www.w3.org/2000/svg" xmlns:xlink="http://www.w3.org/1999/xlink" x="0px" y="0px"
	 width="32px" height="32px" viewBox="0 0 32 32" enable-background="new 0 0 32 32" xml:space="preserve">
<g>
	<path d="M22.385,4.995c0-0.701-0.568-1.269-1.269-1.269h-0.71c0.018-0.133,0.029-0.28,0.029-0.425c0-1.762-1.435-3.196-3.197-3.196
		c-1.763,0-3.196,1.434-3.196,3.196c0,0.144,0.01,0.292,0.028,0.425h-0.697c-0.7,0-1.269,0.568-1.269,1.269H8.301
		c-1.438,0-2.604,1.166-2.604,2.604v21.692c0,1.438,1.166,2.604,2.604,2.604h17.822c1.438,0,2.604-1.166,2.604-2.604V7.599
		c0-1.438-1.166-2.604-2.604-2.604H22.385z M15.96,3.301c0-0.704,0.573-1.278,1.278-1.278s1.279,0.573,1.279,1.278
		c0,0.149-0.026,0.291-0.074,0.425h-2.409C15.988,3.593,15.96,3.451,15.96,3.301z M26.189,27.859c0,0.791-0.643,1.432-1.433,1.432
		H9.731c-0.79,0-1.431-0.641-1.431-1.432V9.03c0-0.791,0.641-1.431,1.431-1.431h2.374v1.267c0,0.701,0.568,1.269,1.269,1.269h7.742
		c0.7,0,1.269-0.568,1.269-1.269V7.599h2.374c0.79,0,1.431,0.641,1.431,1.431V27.859L26.189,27.859z"/>
	<path d="M11.509,12.938c-0.707,0-1.279,0.563-1.279,1.269s0.572,1.269,1.279,1.269h11.509c0.707,0,1.278-0.562,1.278-1.269
		c0-0.706-0.571-1.269-1.278-1.269H11.509z"/>
	<path d="M23.018,17.143H11.509c-0.707,0-1.279,0.597-1.279,1.303c0,0.705,0.572,1.303,1.279,1.303h11.509
		c0.707,0,1.278-0.598,1.278-1.303C24.296,17.738,23.725,17.143,23.018,17.143z"/>
	<path d="M23.018,21.415H11.509c-0.707,0-1.279,0.562-1.279,1.269c0,0.705,0.572,1.269,1.279,1.269h11.509
		c0.707,0,1.278-0.562,1.278-1.269S23.725,21.415,23.018,21.415z"/>
</g>
</svg>
