<?xml version="1.0" encoding="utf-8"?>
<!-- Generator: Adobe Illustrator 16.0.4, SVG Export Plug-In . SVG Version: 6.00 Build 0)  -->
<!DOCTYPE svg PUBLIC "-//W3C//DTD SVG 1.1//EN" "http://www.w3.org/Graphics/SVG/1.1/DTD/svg11.dtd">
<svg version="1.1" id="Layer_1" xmlns="http://www.w3.org/2000/svg" xmlns:xlink="http://www.w3.org/1999/xlink" x="0px" y="0px"
	 width="32px" height="32px" viewBox="0 0 32 32" enable-background="new 0 0 32 32" xml:space="preserve">
<g>
	<path d="M4.683,28.341c0.39,0.195,0.802,0.292,1.23,0.292c0.695,0,1.272-0.232,1.731-0.701c0.458-0.467,0.687-1.055,0.687-1.766
		c0-0.704-0.226-1.286-0.68-1.748c-0.453-0.461-1.035-0.691-1.746-0.691c-0.459,0-0.876,0.103-1.249,0.306
		c-0.372,0.202-0.66,0.497-0.863,0.884C3.59,25.302,3.489,25.7,3.489,26.111c0,0.539,0.101,0.998,0.304,1.373
		C3.995,27.861,4.293,28.146,4.683,28.341z M5.092,25.111c0.221-0.247,0.493-0.372,0.816-0.372c0.324,0,0.597,0.124,0.816,0.372
		c0.22,0.248,0.328,0.601,0.328,1.061c0,0.473-0.108,0.831-0.328,1.078c-0.22,0.248-0.492,0.371-0.816,0.371
		c-0.323,0-0.596-0.123-0.816-0.371C4.87,27.002,4.76,26.646,4.76,26.18C4.76,25.714,4.87,25.357,5.092,25.111z"/>
	<path d="M10.089,26.4c0-0.523,0.028-0.883,0.092-1.077c0.063-0.194,0.179-0.351,0.35-0.468c0.171-0.119,0.363-0.179,0.578-0.179
		c0.168,0,0.312,0.044,0.431,0.124c0.119,0.083,0.201,0.198,0.254,0.348c0.054,0.148,0.075,0.477,0.075,0.982v2.411h1.251v-2.935
		c0-0.36-0.022-0.639-0.067-0.834c-0.047-0.193-0.129-0.369-0.244-0.521c-0.116-0.151-0.288-0.278-0.516-0.378
		c-0.227-0.1-0.462-0.146-0.736-0.146c-0.623,0-1.138,0.266-1.533,0.795v-0.658H8.836v4.679h1.253V26.4z"/>
	<rect x="13.91" y="22.02" width="1.252" height="6.523"/>
	<rect x="16.019" y="22.02" width="1.186" height="1.187"/>
	<rect x="16.019" y="23.864" width="1.186" height="4.679"/>
	<path d="M19.314,26.4c0-0.523,0.015-0.883,0.078-1.077c0.062-0.194,0.174-0.351,0.344-0.468c0.171-0.119,0.359-0.179,0.574-0.179
		c0.168,0,0.311,0.044,0.43,0.124c0.119,0.083,0.213,0.198,0.266,0.348c0.053,0.148,0.087,0.477,0.087,0.982v2.411h1.253v-2.935
		c0-0.36-0.035-0.639-0.082-0.834c-0.046-0.193-0.133-0.369-0.25-0.521c-0.115-0.151-0.291-0.278-0.519-0.378
		c-0.226-0.1-0.485-0.146-0.759-0.146c-0.623,0-1.159,0.266-1.555,0.795v-0.658h-1.121v4.679h1.254V26.4L19.314,26.4z"/>
	<path d="M25.038,28.633c0.517,0,0.944-0.119,1.288-0.355c0.343-0.236,0.595-0.584,0.753-1.035l-1.236-0.208
		c-0.067,0.233-0.168,0.405-0.3,0.513c-0.134,0.105-0.297,0.16-0.491,0.16c-0.286,0-0.524-0.089-0.717-0.294
		c-0.19-0.205-0.292-0.517-0.3-0.847h3.109c0.021-0.987-0.174-1.672-0.576-2.133c-0.405-0.461-0.955-0.699-1.654-0.699
		c-0.621,0-1.137,0.219-1.542,0.658c-0.406,0.44-0.608,1.049-0.608,1.826c0,0.651,0.153,1.189,0.463,1.616
		C23.618,28.367,24.223,28.633,25.038,28.633z M24.318,24.973c0.176-0.197,0.399-0.296,0.67-0.296c0.255,0,0.47,0.093,0.646,0.279
		c0.177,0.188,0.271,0.489,0.278,0.819h-1.857C24.055,25.445,24.143,25.169,24.318,24.973z"/>
	<path d="M27.244,16.085l-1.434-0.69l-0.135,0.28c-0.255,0.527-0.771,0.878-1.355,0.919c-0.038,0.002-0.074,0.004-0.11,0.004
		c-0.546,0-1.056-0.271-1.358-0.729l-2.912-4.397c-0.424,0.131-0.996,0.276-1.301,0.333c-0.494,0.094-0.85-0.585-1.014-0.889
		c-0.162-0.303-0.626-1.38-0.719-1.66c-0.094-0.282-0.417,0.405-0.372,0.708c0.047,0.305,0.489,1.187,0.698,1.515
		c0.211,0.328,0.304,0.723,0.304,1.03c0,0.303,0.438,0.515,0.901,0.654c0.465,0.142,0,0.445-0.162,0.632
		c-0.162,0.188-0.832,0.561-1.532,0.912c-0.696,0.352-1.437,1.544-1.692,2.036c-0.255,0.49-0.837,1.379-1.322,1.775
		c-0.004,0.002-0.008,0.006-0.012,0.008H9.296c-0.277-1.002-0.322-2.432-0.277-2.813c0.071-0.583,0.464-1.521,0.417-2.058
		c-0.043-0.538,0.182-1.428,0.299-1.638c0.121-0.211,0.675,0.021,0.932-0.001c0.255-0.024-0.257-0.658-0.395-0.635
		s-0.463-0.191-0.654-0.287C9.435,11,9.227,10.427,8.509,10.266c-0.723-0.165-0.815-1.073-0.907-1.518
		c-0.093-0.445,0.489-1.607,0.606-1.84c0.115-0.235,1.575-1.511,1.575-1.511s0.779-0.401,1-0.387c0.65,0.04,1.279,0.661,1.279,0.661
		s0.929,0.57,1.526,1.524c0.499,0.795,1.55,0.94,1.55,0.94c0.58-0.05,0.96-0.498,0.988-0.66c0.104-0.534-0.303-0.984-0.867-0.955
		c-0.118,0.007-0.163,0.234-0.347,0.234c-0.188,0-0.142-0.234-0.211-0.469c-0.069-0.233-0.086-0.511-0.2-0.792
		c-0.113-0.28-0.206-0.625-0.437-0.881c-0.233-0.259-0.556-0.064-0.857-0.134c-0.301-0.071-0.755,0.172-1.079,0.147
		c-0.328-0.024-0.488-0.28-0.466-0.514c0.023-0.234,0.819-0.528,1.211-0.575c0.396-0.045,0.753-0.089,0.866-0.253
		c0.118-0.164,0.677-0.253,0.864-0.23c0.185,0.025,0.481,0.15,0.662,0.383c0.243,0.321,0.254,0.824,0.818,0.751
		c0.218-0.029,0.794-0.356,0.356-0.614c-0.246-0.146-0.58-0.374-0.345-0.795c0.031-0.057,0.1-0.102,0.196-0.135
		c2.808,0.161,5.306,1.493,7.013,3.514l2.496-0.222c-2.154-3.277-5.865-5.442-10.083-5.442C9.06,0.493,3.662,5.89,3.662,12.547
		c0,2.179,0.585,4.217,1.597,5.98H1.946c-0.926,0-1.677,0.75-1.677,1.676v9.42c0,1.041,0.844,1.885,1.886,1.885h26.607
		c1.043,0,1.887-0.844,1.887-1.885v-9.211c0-1.041-0.844-1.885-1.887-1.885H26.18C26.621,17.76,26.979,16.943,27.244,16.085z
		 M15.887,18.05c0.23-0.049,0.23,0.198,0.145,0.476h-1.154C15.064,18.212,15.455,18.143,15.887,18.05z M27.393,20.635
		c0.596,0,1.08,0.484,1.08,1.082v6.535c0,0.598-0.484,1.082-1.08,1.082H3.525c-0.597,0-1.081-0.484-1.081-1.082v-6.535
		c0-0.598,0.484-1.082,1.081-1.082H27.393z"/>
	<path d="M21.499,7.947c-0.397,0.035-0.747,0.277-0.92,0.637c-0.175,0.359-0.146,0.784,0.075,1.117l2.418,3.65
		c0.219,0.33,0.598,0.518,0.992,0.491c0.396-0.027,0.746-0.264,0.918-0.622l4.266,2.053c0.232,0.112,0.503,0.128,0.747,0.042
		c0.243-0.086,0.444-0.265,0.558-0.498l0.991-2.061c0.233-0.486,0.029-1.07-0.457-1.304L26.824,9.4l0.104-0.217
		c0.178-0.367,0.143-0.801-0.089-1.136s-0.626-0.52-1.032-0.484L21.499,7.947z"/>
</g>
</svg>
