<?xml version="1.0" encoding="utf-8"?>
<!-- Generator: Adobe Illustrator 16.0.4, SVG Export Plug-In . SVG Version: 6.00 Build 0)  -->
<!DOCTYPE svg PUBLIC "-//W3C//DTD SVG 1.1//EN" "http://www.w3.org/Graphics/SVG/1.1/DTD/svg11.dtd">
<svg version="1.1" id="Layer_1" xmlns="http://www.w3.org/2000/svg" xmlns:xlink="http://www.w3.org/1999/xlink" x="0px" y="0px"
	 width="32px" height="32px" viewBox="0 0 32 32" enable-background="new 0 0 32 32" xml:space="preserve">
<g>
	<path d="M-0.005,29.955c0.002,0.398,0.325,0.72,0.723,0.72h26.677c0.5,0,0.905-0.405,0.905-0.905v-0.971H-0.009
		C-0.007,29.184-0.006,29.607-0.005,29.955z"/>
	<path d="M27.588,12.722l-2.264,0.628v12.041c-1.164-0.476-2.764-0.947-4.729-0.947c-1.64,0-3.291,0.326-4.909,0.972V9.61
		c0.776-0.483,2.476-1.399,4.554-1.504l0.522-2.27c-0.045,0-0.088-0.001-0.132-0.001c-3.071,0-5.499,1.422-6.394,2.029
		c-0.172,0.117-0.176,0.117-0.003,0c-0.895-0.607-3.321-2.029-6.392-2.029c-2.342,0-4.55,0.817-6.534,2.429
		C1.046,8.479,0.878,8.801,0.878,9.142v3.521L-0.017,27.7h28.324l-0.719-14.771V12.722z M12.778,25.414
		c-1.617-0.646-3.269-0.971-4.908-0.971c-1.966,0-3.564,0.472-4.728,0.949V9.697c1.487-1.063,3.039-1.6,4.69-1.6
		c2.253,0,4.17,1.002,4.946,1.514V25.414z"/>
	<path d="M31.748,5.063c0.345-0.362,0.332-0.935-0.03-1.28l-2.073-1.979c-0.166-0.16-0.392-0.247-0.623-0.242
		c-0.23,0.005-0.451,0.103-0.61,0.27l-3.718,3.893l-0.918-0.877c-0.174-0.166-0.424-0.226-0.654-0.157s-0.406,0.257-0.46,0.492
		l-1.359,5.94c-0.081,0.355,0.03,0.726,0.294,0.978s0.641,0.346,0.99,0.248l5.619-1.562c0.281-0.079,0.502-0.304,0.572-0.589
		c0.072-0.285-0.016-0.587-0.229-0.791l-0.496-0.473L31.748,5.063z"/>
</g>
</svg>
