<?xml version="1.0" encoding="utf-8"?>
<!-- Generator: Adobe Illustrator 16.0.4, SVG Export Plug-In . SVG Version: 6.00 Build 0)  -->
<!DOCTYPE svg PUBLIC "-//W3C//DTD SVG 1.1//EN" "http://www.w3.org/Graphics/SVG/1.1/DTD/svg11.dtd">
<svg version="1.1" id="Layer_1" xmlns="http://www.w3.org/2000/svg" xmlns:xlink="http://www.w3.org/1999/xlink" x="0px" y="0px"
	 width="32px" height="32px" viewBox="0 0 32 32" enable-background="new 0 0 32 32" xml:space="preserve">
<path d="M31.84,15.299c-0.033-0.264-0.247-0.467-0.51-0.484l-13.248-0.852L21.38,1.107c0.065-0.257-0.06-0.523-0.3-0.637
	c-0.241-0.111-0.528-0.038-0.682,0.179L16.73,5.795c-1.606,2.252-2.604,4.881-2.896,7.63l-0.026,0.262l-4.065-0.262
	c-0.431-2.122-2.242-3.787-4.506-3.932c-2.719-0.17-5.054,1.909-5.228,4.596c-0.172,2.705,1.889,5.052,4.596,5.228
	c0.106,0.008,0.212,0.011,0.319,0.011c1.957,0,3.667-1.158,4.455-2.84l4.042,0.861l-0.435,4.107c-1.991,0.24-3.663,1.679-4.17,3.663
	c-0.327,1.272-0.138,2.599,0.532,3.729s1.74,1.935,3.012,2.26c0.402,0.104,0.815,0.156,1.226,0.156c2.247,0,4.205-1.521,4.766-3.701
	c0.562-2.197-0.457-4.436-2.345-5.504l1.013-3.944l0.258,0.054c2.707,0.576,5.512,0.443,8.152-0.385l6.029-1.894
	C31.71,15.808,31.872,15.56,31.84,15.299z M7.628,14.579c-0.094,1.483-1.364,2.644-2.882,2.532c-1.491-0.096-2.628-1.388-2.533-2.88
	c0.094-1.423,1.282-2.539,2.708-2.539c0.058,0,0.115,0.002,0.173,0.006C6.589,11.793,7.725,13.086,7.628,14.579z M16.212,27.014
	c-0.363,1.422-1.858,2.326-3.301,1.953c-0.702-0.18-1.292-0.621-1.661-1.246c-0.368-0.623-0.474-1.354-0.294-2.054
	c0.308-1.201,1.388-2.041,2.625-2.041c0.228,0,0.455,0.028,0.677,0.086C15.707,24.084,16.583,25.564,16.212,27.014z M15.908,16.771
	c-0.651,0-1.18-0.528-1.18-1.184c0-0.653,0.529-1.183,1.18-1.183c0.654,0,1.185,0.53,1.185,1.183
	C17.093,16.243,16.562,16.771,15.908,16.771z"/>
</svg>
