<?xml version="1.0" encoding="utf-8"?>
<!-- Generator: Adobe Illustrator 16.0.4, SVG Export Plug-In . SVG Version: 6.00 Build 0)  -->
<!DOCTYPE svg PUBLIC "-//W3C//DTD SVG 1.1//EN" "http://www.w3.org/Graphics/SVG/1.1/DTD/svg11.dtd">
<svg version="1.1" id="Layer_1" xmlns="http://www.w3.org/2000/svg" xmlns:xlink="http://www.w3.org/1999/xlink" x="0px" y="0px"
	 width="32px" height="32px" viewBox="0 0 32 32" enable-background="new 0 0 32 32" xml:space="preserve">
<path d="M0.003,32h32.003v-1.134c0-0.599-0.484-1.082-1.083-1.082H1.082c-0.288,0-0.563,0.114-0.767,0.317
	C0.113,30.307-0.001,30.583,0,30.871C0.002,31.475,0.003,32,0.003,32z"/>
<path d="M30.872,28.656c0.296-0.002,0.578-0.123,0.782-0.338c0.203-0.215,0.311-0.504,0.296-0.799L30.934,7.282
	c-0.059-0.171-0.174-0.365-0.336-0.497c-2.201-1.788-4.633-2.69-7.227-2.69c-3.592,0-6.387,1.753-7.239,2.353
	c-0.853-0.6-3.649-2.349-7.24-2.349c-2.594,0-5.029,0.894-7.227,2.686c-0.357,0.292-0.38,0.76-0.381,0.797l-1.23,20.027
	c-0.019,0.3,0.088,0.593,0.294,0.81c0.205,0.217,0.492,0.34,0.791,0.339C6.142,28.742,25.909,28.673,30.872,28.656z M14.789,26.389
	c-2.045-0.81-3.874-1.221-5.812-1.221c-2.396,0-4.415,0.628-5.609,1.203V8.102c1.705-1.284,3.605-1.935,5.567-1.935
	c2.722,0,4.832,1.258,5.854,1.827V26.389z M28.938,26.371c-1.362-0.575-3.213-1.203-5.608-1.203c-1.938,0-3.938,0.411-5.812,1.221
	V7.994c0.854-0.569,3.133-1.827,5.854-1.827c1.961,0,3.86,0.651,5.565,1.935V26.371z"/>
</svg>
