<?xml version="1.0" encoding="utf-8"?>
<!-- Generator: Adobe Illustrator 16.0.4, SVG Export Plug-In . SVG Version: 6.00 Build 0)  -->
<!DOCTYPE svg PUBLIC "-//W3C//DTD SVG 1.1//EN" "http://www.w3.org/Graphics/SVG/1.1/DTD/svg11.dtd">
<svg version="1.1" id="Layer_1" xmlns="http://www.w3.org/2000/svg" xmlns:xlink="http://www.w3.org/1999/xlink" x="0px" y="0px"
	 width="32px" height="32px" viewBox="0 0 32 32" enable-background="new 0 0 32 32" xml:space="preserve">
<g>
	<path d="M29.445,11.92c0-1.712-0.441-3.339-1.235-4.802l0.746-3.127c0.106-0.449,0.003-0.922-0.283-1.284
		c-0.284-0.362-0.722-0.573-1.183-0.573h-4.449c-0.02-0.01-0.04-0.019-0.059-0.028c-2.02-1.069-4.371-1.714-6.939-1.786V0.319
		c0,0-0.021,0.001-0.031,0.001c-0.011,0-0.029-0.001-0.029-0.001v0.002c-2.51,0.071-4.91,0.716-6.93,1.786
		C9.038,2.116,9.026,2.125,9.008,2.135H4.56c-0.461,0-0.896,0.211-1.183,0.573C3.092,3.07,2.987,3.543,3.094,3.991l0.744,3.128
		c-0.796,1.463-1.246,3.089-1.246,4.802c0,6.318,2.5,19.321,13.392,19.69v0.003c0,0,0.019-0.001,0.029-0.001c0.01,0,0.031,0,0.031,0
		v-0.002C26.936,31.242,29.445,18.239,29.445,11.92z M20.048,16.891l-3.233,3.719c-0.196,0.229-0.484,0.359-0.791,0.359
		c-0.304,0-0.592-0.132-0.791-0.361l-3.23-3.717c-0.285,0.037-0.576,0.06-0.873,0.06c-3.584,0-6.49-2.907-6.49-6.492
		c0-3.584,2.899-6.492,6.483-6.492c1.937,0,3.697,0.849,4.86,2.194v0.069c0-0.012,0.019-0.023,0.029-0.035
		c0.01,0.012,0.031,0.023,0.031,0.035v-0.07c1.225-1.345,2.934-2.194,4.87-2.194c3.585,0,6.493,2.907,6.493,6.492
		s-2.902,6.492-6.488,6.492C20.621,16.949,20.333,16.93,20.048,16.891z"/>
	<path d="M15.983,14.686c0,0-1.625,1.505-2.659,1.878l1.782,2.051c0.222,0.255,0.542,0.402,0.88,0.404
		c0.338,0,0.661-0.145,0.885-0.396l1.829-2.061C17.667,16.191,15.983,14.698,15.983,14.686z"/>
	<path d="M20.92,5.146c-1.771,0-3.346,0.874-4.312,2.213c-0.229,0.322-0.425,0.67-0.583,1.039c-0.155-0.369-0.351-0.717-0.583-1.039
		c-0.965-1.339-2.537-2.213-4.311-2.213c-2.929,0-5.31,2.383-5.31,5.311c0,2.929,2.381,5.311,5.31,5.311
		c0.445,0,1.363-0.178,1.363-0.178c1.204-0.319,2.242-1.051,2.949-2.036c0.231-0.321,0.428-0.67,0.583-1.039
		c0.156,0.369,0.352,0.718,0.583,1.039c0.709,0.984,1.748,1.717,2.949,2.036c0,0,0.918,0.178,1.361,0.178
		c2.93,0,5.312-2.382,5.312-5.311C26.23,7.529,23.85,5.146,20.92,5.146z M11.13,13.329c-1.581,0-2.87-1.289-2.87-2.872
		s1.289-2.871,2.87-2.871c1.584,0,2.871,1.288,2.871,2.871S12.714,13.329,11.13,13.329z M20.92,13.329
		c-1.583,0-2.872-1.289-2.872-2.872s1.289-2.871,2.872-2.871c1.582,0,2.871,1.288,2.871,2.871S22.502,13.329,20.92,13.329z"/>
</g>
</svg>
