<?xml version="1.0" encoding="utf-8"?>
<!-- Generator: Adobe Illustrator 16.0.4, SVG Export Plug-In . SVG Version: 6.00 Build 0)  -->
<!DOCTYPE svg PUBLIC "-//W3C//DTD SVG 1.1//EN" "http://www.w3.org/Graphics/SVG/1.1/DTD/svg11.dtd">
<svg version="1.1" id="Layer_1" xmlns="http://www.w3.org/2000/svg" xmlns:xlink="http://www.w3.org/1999/xlink" x="0px" y="0px"
	 width="32px" height="32px" viewBox="0 0 32 32" enable-background="new 0 0 32 32" xml:space="preserve">
<g>
	<path d="M25.083,6.205c-1.95-3.218-5.202-5.542-9.127-6.088C8.863-0.866,2.937,4.439,1.257,11.698
		c-2.123,9.183,0.275,12.399,4.726,12.532c0.817-0.74,1.83-1.322,2.945-1.666L25.083,6.205z M11.987,5.602
		c0.241-1.737,1.845-2.95,3.583-2.709c1.737,0.242,2.95,1.847,2.709,3.583c-0.242,1.737-1.846,2.951-3.583,2.709
		C12.958,8.943,11.746,7.341,11.987,5.602z M5.428,9.045C5.606,7.759,6.796,6.858,8.082,7.04c1.289,0.176,2.188,1.364,2.009,2.653
		C9.912,10.98,8.722,11.881,7.435,11.7C6.148,11.523,5.249,10.335,5.428,9.045z M6.093,19.607c-1.288-0.178-2.187-1.365-2.008-2.655
		c0.179-1.285,1.369-2.187,2.656-2.005c1.287,0.177,2.187,1.365,2.007,2.653C8.569,18.889,7.38,19.788,6.093,19.607z"/>
	<path d="M19.516,21.314l0.324-0.41L31.779,5.342c-0.026-0.255-0.162-0.613-0.61-1.018c-0.885-0.798-1.467-0.407-1.467-0.407
		L15.824,17.33l-0.355,0.342L19.516,21.314z"/>
	<path d="M14.722,26.637l0.342-0.382l3.733-4.157l-4.071-3.623l-3.707,4.133l-0.343,0.384L14.722,26.637z M12.497,22.386
		l1.856-2.104c0.172-0.194,0.468-0.216,0.663-0.042l0.239,0.211c0.093,0.082,0.15,0.195,0.158,0.32
		c0.007,0.127-0.034,0.248-0.117,0.342l-1.856,2.104c-0.172,0.193-0.468,0.215-0.663,0.04l-0.238-0.209
		c-0.094-0.083-0.15-0.196-0.159-0.321C12.373,22.602,12.415,22.479,12.497,22.386z"/>
	<path d="M13.631,27.736L13.631,27.736c0-0.002,0.211-0.336,0.244-0.401l-3.792-3.431c-0.086,0.016-0.167,0.035-0.253,0.054
		c-0.008,0.002-0.014,0.005-0.023,0.007c-3.065,0.723-6.078,4.012-3.046,7.7c0.14,0.169,0.366,0.243,0.579,0.187
		c0.213-0.055,0.375-0.229,0.415-0.441c0.088-0.486,0.263-1.018,0.671-1.403C9.358,29.125,11.97,30.549,13.631,27.736z
		 M9.926,28.662c-0.763,0.029-1.551,0.059-2.152,0.629C7.658,29.4,7.553,29.52,7.46,29.641c-0.106,0.139-0.281,0.207-0.453,0.178
		C6.835,29.79,6.693,29.667,6.64,29.5c-0.171-0.525-0.212-1.092-0.047-1.673c0.095-0.341,0.252-0.657,0.452-0.944
		c0.773,0.842,1.447,1.321,2.694,1.209c0.78-0.068,1.497-0.039,2.161,0.139C11.288,28.609,10.618,28.635,9.926,28.662z"/>
</g>
</svg>
