<?xml version="1.0" encoding="utf-8"?>
<!-- Generator: Adobe Illustrator 16.0.4, SVG Export Plug-In . SVG Version: 6.00 Build 0)  -->
<!DOCTYPE svg PUBLIC "-//W3C//DTD SVG 1.1//EN" "http://www.w3.org/Graphics/SVG/1.1/DTD/svg11.dtd">
<svg version="1.1" id="Layer_1" xmlns="http://www.w3.org/2000/svg" xmlns:xlink="http://www.w3.org/1999/xlink" x="0px" y="0px"
	 width="32px" height="32px" viewBox="0 0 32 32" enable-background="new 0 0 32 32" xml:space="preserve">
<g>
	<path d="M21.243,7.036h-8.647l-4.09,7.494c-0.961,1.761-0.976,3.885-0.039,5.66L14.3,31.243c0.205,0.391,0.609,0.634,1.05,0.634
		V21.021c-0.747-0.471-1.244-1.299-1.244-2.246c0-1.403,1.098-2.542,2.48-2.629h0.665c1.382,0.088,2.479,1.226,2.479,2.629
		c0,0.947-0.496,1.775-1.244,2.246v10.854c0.439,0,0.846-0.243,1.051-0.634l5.834-11.057c0.938-1.771,0.922-3.896-0.039-5.659
		L21.243,7.036z"/>
	<path d="M7.088,0.124v2.754h1.351v0.001c0,1.521,1.233,2.754,2.754,2.754h11.452c1.521,0,2.754-1.233,2.754-2.754V2.878h1.354
		V0.124H7.088z"/>
</g>
</svg>
