<?xml version="1.0" encoding="utf-8"?>
<!-- Generator: Adobe Illustrator 16.0.4, SVG Export Plug-In . SVG Version: 6.00 Build 0)  -->
<!DOCTYPE svg PUBLIC "-//W3C//DTD SVG 1.1//EN" "http://www.w3.org/Graphics/SVG/1.1/DTD/svg11.dtd">
<svg version="1.1" id="Layer_1" xmlns="http://www.w3.org/2000/svg" xmlns:xlink="http://www.w3.org/1999/xlink" x="0px" y="0px"
	 width="32px" height="32px" viewBox="0 0 32 32" enable-background="new 0 0 32 32" xml:space="preserve">
<path d="M4.565,21.932l6.548,5.871l13.888-15.479L18.453,6.45L4.565,21.932z M16.812,13.636l-7.798,8.692
	c-0.098,0.109-0.234,0.175-0.38,0.183c-0.146,0.009-0.29-0.042-0.398-0.141l-0.387-0.347c-0.226-0.203-0.245-0.551-0.042-0.778
	l7.798-8.692c0.098-0.109,0.234-0.175,0.38-0.183c0.146-0.008,0.29,0.043,0.398,0.14l0.387,0.347
	C16.996,13.061,17.014,13.409,16.812,13.636z M19.08,9.503l0.386,0.346c0.228,0.203,0.246,0.552,0.043,0.778l-0.678,0.756
	c-0.099,0.109-0.235,0.174-0.381,0.183c-0.146,0.008-0.289-0.042-0.398-0.14l-0.387-0.347c-0.108-0.098-0.174-0.234-0.183-0.381
	c-0.008-0.146,0.043-0.29,0.141-0.398l0.678-0.756C18.505,9.318,18.854,9.299,19.08,9.503z M20.695,3.953l6.546,5.873l-1.608,1.793
	l-6.546-5.873L20.695,3.953z M29.874,4.038l-3.711-3.33c-0.783-0.703-1.986-0.637-2.688,0.146l-2.188,2.44l6.548,5.872l2.188-2.438
	c0.336-0.376,0.512-0.871,0.482-1.375C30.477,4.848,30.25,4.375,29.874,4.038z M27.7,6.719L23.732,3.16l1.146-1.276l3.968,3.558
	L27.7,6.719z M1.53,30.623c-0.101,0.35,0.007,0.727,0.277,0.968c0.27,0.243,0.656,0.31,0.992,0.173l7.529-3.084l-6.546-5.873
	L1.53,30.623z M8.184,28.309L5.226,29.52l-1.73-1.552l0.885-3.071L8.184,28.309z"/>
</svg>
