<?xml version="1.0" encoding="utf-8"?>
<!-- Generator: Adobe Illustrator 16.0.4, SVG Export Plug-In . SVG Version: 6.00 Build 0)  -->
<!DOCTYPE svg PUBLIC "-//W3C//DTD SVG 1.1//EN" "http://www.w3.org/Graphics/SVG/1.1/DTD/svg11.dtd">
<svg version="1.1" id="Layer_1" xmlns="http://www.w3.org/2000/svg" xmlns:xlink="http://www.w3.org/1999/xlink" x="0px" y="0px"
	 width="32px" height="32px" viewBox="0 0 32 32" enable-background="new 0 0 32 32" xml:space="preserve">
<g>
	<path d="M0,23.893l6.772,7.521l6.579-5.927l-6.773-7.518L0,23.893z M9.916,25.926L7.567,28.04l-1.188-1.317l2.348-2.117
		L9.916,25.926z M4.484,24.619l-1.19-1.32l2.35-2.115l1.189,1.318L4.484,24.619z"/>
	<path d="M30.621,4.975l-1.848-2.05c-1.826-2.029-4.953-2.192-6.981-0.365L6.672,16.181l8.466,9.397l15.12-13.622
		C32.287,10.129,32.448,7.003,30.621,4.975z M23.184,6.864l-9.642,8.569c-0.241,0.217-0.542,0.32-0.839,0.32
		c-0.351,0-0.697-0.143-0.946-0.425c-0.464-0.521-0.416-1.321,0.104-1.784l9.642-8.57c0.521-0.466,1.32-0.419,1.784,0.105
		C23.753,5.602,23.706,6.401,23.184,6.864z"/>
</g>
</svg>
