<?xml version="1.0" encoding="utf-8"?>
<!-- Generator: Adobe Illustrator 16.0.4, SVG Export Plug-In . SVG Version: 6.00 Build 0)  -->
<!DOCTYPE svg PUBLIC "-//W3C//DTD SVG 1.1//EN" "http://www.w3.org/Graphics/SVG/1.1/DTD/svg11.dtd">
<svg version="1.1" id="Layer_1" xmlns="http://www.w3.org/2000/svg" xmlns:xlink="http://www.w3.org/1999/xlink" x="0px" y="0px"
	 width="32px" height="32px" viewBox="0 0 32 32" enable-background="new 0 0 32 32" xml:space="preserve">
<g>
	<path d="M13.458,13.723h4.496c0.231-1.27,0.907-2.364,1.864-3.159c0.004,0,0.008,0,0.014,0c0.797-0.027,1.836-0.237,2.822-0.966
		c0.121-0.089,0.238-0.185,0.35-0.284c1.412-1.252,2.186-3.332,2.292-6.192c0.026-0.758-0.565-1.396-1.321-1.425
		c-0.826-0.042-1.396,0.563-1.424,1.322c-0.084,2.161-0.602,3.664-1.506,4.349c-0.197,0.151-0.406,0.254-0.607,0.323
		c-0.006,0.002-0.014,0.003-0.02,0.005C19.823,7.128,19,6.851,18.445,6.851h-3.399h-3.397c-1.246,0-2.237,1.251-2.259,2.624
		C11.466,9.982,13.075,11.661,13.458,13.723z"/>
	<ellipse cx="15.045" cy="3.61" rx="3.26" ry="3.195"/>
	<path d="M14.624,21.961c0-2.479-1.068-3.527-2.55-3.527h-0.081H8.637c1.854-0.271,3.275-1.834,3.275-3.727
		c0-2.08-1.72-3.768-3.847-3.768c-2.123,0-3.844,1.688-3.844,3.768c0,1.893,1.421,3.456,3.276,3.727H4.142H4.06
		c-1.484,0-2.688,1.588-2.688,3.229v5.02h13.252V21.961z"/>
	<path d="M19.365,14.707c0,1.893,1.422,3.456,3.275,3.727h-3.22h-0.219c-1.485,0-2.618,1.588-2.618,3.229v5.02h13.15v-4.72
		c0-2.451-1.029-3.481-2.481-3.506c-0.021,0-0.019-0.021-0.037-0.021h-3.438c1.855-0.271,3.277-1.834,3.277-3.728
		c0-2.08-1.722-3.768-3.846-3.768C21.086,10.939,19.365,12.627,19.365,14.707z"/>
	<rect x="0.294" y="28.838" width="31.604" height="3.239"/>
</g>
</svg>
