<?xml version="1.0" encoding="utf-8"?>
<!-- Generator: Adobe Illustrator 16.0.4, SVG Export Plug-In . SVG Version: 6.00 Build 0)  -->
<!DOCTYPE svg PUBLIC "-//W3C//DTD SVG 1.1//EN" "http://www.w3.org/Graphics/SVG/1.1/DTD/svg11.dtd">
<svg version="1.1" id="Layer_1" xmlns="http://www.w3.org/2000/svg" xmlns:xlink="http://www.w3.org/1999/xlink" x="0px" y="0px"
	 width="32px" height="32px" viewBox="0 0 32 32" enable-background="new 0 0 32 32" xml:space="preserve">
<g>
	<polygon points="8.368,18.577 5.485,18.577 5.485,16.955 8.007,16.955 8.007,15.603 5.485,15.603 5.485,14.161 8.188,14.161 
		8.188,12.899 3.951,12.899 3.951,19.839 8.368,19.839 	"/>
	<rect x="8.909" y="17.676" width="3.335" height="0.991"/>
	<rect x="8.909" y="15.513" width="3.335" height="0.991"/>
	<path d="M13.236,19.749h1.53v-2.962c0-0.123,0.017-0.266,0.067-0.391c0.093-0.256,0.338-0.564,0.738-0.564
		c0.493,0,0.728,0.432,0.728,1.068v2.848h1.532v-2.973c0-0.123,0.008-0.289,0.048-0.399c0.102-0.297,0.373-0.545,0.732-0.545
		c0.504,0,0.752,0.421,0.752,1.149v2.767h1.443v-2.993c0-1.498-0.711-2.175-1.677-2.175c-0.368,0-0.667,0.078-0.942,0.242
		c-0.236,0.144-0.453,0.33-0.64,0.6h-0.021c-0.217-0.541-0.729-0.865-1.375-0.865c-0.861,0-1.303,0.504-1.519,0.775h-0.03
		L14.533,14.7h-1.314c0.02,0.451,0.017,0.968,0.017,1.594V19.749L13.236,19.749z"/>
	<path d="M24.131,19.816c0.594,0,1.118-0.104,1.395-0.228l-0.184-1.147c-0.236,0.092-0.523,0.151-0.895,0.151
		c-0.76,0-1.374-0.481-1.374-1.405c-0.013-0.82,0.524-1.406,1.345-1.406c0.409,0,0.688,0.072,0.873,0.154l0.245-1.159
		c-0.329-0.123-0.78-0.195-1.192-0.195c-1.867,0-2.873,1.2-2.873,2.669C21.471,18.831,22.509,19.816,24.131,19.816z"/>
	<path d="M28.105,13.259h-1.354v-0.052l0.328-0.279c0.523-0.468,0.962-0.953,0.962-1.561c0-0.658-0.453-1.137-1.272-1.137
		c-0.49,0-0.914,0.167-1.188,0.373l0.236,0.608c0.191-0.145,0.465-0.301,0.775-0.301c0.42,0,0.596,0.234,0.596,0.53
		c-0.01,0.424-0.418,0.83-1.211,1.538l-0.488,0.424v0.488h2.613v-0.631H28.105z"/>
	<path d="M30.77,2.265H1.249c-0.577,0-1.082,0.422-1.082,1v25.711c0,0.578,0.505,1.045,1.082,1.045H30.77
		c0.578,0,1.03-0.467,1.03-1.045V3.265C31.801,2.687,31.348,2.265,30.77,2.265z M29.729,27.95h-8.652v-1.623h-6.218v1.623h-2.073
		v-2.704H3.322v2.704H2.33V4.337h27.398V27.95L29.729,27.95z"/>
</g>
</svg>
