<?xml version="1.0" encoding="utf-8"?>
<!-- Generator: Adobe Illustrator 16.0.4, SVG Export Plug-In . SVG Version: 6.00 Build 0)  -->
<!DOCTYPE svg PUBLIC "-//W3C//DTD SVG 1.1//EN" "http://www.w3.org/Graphics/SVG/1.1/DTD/svg11.dtd">
<svg version="1.1" id="Layer_1" xmlns="http://www.w3.org/2000/svg" xmlns:xlink="http://www.w3.org/1999/xlink" x="0px" y="0px"
	 width="32px" height="32px" viewBox="0 0 32 32" enable-background="new 0 0 32 32" xml:space="preserve">
<path d="M30.841,5.237H1.082C0.472,5.237,0,5.685,0,6.295v19.839c0,0.609,0.472,1.148,1.082,1.148h29.76
	c0.608,0,1.081-0.538,1.081-1.148V6.295C31.922,5.685,31.45,5.237,30.841,5.237z M6.447,18.41c0.682,0,1.235-0.553,1.235-1.236
	V7.433H8.78v9.741c0,0.682,0.553,1.236,1.235,1.236h0.412v6.585h-4.39V18.41H6.447z M11.525,18.41h0.411
	c0.683,0,1.236-0.553,1.236-1.236V7.429h2.195v17.567h-3.842V18.41z M16.557,7.433h2.196v9.741c0,0.682,0.554,1.236,1.235,1.236
	h0.41v6.585h-3.842V7.433L16.557,7.433z M21.495,18.41h0.409c0.683,0,1.236-0.553,1.236-1.236V7.433h1.098v9.741
	c0,0.682,0.554,1.236,1.236,1.236h0.408v6.585h-4.39L21.495,18.41L21.495,18.41z M2.195,8.32c0-0.49,0.397-0.887,0.887-0.887h0.21
	v9.741c0,0.684,0.553,1.236,1.235,1.236h0.411v6.584H3.083c-0.49,0-0.887-0.396-0.887-0.887L2.195,8.32L2.195,8.32z M29.727,24.107
	c0,0.49-0.396,0.888-0.887,0.888h-1.857V18.41h0.412c0.684,0,1.235-0.553,1.235-1.236V7.433h0.21c0.49,0,0.887,0.397,0.887,0.887
	V24.107L29.727,24.107z"/>
</svg>
