<?xml version="1.0" encoding="utf-8"?>
<!-- Generator: Adobe Illustrator 16.0.4, SVG Export Plug-In . SVG Version: 6.00 Build 0)  -->
<!DOCTYPE svg PUBLIC "-//W3C//DTD SVG 1.1//EN" "http://www.w3.org/Graphics/SVG/1.1/DTD/svg11.dtd">
<svg version="1.1" id="Layer_1" xmlns="http://www.w3.org/2000/svg" xmlns:xlink="http://www.w3.org/1999/xlink" x="0px" y="0px"
	 width="32px" height="32px" viewBox="0 0 32 32" enable-background="new 0 0 32 32" xml:space="preserve">
<path d="M19.698,19.43h5.959c-0.06-2.719-1.271-5.101-3.241-6.705V4.21h0.018h0.867c0.676,0,1.223-0.547,1.223-1.222V1.287
	c0-0.675-0.547-1.222-1.223-1.222H10.538c-0.907,0-1.643,0.735-1.643,1.643v1.28c0,0.675,0.547,1.222,1.222,1.222h0.816v8.509
	c-1.902,1.605-3.138,3.992-3.197,6.711h5.915v-0.016l1.069,10.661c0.089,0.918,0.823,1.676,1.774,1.769
	c1.086,0.107,2.047-0.686,2.152-1.769l1.051-10.661L19.698,19.43L19.698,19.43z M13.269,16.167c0,0.752-0.611,1.356-1.363,1.356
	c-0.753,0-1.38-0.612-1.38-1.364c0-0.389,0.203-0.741,0.407-0.989c0.273-0.233,0.592-0.366,0.956-0.366
	c0.582,0,1.095,0.345,1.289,0.888C13.237,15.827,13.269,15.995,13.269,16.167z M14.223,13.329c-0.003,0.004-0.006,0.007-0.009,0.011
	c-0.042,0.004-0.09,0.001-0.134,0.001c-0.722,0-1.312-0.59-1.312-1.312V5.902c0-0.723,0.602-1.308,1.324-1.308
	c0.723,0,1.324,0.586,1.324,1.308v6.126c0,0.186-0.052,0.363-0.122,0.525c-0.006,0.001-0.011,0.004-0.016,0.006
	C15.093,12.977,14.697,13.28,14.223,13.329z"/>
</svg>
