<?xml version="1.0" encoding="utf-8"?>
<!-- Generator: Adobe Illustrator 16.0.4, SVG Export Plug-In . SVG Version: 6.00 Build 0)  -->
<!DOCTYPE svg PUBLIC "-//W3C//DTD SVG 1.1//EN" "http://www.w3.org/Graphics/SVG/1.1/DTD/svg11.dtd">
<svg version="1.1" id="Layer_1" xmlns="http://www.w3.org/2000/svg" xmlns:xlink="http://www.w3.org/1999/xlink" x="0px" y="0px"
	 width="32px" height="32px" viewBox="0 0 32 32" enable-background="new 0 0 32 32" xml:space="preserve">
<path d="M30.559,11.442c0.422,0,0.805,0.054,1.232,0.156v-5.62c0-1.347-1.092-2.439-2.439-2.439h-5.467
	c0.098,0.429,0.15,0.78,0.15,1.178c0,2.552-2.121,4.633-4.737,4.633s-4.736-2.087-4.736-4.637c0-0.4,0.052-0.745,0.149-1.174H9.302
	c-0.642,0-1.258,0.256-1.711,0.71C7.138,4.704,6.884,5.321,6.887,5.962C6.895,8.43,6.893,11.89,6.82,11.858
	c-0.598-0.267-1.262-0.416-1.962-0.416c-2.616,0-4.736,2.068-4.736,4.62s2.121,4.622,4.736,4.622c0.7,0,1.364-0.149,1.962-0.416
	c0.067-0.031,0.07,3.418,0.064,5.885c-0.001,0.648,0.255,1.271,0.712,1.729c0.457,0.458,1.079,0.716,1.727,0.716h5.387
	c-0.097-0.429-0.149-0.787-0.149-1.185c0-2.552,2.121-4.636,4.736-4.636c2.617,0,4.737,2.091,4.737,4.644
	c0,0.399-0.052,0.748-0.15,1.177h5.468c1.348,0,2.438-1.093,2.438-2.438v-5.634c-0.427,0.102-0.81,0.156-1.233,0.156
	c-2.615,0-4.744-2.067-4.744-4.621C25.812,13.511,27.943,11.442,30.559,11.442z"/>
</svg>
