<?xml version="1.0" encoding="utf-8"?>
<!-- Generator: Adobe Illustrator 16.0.4, SVG Export Plug-In . SVG Version: 6.00 Build 0)  -->
<!DOCTYPE svg PUBLIC "-//W3C//DTD SVG 1.1//EN" "http://www.w3.org/Graphics/SVG/1.1/DTD/svg11.dtd">
<svg version="1.1" id="Layer_1" xmlns="http://www.w3.org/2000/svg" xmlns:xlink="http://www.w3.org/1999/xlink" x="0px" y="0px"
	 width="32px" height="32px" viewBox="0 0 32 32" enable-background="new 0 0 32 32" xml:space="preserve">
<path d="M26.305,3.379H5.851C2.823,3.345,0.21,5.728,0.176,8.755v11.054c-0.036,3.027,2.391,5.512,5.42,5.545l13.664,0.16
	l7.405,3.787c0.47,0.24,1.037,0.192,1.461-0.121c0.423-0.312,0.632-0.828,0.537-1.347l-0.397-2.185h0.002
	c1.789,0,3.408-2.517,3.432-4.303V9.172C31.732,6.143,29.332,3.414,26.305,3.379z M15.53,20.964c-0.999,0-1.676-0.731-1.676-1.711
	c0-0.998,0.698-1.715,1.676-1.715c1.014,0,1.674,0.717,1.695,1.715C17.227,20.23,16.544,20.964,15.53,20.964z M17.794,13.961
	c-0.696,0.772-0.974,1.507-0.974,2.356v0.353h-2.479l-0.018-0.498c-0.058-0.962,0.263-1.942,1.109-2.958
	c0.603-0.716,1.09-1.32,1.09-1.963c0-0.658-0.433-1.09-1.374-1.128c-0.621,0-1.373,0.224-1.863,0.563l-0.641-2.053
	c0.678-0.393,1.808-0.772,3.145-0.772c2.484,0,3.607,1.375,3.607,2.936C19.4,12.23,18.51,13.172,17.794,13.961z"/>
</svg>
