<?xml version="1.0" encoding="utf-8"?>
<!-- Generator: Adobe Illustrator 16.0.4, SVG Export Plug-In . SVG Version: 6.00 Build 0)  -->
<!DOCTYPE svg PUBLIC "-//W3C//DTD SVG 1.1//EN" "http://www.w3.org/Graphics/SVG/1.1/DTD/svg11.dtd">
<svg version="1.1" id="Layer_1" xmlns="http://www.w3.org/2000/svg" xmlns:xlink="http://www.w3.org/1999/xlink" x="0px" y="0px"
	 width="32px" height="32px" viewBox="0 0 32 32" enable-background="new 0 0 32 32" xml:space="preserve">
<path d="M28.166,8.317c-2.1,0-3.803,1.702-3.803,3.801c0,0.252,0.025,0.499,0.074,0.738l-4.806,4.328
	c-0.407-0.15-0.849-0.232-1.312-0.232c-0.176,0-0.35,0.013-0.52,0.033l-2.726-3.641c0.131-0.385,0.201-0.798,0.201-1.227
	c0-2.1-1.702-3.801-3.8-3.801s-3.8,1.702-3.8,3.801c0,0.485,0.089,0.948,0.256,1.375l-3.128,3.572
	c-0.299-0.075-0.609-0.114-0.93-0.114c-2.098,0-3.801,1.702-3.801,3.802s1.703,3.801,3.801,3.801c2.1,0,3.802-1.701,3.802-3.801
	c0-0.32-0.04-0.63-0.114-0.926l3.446-3.936c0.153,0.019,0.31,0.029,0.468,0.029c0.213,0,0.421-0.018,0.623-0.051l2.66,3.552
	c-0.156,0.414-0.24,0.863-0.24,1.332c0,2.1,1.702,3.801,3.799,3.801c2.101,0,3.801-1.701,3.801-3.801
	c0-0.184-0.012-0.363-0.037-0.54l4.955-4.462c0.355,0.11,0.732,0.169,1.125,0.169c2.098,0,3.801-1.702,3.801-3.801
	C31.965,10.019,30.264,8.317,28.166,8.317z"/>
</svg>
