<?xml version="1.0" encoding="utf-8"?>
<!-- Generator: Adobe Illustrator 16.0.4, SVG Export Plug-In . SVG Version: 6.00 Build 0)  -->
<!DOCTYPE svg PUBLIC "-//W3C//DTD SVG 1.1//EN" "http://www.w3.org/Graphics/SVG/1.1/DTD/svg11.dtd">
<svg version="1.1" id="Layer_1" xmlns="http://www.w3.org/2000/svg" xmlns:xlink="http://www.w3.org/1999/xlink" x="0px" y="0px"
	 width="32px" height="32px" viewBox="0 0 32 32" enable-background="new 0 0 32 32" xml:space="preserve">
<g>
	<path d="M28.273,3.504c0-1.909-1.491-3.372-3.399-3.372H8.197c-1.909,0-3.513,1.463-3.513,3.372v24.823
		c0,1.909,1.604,3.541,3.513,3.541h16.677c1.909,0,3.399-1.632,3.399-3.541V3.504z M12.441,6.581h2.935V4.477
		c0-0.671,0.517-1.216,1.187-1.216c0.672,0,1.189,0.545,1.189,1.216v2.104h2.885c0.672,0,1.217,0.6,1.217,1.273
		c0,0.672-0.545,1.274-1.217,1.274h-2.885v7.351c0,0.673-0.518,1.218-1.189,1.218c-0.669,0-1.187-0.545-1.187-1.218V9.128h-2.935
		c-0.672,0-1.217-0.602-1.217-1.274C11.225,7.181,11.769,6.581,12.441,6.581z M25.898,28.145c0,0.651-0.527,1.18-1.178,1.18H8.407
		c-0.65,0-1.178-0.526-1.178-1.18v-1.207c0-0.649,0.528-1.179,1.178-1.179h16.313c0.649,0,1.178,0.527,1.178,1.179V28.145z"/>
</g>
</svg>
