<?xml version="1.0" encoding="utf-8"?>
<!-- Generator: Adobe Illustrator 16.0.4, SVG Export Plug-In . SVG Version: 6.00 Build 0)  -->
<!DOCTYPE svg PUBLIC "-//W3C//DTD SVG 1.1//EN" "http://www.w3.org/Graphics/SVG/1.1/DTD/svg11.dtd">
<svg version="1.1" id="Layer_1" xmlns="http://www.w3.org/2000/svg" xmlns:xlink="http://www.w3.org/1999/xlink" x="0px" y="0px"
	 width="32px" height="32px" viewBox="0 0 32 32" enable-background="new 0 0 32 32" xml:space="preserve">
<g>
	<path d="M6.422,30.176c0.156,0.42,0.54,0.713,0.986,0.752c0.446,0.04,0.876-0.18,1.105-0.566c0.676-1.144,1.726-2.43,3.231-3.03
		c-1.354-2.993-2.159-5.658-2.635-7.826C7.318,20.82,4.174,24.137,6.422,30.176z"/>
	<path d="M22.913,19.523c-0.478,2.164-1.281,4.826-2.636,7.814c1.494,0.604,2.537,1.885,3.211,3.023
		c0.228,0.387,0.658,0.605,1.104,0.566c0.446-0.041,0.829-0.334,0.985-0.754C27.814,24.164,24.705,20.852,22.913,19.523z"/>
	<path d="M22.383,13.636c0.067-6.654-3.566-11.104-5.422-12.941C16.68,0.418,16.3,0.264,15.904,0.267
		c-0.394,0.004-0.771,0.165-1.047,0.448c-1.799,1.847-5.284,6.291-5.218,12.92c0,0-0.332,6.123,3.832,14.533h2.497h0.086h2.498
		C22.714,19.759,22.383,13.636,22.383,13.636z M14.349,8.276c-0.061,0.1-1.148,1.951-0.695,4.878
		c0.101,0.658-0.351,1.273-1.009,1.375c-0.061,0.009-0.122,0.014-0.184,0.014c-0.584,0-1.097-0.425-1.189-1.02
		c-0.6-3.88,0.969-6.42,1.035-6.526c0.356-0.562,1.101-0.73,1.663-0.375C14.528,6.975,14.699,7.715,14.349,8.276z M15.407,2.596
		c0.74,0,1.342,0.6,1.342,1.342s-0.602,1.343-1.342,1.343c-0.743,0-1.344-0.601-1.344-1.343S14.664,2.596,15.407,2.596z"/>
	<rect x="12.429" y="29.598" width="7.254" height="2.198"/>
</g>
</svg>
