<?xml version="1.0" encoding="utf-8"?>
<!-- Generator: Adobe Illustrator 16.0.4, SVG Export Plug-In . SVG Version: 6.00 Build 0)  -->
<!DOCTYPE svg PUBLIC "-//W3C//DTD SVG 1.1//EN" "http://www.w3.org/Graphics/SVG/1.1/DTD/svg11.dtd">
<svg version="1.1" id="Layer_1" xmlns="http://www.w3.org/2000/svg" xmlns:xlink="http://www.w3.org/1999/xlink" x="0px" y="0px"
	 width="32px" height="32px" viewBox="0 0 32 32" enable-background="new 0 0 32 32" xml:space="preserve">
<g>
	<path d="M31.602,8.147l-7.449-7.724c-0.375-0.388-1.002-0.41-1.391-0.036L0.292,22.061c-0.387,0.375-0.387,1.004-0.014,1.393
		l7.451,7.723c0.374,0.391,1.002,0.413,1.39,0.037L31.59,9.539C31.977,9.164,31.979,8.536,31.602,8.147z M9.336,28.279
		c-0.23,0.223-0.539,0.345-0.859,0.339c-0.32-0.007-0.624-0.14-0.846-0.369l-4.432-4.595c-0.462-0.479-0.449-1.243,0.03-1.705
		l2.039,2.113c0.28,0.291,0.741,0.299,1.032,0.021c0.291-0.281,0.297-0.741,0.016-1.034l-2.037-2.111l0.543-0.523l2.037,2.111
		c0.28,0.291,0.742,0.302,1.033,0.021c0.291-0.279,0.296-0.738,0.016-1.031l-2.037-2.111l0.542-0.523l2.038,2.112
		c0.28,0.29,0.742,0.3,1.032,0.021c0.291-0.281,0.297-0.74,0.016-1.033l-2.037-2.11l0.542-0.522l2.038,2.112
		c0.281,0.291,0.742,0.3,1.033,0.021c0.29-0.281,0.297-0.742,0.016-1.033l-2.037-2.111l0.543-0.523l3.393,3.516
		c0.28,0.292,0.741,0.301,1.033,0.022c0.291-0.281,0.297-0.742,0.016-1.033l-3.392-3.518l0.542-0.524l2.038,2.112
		c0.281,0.291,0.741,0.302,1.032,0.021s0.297-0.742,0.017-1.032l-2.038-2.112l0.543-0.523l2.038,2.112
		c0.281,0.29,0.742,0.301,1.033,0.021c0.291-0.28,0.296-0.742,0.016-1.033l-2.037-2.113l0.542-0.523l2.037,2.112
		c0.279,0.291,0.742,0.301,1.033,0.021c0.291-0.281,0.295-0.742,0.016-1.033l-2.037-2.112l0.542-0.523L18,11.781
		c0.281,0.29,0.741,0.301,1.032,0.02c0.291-0.28,0.297-0.741,0.018-1.033l-2.038-2.112l0.543-0.523l3.391,3.517
		c0.281,0.291,0.761,0.284,1.053,0.004c0.291-0.282,0.314-0.76,0.035-1.05l-3.395-3.517l3.907-3.769
		c0.229-0.222,0.539-0.344,0.858-0.338c0.32,0.006,0.625,0.138,0.847,0.369l4.433,4.594c0.221,0.23,0.344,0.539,0.338,0.859
		c-0.006,0.32-0.139,0.624-0.369,0.846L9.336,28.279z"/>
	<path d="M22.35,9.293c0.938,0.972,2.491,1,3.463,0.062c0.975-0.938,1-2.492,0.062-3.464c-0.938-0.972-2.491-1-3.463-0.062
		C21.439,6.767,21.412,8.322,22.35,9.293z M23.428,6.883c0.391-0.377,1.018-0.365,1.396,0.025C25.2,7.3,25.188,7.925,24.798,8.303
		c-0.394,0.377-1.019,0.366-1.396-0.025C23.025,7.886,23.037,7.26,23.428,6.883z"/>
</g>
</svg>
