<?xml version="1.0" encoding="utf-8"?>
<!-- Generator: Adobe Illustrator 16.0.4, SVG Export Plug-In . SVG Version: 6.00 Build 0)  -->
<!DOCTYPE svg PUBLIC "-//W3C//DTD SVG 1.1//EN" "http://www.w3.org/Graphics/SVG/1.1/DTD/svg11.dtd">
<svg version="1.1" id="Layer_1" xmlns="http://www.w3.org/2000/svg" xmlns:xlink="http://www.w3.org/1999/xlink" x="0px" y="0px"
	 width="32px" height="32px" viewBox="0 0 32 32" enable-background="new 0 0 32 32" xml:space="preserve">
<g>
	<path d="M8.044,21.182c1.878,2.264,4.715,3.709,7.887,3.709s6.008-1.445,7.885-3.709c-2.324,0.498-5.018,0.782-7.885,0.782
		C13.061,21.964,10.37,21.68,8.044,21.182z"/>
	<path d="M26.258,10.298c0.176,0.413,0.328,0.837,0.453,1.273c1.077,0.419,1.706,0.904,1.706,1.424c0,0.604-0.833,1.161-2.252,1.619
		C26.143,8.981,21.568,4.421,15.931,4.421c-5.639,0-10.212,4.56-10.234,10.194c-1.42-0.459-2.253-1.017-2.253-1.62
		c0-0.519,0.63-1.006,1.706-1.424c0.126-0.436,0.279-0.86,0.454-1.274c-3.428,1.051-5.606,2.613-5.606,4.359
		c0,0.227,0.036,0.45,0.107,0.669c0.921,2.85,7.656,5.06,15.826,5.06c8.168,0,14.905-2.21,15.828-5.06
		c0.069-0.22,0.106-0.442,0.106-0.669C31.863,12.91,29.686,11.349,26.258,10.298z"/>
</g>
</svg>
