<?xml version="1.0" encoding="utf-8"?>
<!-- Generator: Adobe Illustrator 16.0.4, SVG Export Plug-In . SVG Version: 6.00 Build 0)  -->
<!DOCTYPE svg PUBLIC "-//W3C//DTD SVG 1.1//EN" "http://www.w3.org/Graphics/SVG/1.1/DTD/svg11.dtd">
<svg version="1.1" id="Layer_1" xmlns="http://www.w3.org/2000/svg" xmlns:xlink="http://www.w3.org/1999/xlink" x="0px" y="0px"
	 width="32px" height="32px" viewBox="0 0 32 32" enable-background="new 0 0 32 32" xml:space="preserve">
<path d="M21.971,8.488c0,2.736,2.238,4.882,4.998,4.882c2.762,0,5-2.11,5-4.847c0-0.127-0.027-0.264-0.037-0.264l-0.328,0.017
	l-3.972-4.688c-0.389-0.46-1.021-0.632-1.589-0.435L19.191,5.53c-0.646-0.864-1.68-1.423-2.839-1.423
	c-1.954,0-3.541,1.584-3.541,3.538c0,0.031,0.002,0.062,0.003,0.094L5.882,10.14c-0.579,0.2-1.092,0.554-1.486,1.023L0.4,15.924
	H0.038C0.028,15.923,0,16.004,0,16.13c0,2.736,2.238,4.873,4.999,4.873c2.76,0,4.998-2.096,4.998-4.832
	c0-0.128-0.027-0.249-0.038-0.249H9.623l-3.141-3.735l7.008-2.426c0.2,0.264,0.441,0.502,0.723,0.702v14.809H7.506
	c-1.173,0-2.125,0.951-2.125,2.125V28h21.947v-0.604c0-1.172-0.951-2.125-2.125-2.125h-6.706V10.464
	c0.778-0.646,1.396-1.668,1.396-2.82c0-0.033-0.002-0.065-0.002-0.098l4.396-1.522l-1.923,2.253L22.009,8.26
	C21.999,8.26,21.971,8.361,21.971,8.488z M3.179,15.923l1.833-2.173l1.834,2.173H3.179z M26.982,6.088l1.834,2.172H25.15
	L26.982,6.088z"/>
</svg>
