<?xml version="1.0" encoding="utf-8"?>
<!-- Generator: Adobe Illustrator 16.0.4, SVG Export Plug-In . SVG Version: 6.00 Build 0)  -->
<!DOCTYPE svg PUBLIC "-//W3C//DTD SVG 1.1//EN" "http://www.w3.org/Graphics/SVG/1.1/DTD/svg11.dtd">
<svg version="1.1" id="Layer_1" xmlns="http://www.w3.org/2000/svg" xmlns:xlink="http://www.w3.org/1999/xlink" x="0px" y="0px"
	 width="32px" height="32px" viewBox="0 0 32 32" enable-background="new 0 0 32 32" xml:space="preserve">
<path d="M30.762,26.668V13.769L17.55,8.22V5.703h1.28V6.85h4.518V2.873h-2.293V1.727H17.55v-0.01c0-0.629-0.521-1.137-1.146-1.137
	c-0.627,0-1.147,0.508-1.147,1.137V8.1l-14.02,5.669v12.899H0.091v3.438h13.482v-8.494h5.661v8.494h12.674v-3.438H30.762z
	 M7.776,21.611h3.101v3.035H7.776V21.611z M2.856,21.611h3.167v3.035H2.856V21.611z M15.998,17.061
	c-1.228,0-2.226-0.997-2.226-2.228c0-1.229,0.997-2.225,2.226-2.225c1.23,0,2.227,0.995,2.227,2.225S17.229,17.061,15.998,17.061z
	 M26.246,21.611h3.168v3.035h-3.168V21.611z M21.325,21.611h3.169v3.035h-3.169V21.611z"/>
</svg>
