<?xml version="1.0" encoding="utf-8"?>
<!-- Generator: Adobe Illustrator 16.0.4, SVG Export Plug-In . SVG Version: 6.00 Build 0)  -->
<!DOCTYPE svg PUBLIC "-//W3C//DTD SVG 1.1//EN" "http://www.w3.org/Graphics/SVG/1.1/DTD/svg11.dtd">
<svg version="1.1" id="Layer_1" xmlns="http://www.w3.org/2000/svg" xmlns:xlink="http://www.w3.org/1999/xlink" x="0px" y="0px"
	 width="32px" height="32px" viewBox="0 0 32 32" enable-background="new 0 0 32 32" xml:space="preserve">
<g>
	<path d="M30.178,7.793h-3.111c-1.067,0-1.937,0.867-1.937,1.936v1.246c0,1.069,0.867,1.937,1.937,1.937h0.588v6.163l-6.312,7.138
		v-4.472c-2.505,2.36-5.877,3.812-9.582,3.812c-3.661,0-6.995-1.414-9.49-3.725v8.308c0,0.982,0.796,1.778,1.778,1.778h15.518
		c0.981,0,1.777-0.796,1.777-1.778v-0.089l8.836-10.01V7.793H30.178z"/>
	<path d="M11.76,23.014c6.307,0,11.438-5.131,11.438-11.438c0-6.306-5.132-11.437-11.438-11.437
		c-6.308,0-11.438,5.131-11.438,11.437C0.322,17.883,5.452,23.014,11.76,23.014z M10.816,2.242c0.688,0,1.245,0.557,1.245,1.244
		s-0.558,1.243-1.245,1.243c-0.686,0-1.243-0.557-1.243-1.243C9.573,2.799,10.13,2.242,10.816,2.242z M11.76,8.677
		c1.517,0,2.747,1.229,2.747,2.748c0,1.517-1.23,2.746-2.747,2.746c-1.517,0-2.749-1.229-2.749-2.746
		C9.011,9.906,10.243,8.677,11.76,8.677z M2.394,11.312c-0.398-5.032,3.887-7.37,4.07-7.467C7.083,3.514,7.85,3.75,8.181,4.372
		c0.329,0.617,0.096,1.383-0.52,1.713C7.525,6.16,4.662,7.772,4.926,11.111c0.055,0.7-0.466,1.311-1.165,1.366
		c-0.034,0.002-0.069,0.003-0.102,0.003C3.002,12.481,2.447,11.977,2.394,11.312z"/>
	<circle cx="11.76" cy="11.424" r="1.773"/>
</g>
</svg>
