<?xml version="1.0" encoding="utf-8"?>
<!-- Generator: Adobe Illustrator 16.0.4, SVG Export Plug-In . SVG Version: 6.00 Build 0)  -->
<!DOCTYPE svg PUBLIC "-//W3C//DTD SVG 1.1//EN" "http://www.w3.org/Graphics/SVG/1.1/DTD/svg11.dtd">
<svg version="1.1" id="Layer_1" xmlns="http://www.w3.org/2000/svg" xmlns:xlink="http://www.w3.org/1999/xlink" x="0px" y="0px"
	 width="32px" height="32px" viewBox="0 0 32 32" enable-background="new 0 0 32 32" xml:space="preserve">
<g>
	<path d="M29.732,8.33c1.164,0,2.113-1.079,2.117-2.247c0.004-1.169-0.941-2.255-2.111-2.259L14.721,4.062c-0.003,0-0.004,0-0.007,0
		c-0.977,0-1.828,0.385-2.058,1.335L8.914,20.545l-4.846-7.428c-0.639-0.979-1.952-1.255-2.929-0.617
		c-0.979,0.639-1.255,1.951-0.616,2.93l7.521,11.53c0.394,0.606,1.065,0.961,1.773,0.961c0.119,0,0.238,0.06,0.358,0.039
		c0.833-0.144,1.499-0.698,1.7-1.519l4.394-17.984L29.725,8.33C29.729,8.33,29.729,8.33,29.732,8.33z"/>
	<path d="M29.127,9.475H25.07l-8.438,10.042v3.803h8.435v3.123h4.06V23.32h2.082v-3.592h-2.082L29.127,9.475L29.127,9.475z
		 M25.066,19.729h-4.453l4.453-5.238V19.729z"/>
</g>
</svg>
