<?xml version="1.0" encoding="utf-8"?>
<!-- Generator: Adobe Illustrator 16.0.4, SVG Export Plug-In . SVG Version: 6.00 Build 0)  -->
<!DOCTYPE svg PUBLIC "-//W3C//DTD SVG 1.1//EN" "http://www.w3.org/Graphics/SVG/1.1/DTD/svg11.dtd">
<svg version="1.1" id="Layer_1" xmlns="http://www.w3.org/2000/svg" xmlns:xlink="http://www.w3.org/1999/xlink" x="0px" y="0px"
	 width="32px" height="32px" viewBox="0 0 32 32" enable-background="new 0 0 32 32" xml:space="preserve">
<g>
	<path d="M11.695,17.552c-3.326-0.603-4.16-3.815-4.196-3.963c-0.164-0.686-0.846-1.105-1.538-0.949
		c-0.688,0.161-1.116,0.851-0.956,1.539c0.048,0.203,1.223,4.986,6.232,5.895c0.079,0.014,0.155,0.02,0.23,0.02
		c0.608,0,1.148-0.434,1.26-1.053C12.854,18.346,12.391,17.68,11.695,17.552z"/>
	<path d="M26.509,21.072c-0.36-0.36-0.849-0.562-1.358-0.562c-0.508,0-0.998,0.202-1.356,0.563l-1.33-1.33
		c3.546-4.856,3.129-11.724-1.254-16.106c-2.347-2.348-5.467-3.64-8.785-3.64c-3.319,0-6.439,1.292-8.785,3.64
		C1.291,5.983,0,9.103,0,12.422c-0.001,3.318,1.291,6.439,3.639,8.785c2.346,2.348,5.466,3.641,8.785,3.641
		c2.67,0,5.209-0.838,7.322-2.386l1.329,1.328c-0.361,0.36-0.563,0.849-0.563,1.358c0,0.509,0.202,0.998,0.563,1.358l4.89,4.892
		c0.801,0.8,2.098,0.8,2.898,0l2.537-2.537c0.8-0.801,0.8-2.098,0-2.898L26.509,21.072z M12.424,21.003
		c-2.291,0-4.448-0.894-6.067-2.514c-1.62-1.62-2.513-3.775-2.513-6.067s0.893-4.448,2.513-6.069
		c1.619-1.619,3.776-2.513,6.067-2.513s4.447,0.894,6.067,2.513c3.345,3.347,3.345,8.79,0,12.136
		C16.871,20.109,14.716,21.003,12.424,21.003z"/>
	<circle cx="6.519" cy="10.048" r="1.255"/>
</g>
</svg>
