<?xml version="1.0" encoding="utf-8"?>
<!-- Generator: Adobe Illustrator 16.0.4, SVG Export Plug-In . SVG Version: 6.00 Build 0)  -->
<!DOCTYPE svg PUBLIC "-//W3C//DTD SVG 1.1//EN" "http://www.w3.org/Graphics/SVG/1.1/DTD/svg11.dtd">
<svg version="1.1" id="Layer_1" xmlns="http://www.w3.org/2000/svg" xmlns:xlink="http://www.w3.org/1999/xlink" x="0px" y="0px"
	 width="32px" height="32px" viewBox="0 0 32 32" enable-background="new 0 0 32 32" xml:space="preserve">
<g>
	<path d="M16.247,11.162c-2.904,0-5.37,2.182-5.737,5.075c-0.036,0.289,0.053,0.574,0.244,0.791c0.192,0.22,0.469,0.34,0.758,0.34
		h9.468c0.289,0,0.564-0.12,0.758-0.34c0.193-0.217,0.281-0.506,0.244-0.792C21.616,13.342,19.148,11.162,16.247,11.162z
		 M12.846,15.315c0.608-1.296,1.917-2.169,3.401-2.169c1.483,0,2.791,0.874,3.399,2.169H12.846z"/>
	<path d="M30.682,15.315h-2.423c-0.792-5.939-5.896-10.52-12.012-10.52c-6.118,0-11.221,4.581-12.014,10.52H1.365
		c-0.559,0-1.053,0.492-1.053,1.05v8.087c0,0.559,0.494,1.013,1.053,1.013H5.28l0,0h1.188l0,0H9.6l0,0h0.864l0,0h3.131l0,0h0.864
		l0,0h3.132l0,0h0.864l0,0h3.131l0,0h0.864l0,0h3.132l0,0h1.188l0,0h3.914c0.561,0,1.053-0.454,1.053-1.013v-8.087
		C31.734,15.806,31.24,15.315,30.682,15.315z M29.682,23.413l-3.119,0.009l-0.002-1.953h-0.98v1.944h-3.132v-1.944h-0.864v1.944
		h-3.131v-1.944h-0.864v1.944h-3.132v-1.944h-0.864v1.944h-3.131v-1.944H9.599v1.944H6.467v-1.944H5.49l-0.027,1.944H2.364v-6.047
		h2.789c0.537,0,0.981-0.415,1.01-0.952c0.014-0.266,0.039-0.527,0.074-0.788l1.87,0.247c0.007-0.05,0.052-0.329,0.161-0.748
		l-1.851-0.486c0.234-0.995,0.614-1.932,1.116-2.788l1.67,0.915c0.128-0.234,0.271-0.472,0.429-0.708L8.08,11.016
		c0.584-0.802,1.283-1.514,2.072-2.112l1.098,1.38c0.201-0.158,0.414-0.311,0.641-0.453l-0.93-1.482
		c0.828-0.509,1.734-0.902,2.695-1.156l0.427,1.72c0.259-0.065,0.529-0.119,0.81-0.162l-0.272-1.764
		c0.53-0.086,1.071-0.131,1.624-0.131c0.45,0,0.892,0.031,1.327,0.088l-0.209,1.745c0.269,0.033,0.529,0.078,0.777,0.135
		l0.395-1.706c0.97,0.226,1.888,0.592,2.73,1.075l-0.992,1.534c0.223,0.145,0.435,0.3,0.636,0.464l1.192-1.462
		c0.821,0.587,1.553,1.295,2.168,2.098l-1.697,1.186c0.168,0.24,0.322,0.483,0.464,0.721l1.81-1.07
		c0.526,0.856,0.93,1.798,1.184,2.801l-1.896,0.655c0.128,0.371,0.208,0.657,0.25,0.819l1.849-0.479
		c0.047,0.315,0.08,0.63,0.098,0.953c0.027,0.537,0.472,0.952,1.009,0.952h2.343V23.413L29.682,23.413z"/>
</g>
</svg>
