<?xml version="1.0" encoding="utf-8"?>
<!-- Generator: Adobe Illustrator 16.0.4, SVG Export Plug-In . SVG Version: 6.00 Build 0)  -->
<!DOCTYPE svg PUBLIC "-//W3C//DTD SVG 1.1//EN" "http://www.w3.org/Graphics/SVG/1.1/DTD/svg11.dtd">
<svg version="1.1" id="Layer_1" xmlns="http://www.w3.org/2000/svg" xmlns:xlink="http://www.w3.org/1999/xlink" x="0px" y="0px"
	 width="32px" height="32px" viewBox="0 0 32 32" enable-background="new 0 0 32 32" xml:space="preserve">
<path d="M15.945,0.057c-8.729,0-15.827,7.099-15.827,15.828c0,8.727,7.099,15.825,15.827,15.825s15.827-7.099,15.827-15.825
	C31.771,7.155,24.673,0.057,15.945,0.057z M28.93,16.281l-0.85-1.091l0.396-2.733c0.299,1.094,0.459,2.239,0.459,3.428
	C28.936,16.018,28.934,16.149,28.93,16.281z M27.427,9.811l-0.745,5.139l-2.298,1.849l-7.04-2.053L16.293,9.82l4.27-4.039
	l5.822,2.383C26.77,8.685,27.12,9.234,27.427,9.811z M18.172,27.102l-4.807-1.209l-0.486-6.871l3.834-2.979l6.574,1.917l0.594,4.858
	L18.172,27.102z M18.82,3.215l0.688,1.608l-4.524,4.279H9.958L7.322,6.176c2.295-2.042,5.315-3.283,8.623-3.283
	C16.934,2.893,17.895,3.005,18.82,3.215z M6.312,7.177l2.674,2.968l-1.8,4.4l-4.227,1.701c-0.004-0.121-0.005-0.242-0.005-0.361
	C2.954,12.538,4.227,9.481,6.312,7.177z M3.085,17.725l4.393-1.768l3.986,3.159l0.46,6.517L9.13,26.939
	C5.922,24.954,3.639,21.613,3.085,17.725z M18.971,28.518v-0.242l6.281-4.711h1.163C24.622,26.001,22,27.792,18.971,28.518z"/>
</svg>
