<?xml version="1.0" encoding="utf-8"?>
<!-- Generator: Adobe Illustrator 16.0.4, SVG Export Plug-In . SVG Version: 6.00 Build 0)  -->
<!DOCTYPE svg PUBLIC "-//W3C//DTD SVG 1.1//EN" "http://www.w3.org/Graphics/SVG/1.1/DTD/svg11.dtd">
<svg version="1.1" id="Layer_1" xmlns="http://www.w3.org/2000/svg" xmlns:xlink="http://www.w3.org/1999/xlink" x="0px" y="0px"
	 width="32px" height="32px" viewBox="0 0 32 32" enable-background="new 0 0 32 32" xml:space="preserve">
<g>
	<path d="M0,31.868h7.942V20.671c0-1.506-1.221-2.728-2.728-2.728H2.727C1.221,17.943,0,19.165,0,20.671V31.868z"/>
	<path d="M11.966,31.868h7.942V12.213c0-1.506-1.221-2.728-2.727-2.728h-2.489c-1.507,0-2.728,1.221-2.728,2.728L11.966,31.868
		L11.966,31.868z"/>
	<path d="M26.656,0.255c-1.506,0-2.729,1.221-2.729,2.728V31.87h7.942V2.982c0-1.506-1.223-2.728-2.729-2.728L26.656,0.255
		L26.656,0.255z"/>
</g>
</svg>
