<?xml version="1.0" encoding="utf-8"?>
<!-- Generator: Adobe Illustrator 16.0.4, SVG Export Plug-In . SVG Version: 6.00 Build 0)  -->
<!DOCTYPE svg PUBLIC "-//W3C//DTD SVG 1.1//EN" "http://www.w3.org/Graphics/SVG/1.1/DTD/svg11.dtd">
<svg version="1.1" id="Layer_1" xmlns="http://www.w3.org/2000/svg" xmlns:xlink="http://www.w3.org/1999/xlink" x="0px" y="0px"
	 width="32px" height="32px" viewBox="0 0 32 32" enable-background="new 0 0 32 32" xml:space="preserve">
<g>
	<path d="M30.285,18.05c0-0.881-0.715-1.595-1.596-1.595H3.399c-0.881,0-1.595,0.714-1.595,1.595v1.013h1.968v10.57
		c0,1.307,1.06,2.366,2.365,2.366H26c1.307,0,2.365-1.06,2.365-2.366v-10.57h1.919L30.285,18.05L30.285,18.05z"/>
	<path d="M22.07,12.126h1.436c1.053,0,1.91-0.866,1.91-1.919V1.873c0-0.85-0.698-1.54-1.55-1.54c-0.851,0-1.55,0.69-1.55,1.54v7.154
		h-1.357c-0.373-0.246-0.818-0.393-1.297-0.393h-7.216c-1.335,0-2.428,1.102-2.428,2.437v3.81H22.07V12.126z"/>
	<circle cx="16.055" cy="3.796" r="3.462"/>
</g>
</svg>
