<?xml version="1.0" encoding="utf-8"?>
<!-- Generator: Adobe Illustrator 16.0.4, SVG Export Plug-In . SVG Version: 6.00 Build 0)  -->
<!DOCTYPE svg PUBLIC "-//W3C//DTD SVG 1.1//EN" "http://www.w3.org/Graphics/SVG/1.1/DTD/svg11.dtd">
<svg version="1.1" id="Layer_1" xmlns="http://www.w3.org/2000/svg" xmlns:xlink="http://www.w3.org/1999/xlink" x="0px" y="0px"
	 width="32px" height="32px" viewBox="0 0 32 32" enable-background="new 0 0 32 32" xml:space="preserve">
<g>
	<path d="M31.052,14.481c0-0.534-0.433-0.967-0.967-0.967H17.072v17.33c0,0.572,0.464,1.036,1.035,1.036h10.566
		c0.572,0,1.036-0.464,1.036-1.036V15.785h1.341L31.052,14.481L31.052,14.481z"/>
	<path d="M14.234,9.755c0-1.543-0.968-2.173-1.794-2.173H7.97c-0.827,0-1.886,0.63-1.886,2.173v10.672h9.337v-4.642h-1.187V9.755z"
		/>
	<ellipse cx="11.959" cy="3.237" rx="3.276" ry="3.238"/>
	<path d="M4.897,8.887c0-0.643-1.146-1.163-1.79-1.163c-0.642,0-1.667,0.52-1.667,1.163v14.997h13.981v-2.319H4.897V8.887z"/>
	<path d="M14.413,28.938c-0.097-3.332-3.421-4.244-5.19-4.244c-1.717,0-3.06,0.435-3.988,1.389
		c-1.209,1.243-1.206,2.684-1.201,2.857c-0.331,0.312-0.538,0.75-0.538,1.24c0,0.938,0.761,1.7,1.701,1.7c0.939,0,1.7-0.762,1.7-1.7
		c0-0.49-0.207-0.93-0.537-1.24c0.001-0.02,0.001-0.041,0-0.062c0-0.009,0.014-0.528,0.543-1.073
		c0.474-0.488,1.254-0.736,2.32-0.736c0.114,0,2.716,0.021,2.86,1.881c-0.327,0.309-0.531,0.746-0.531,1.23
		c0,0.939,0.761,1.701,1.701,1.701c0.939,0,1.699-0.762,1.699-1.701C14.952,29.689,14.745,29.249,14.413,28.938z"/>
</g>
</svg>
