<?xml version="1.0" encoding="utf-8"?>
<!-- Generator: Adobe Illustrator 16.0.4, SVG Export Plug-In . SVG Version: 6.00 Build 0)  -->
<!DOCTYPE svg PUBLIC "-//W3C//DTD SVG 1.1//EN" "http://www.w3.org/Graphics/SVG/1.1/DTD/svg11.dtd">
<svg version="1.1" id="Layer_1" xmlns="http://www.w3.org/2000/svg" xmlns:xlink="http://www.w3.org/1999/xlink" x="0px" y="0px"
	 width="32px" height="32px" viewBox="0 0 32 32" enable-background="new 0 0 32 32" xml:space="preserve">
<g>
	<ellipse cx="14" cy="8.07" rx="5.559" ry="5.447"/>
	<path d="M29.24,4.474C27.77,4.41,26.52,5.57,26.465,7.047c-0.135,3.576-0.973,6.051-2.424,7.158
		c-0.37,0.283-0.762,0.45-1.134,0.555c-0.985-0.821-2.24-1.26-3.112-1.26h-5.794H8.207c-2.144,0-3.883,2.254-3.883,4.621v7.204
		h19.146v-4.634c0.141-0.219,0.27-0.435,0.375-0.644c1.053-0.229,2.209-0.68,3.321-1.502c2.876-2.121,4.438-5.923,4.644-11.299
		C31.867,5.772,30.716,4.53,29.24,4.474z"/>
	<rect x="0.172" y="27.508" width="31.04" height="3.167"/>
</g>
</svg>
