<?xml version="1.0" encoding="utf-8"?>
<!-- Generator: Adobe Illustrator 16.0.4, SVG Export Plug-In . SVG Version: 6.00 Build 0)  -->
<!DOCTYPE svg PUBLIC "-//W3C//DTD SVG 1.1//EN" "http://www.w3.org/Graphics/SVG/1.1/DTD/svg11.dtd">
<svg version="1.1" id="Layer_1" xmlns="http://www.w3.org/2000/svg" xmlns:xlink="http://www.w3.org/1999/xlink" x="0px" y="0px"
	 width="32px" height="32px" viewBox="0 0 32 32" enable-background="new 0 0 32 32" xml:space="preserve">
<g>
	<path d="M23.977,18.348H8.066c-2.943,0-5.346,2.354-5.346,5.297v8.334h10.484l1.575-8.578c0.059-0.321,0.34-0.557,0.668-0.557
		l-1.46-2.486c-0.064-0.109-0.065-0.246-0.002-0.355c0.064-0.109,0.181-0.178,0.308-0.178h4.012c0.129,0,0.247,0.068,0.312,0.181
		c0.062,0.112,0.06,0.249-0.007,0.356l-1.512,2.484h0.006c0.323,0,0.604,0.229,0.666,0.547l1.713,8.586h9.801v-8.332
		C29.279,20.7,26.92,18.348,23.977,18.348z"/>
	<circle cx="16.021" cy="7.601" r="7.635"/>
</g>
</svg>
