<?xml version="1.0" encoding="utf-8"?>
<!-- Generator: Adobe Illustrator 16.0.4, SVG Export Plug-In . SVG Version: 6.00 Build 0)  -->
<!DOCTYPE svg PUBLIC "-//W3C//DTD SVG 1.1//EN" "http://www.w3.org/Graphics/SVG/1.1/DTD/svg11.dtd">
<svg version="1.1" id="Layer_1" xmlns="http://www.w3.org/2000/svg" xmlns:xlink="http://www.w3.org/1999/xlink" x="0px" y="0px"
	 width="32px" height="32px" viewBox="0 0 32 32" enable-background="new 0 0 32 32" xml:space="preserve">
<g>
	<path d="M10.148,12.257c3.595-1.193,6.812-0.585,6.812-0.585l0.011,0.937c0.016,1.514,0.43,1.652,0.43,1.652
		c0.979,0.765,1.867-0.053,1.867-0.053s6.262-4.61,6.426-4.731c0.164-0.122,1.133-0.723,1.136-2.299
		C26.831,5.6,25.5,4.848,25.5,4.848s-5.17-3.52-6.212-4.229c-1.044-0.71-1.63-0.267-1.63-0.267c-0.768,0.502-0.698,1.16-0.698,1.16
		v1.84c-5.81,1.193-9.875,4.722-9.875,4.722c-5.587,4.751-4.049,11.354-4.049,11.354s0.014,0.295,0.58,0.295
		c0.643,0,0.65-0.396,0.65-0.396C4.533,17.079,6.553,13.45,10.148,12.257z"/>
	<path d="M29.559,12.571c0,0-0.014-0.294-0.578-0.294c-0.645,0-0.65,0.396-0.65,0.396c-0.268,2.247-2.286,5.876-5.882,7.07
		c-3.597,1.192-6.812,0.584-6.812,0.584l-0.011-0.937c-0.015-1.517-0.428-1.652-0.428-1.652c-0.979-0.766-1.869,0.053-1.869,0.053
		s-6.261,4.611-6.425,4.732c-0.165,0.121-1.13,0.722-1.134,2.3c-0.004,1.575,1.327,2.329,1.327,2.329s5.168,3.519,6.211,4.229
		c1.043,0.711,1.63,0.268,1.63,0.268c0.767-0.504,0.698-1.157,0.698-1.157v-1.843c5.811-1.191,9.875-4.723,9.875-4.723
		C31.098,19.174,29.559,12.571,29.559,12.571z"/>
</g>
</svg>
