<?xml version="1.0" encoding="utf-8"?>
<!-- Generator: Adobe Illustrator 16.0.4, SVG Export Plug-In . SVG Version: 6.00 Build 0)  -->
<!DOCTYPE svg PUBLIC "-//W3C//DTD SVG 1.1//EN" "http://www.w3.org/Graphics/SVG/1.1/DTD/svg11.dtd">
<svg version="1.1" id="Layer_1" xmlns="http://www.w3.org/2000/svg" xmlns:xlink="http://www.w3.org/1999/xlink" x="0px" y="0px"
	 width="32px" height="32px" viewBox="0 0 32 32" enable-background="new 0 0 32 32" xml:space="preserve">
<path d="M31.296,19.986c-0.562-0.516-1.435-0.479-1.95,0.084l-2.453,2.674l-3.133-2.875l3.17-3.455
	c0.516-0.563,0.479-1.436-0.084-1.951l-0.31-0.283c-0.562-0.516-1.435-0.479-1.95,0.083L24.184,14.7L12.894,4.342
	c-0.309-0.281-0.74-0.388-1.142-0.273l-4.679,1.31L3.035,1.673C2.298,1,1.153,1.045,0.476,1.784C-0.2,2.52-0.15,3.666,0.587,4.343
	l4.087,3.749c0.018,0.017,0.04,0.022,0.06,0.036l-1.006,4.665c-0.091,0.419,0.049,0.854,0.364,1.144l11.289,10.356l-0.4,0.438
	c-0.516,0.562-0.478,1.437,0.084,1.951l0.31,0.283c0.27,0.248,0.627,0.378,0.993,0.362c0.364-0.017,0.71-0.177,0.958-0.446
	l3.169-3.454l3.133,2.875l-2.451,2.673c-0.247,0.271-0.378,0.627-0.362,0.992c0.018,0.365,0.179,0.71,0.447,0.958l0.209,0.192
	c0.562,0.516,1.438,0.479,1.951-0.084l8.17-8.903c0.248-0.271,0.379-0.627,0.362-0.993c-0.017-0.365-0.177-0.71-0.446-0.957
	L31.296,19.986z M7.236,7.973c0.044-0.048,0.06-0.108,0.096-0.159l4.425-1.238l10.688,9.805l-5.538,6.036l-2.741-2.515l1.953-2.129
	c0.225-0.244,0.21-0.627-0.037-0.853c-0.243-0.224-0.626-0.209-0.853,0.037l-1.952,2.128l-0.89-0.814l1.951-2.129
	c0.227-0.245,0.209-0.627-0.035-0.852c-0.243-0.224-0.625-0.209-0.852,0.037l-1.953,2.127l-0.89-0.815l1.952-2.128
	c0.226-0.245,0.21-0.627-0.037-0.852c-0.243-0.224-0.625-0.208-0.853,0.037l-1.951,2.128l-0.891-0.817l1.953-2.127
	c0.225-0.246,0.208-0.628-0.037-0.854c-0.243-0.224-0.626-0.208-0.852,0.037l-1.953,2.128l-1.704-1.564L7.236,7.973z"/>
</svg>
