<?xml version="1.0" encoding="utf-8"?>
<!-- Generator: Adobe Illustrator 16.0.4, SVG Export Plug-In . SVG Version: 6.00 Build 0)  -->
<!DOCTYPE svg PUBLIC "-//W3C//DTD SVG 1.1//EN" "http://www.w3.org/Graphics/SVG/1.1/DTD/svg11.dtd">
<svg version="1.1" id="Layer_1" xmlns="http://www.w3.org/2000/svg" xmlns:xlink="http://www.w3.org/1999/xlink" x="0px" y="0px"
	 width="32px" height="32px" viewBox="0 0 32 32" enable-background="new 0 0 32 32" xml:space="preserve">
<g>
	<path d="M25.882,1.983H12.894c-3.26,0-5.927,2.692-5.927,5.952V8.08l2.397,0.028V7.935c0-1.926,1.604-3.555,3.53-3.555h12.988
		c1.927,0,3.413,1.629,3.413,3.555v7c0,1.86-1.419,3.377-3.253,3.48l0.015,2.428c3.182-0.09,5.786-2.704,5.786-5.909v-7
		C31.843,4.675,29.143,1.983,25.882,1.983z"/>
	<path d="M20.118,10.051L4.333,9.869c-2.34-0.028-4.259,1.847-4.286,4.187l-0.098,8.508c-0.028,2.338,1.848,4.258,4.187,4.283
		l10.559,0.123l5.723,2.928c0.363,0.187,0.8,0.148,1.128-0.094c0.328-0.244,0.489-0.674,0.417-1.074l-0.309-1.724l0,0
		c1.383,0,2.516-1.069,2.531-2.452l0.119-10.219C24.333,11.996,22.458,10.077,20.118,10.051z M18.175,22.062H6.044
		c-0.669,0-1.213-0.528-1.213-1.198c0-0.671,0.543-1.199,1.213-1.199h12.131c0.671,0,1.214,0.528,1.214,1.199
		C19.389,21.534,18.846,22.062,18.175,22.062z M18.175,17.268H6.044c-0.669,0-1.213-0.527-1.213-1.199
		c0-0.671,0.543-1.199,1.213-1.199h12.131c0.671,0,1.214,0.528,1.214,1.199C19.389,16.74,18.846,17.268,18.175,17.268z"/>
</g>
</svg>
