<?xml version="1.0" encoding="utf-8"?>
<!-- Generator: Adobe Illustrator 16.0.4, SVG Export Plug-In . SVG Version: 6.00 Build 0)  -->
<!DOCTYPE svg PUBLIC "-//W3C//DTD SVG 1.1//EN" "http://www.w3.org/Graphics/SVG/1.1/DTD/svg11.dtd">
<svg version="1.1" id="Layer_1" xmlns="http://www.w3.org/2000/svg" xmlns:xlink="http://www.w3.org/1999/xlink" x="0px" y="0px"
	 width="32px" height="32px" viewBox="0 0 32 32" enable-background="new 0 0 32 32" xml:space="preserve">
<g>
	<path d="M27.805,20.604h-5.578h-5.578c-0.016,0-0.029,0-0.045,0c-1.764,0.027-3.435-0.818-4.454-2.26
		c-0.803-1.135-1.12-2.542-0.884-3.912c0.086-0.501,0.067-1.031-0.077-1.556c-0.189-0.69-0.567-1.279-1.058-1.718l0.024-0.008
		L9.051,7.122C8.908,6.601,8.37,6.295,7.849,6.437L7.168,6.624c-0.25,0.068-0.463,0.234-0.591,0.459
		C6.448,7.308,6.414,7.575,6.483,7.826l0.696,2.54c-0.05,0.011-0.1,0.023-0.15,0.037c-1.789,0.491-2.828,2.391-2.319,4.245
		c0.183,0.668,0.543,1.239,1.01,1.673c0.643,2.658,2.26,5.945,5.531,8.255c1.13,0.798,2.105,1.82,2.844,2.99
		c0.002,0.004,0.005,0.008,0.007,0.012l0.185,4.331h17.175v-6.906C31.463,22.723,29.868,20.604,27.805,20.604z"/>
	<ellipse cx="22.227" cy="15.324" rx="5.354" ry="5.244"/>
	<path d="M10.87,6.985c0,0.33,0.267,0.596,0.596,0.596h19.8c0.33,0,0.596-0.267,0.596-0.596V6.563c0-0.33-0.268-0.596-0.596-0.596
		H11.467c-0.33,0-0.596,0.267-0.596,0.596L10.87,6.985L10.87,6.985z"/>
	<path d="M0.927,1.424c-0.363,0-0.656,0.294-0.656,0.656v0.362c0,0.329,0.267,0.596,0.596,0.596h30.408
		c0.33,0,0.597-0.267,0.597-0.596V2.02c0-0.329-0.267-0.597-0.597-0.597L0.927,1.424L0.927,1.424z"/>
</g>
</svg>
