<?xml version="1.0" encoding="utf-8"?>
<!-- Generator: Adobe Illustrator 16.0.4, SVG Export Plug-In . SVG Version: 6.00 Build 0)  -->
<!DOCTYPE svg PUBLIC "-//W3C//DTD SVG 1.1//EN" "http://www.w3.org/Graphics/SVG/1.1/DTD/svg11.dtd">
<svg version="1.1" id="Layer_1" xmlns="http://www.w3.org/2000/svg" xmlns:xlink="http://www.w3.org/1999/xlink" x="0px" y="0px"
	 width="32px" height="32px" viewBox="0 0 32 32" enable-background="new 0 0 32 32" xml:space="preserve">
<g>
	<path d="M21.009,23.562h-9.782c-1.809,0-3.3,1.502-3.3,3.312v5.1h16.339v-5.1C24.268,25.064,22.816,23.562,21.009,23.562z"/>
	<circle cx="16.117" cy="17.008" r="4.696"/>
	<path d="M8.997,10.873c0-0.997-0.803-1.803-1.798-1.803h-5.38C0.824,9.071,0,9.877,0,10.873v2.817h8.997V10.873z"/>
	<circle cx="4.509" cy="5.446" r="2.583"/>
	<path d="M30.177,9.071h-5.38c-0.995,0-1.795,0.806-1.795,1.803v2.817h8.948v-2.817C31.95,9.877,31.172,9.071,30.177,9.071z"/>
	<circle cx="27.486" cy="5.446" r="2.583"/>
	<path d="M12.138,9.265h8.266c0.57,0,1.033-0.45,1.033-1.021c0-0.571-0.463-1.022-1.033-1.022h-8.266
		c-0.571,0-1.033,0.451-1.033,1.022C11.105,8.814,11.567,9.265,12.138,9.265z"/>
	<path d="M8.838,22.402c0.21,0,0.422-0.063,0.606-0.196c0.462-0.335,0.564-0.981,0.23-1.442l-3.77-5.205
		c-0.336-0.464-0.981-0.566-1.443-0.231c-0.463,0.335-0.565,0.981-0.23,1.443L8,21.977C8.203,22.255,8.519,22.402,8.838,22.402z"/>
	<path d="M26.945,15.426c-0.48-0.31-1.118-0.168-1.426,0.312l-3.252,5.075c-0.309,0.479-0.168,1.119,0.312,1.429
		c0.172,0.108,0.364,0.161,0.558,0.161c0.34,0,0.674-0.166,0.87-0.476l3.251-5.073C27.566,16.374,27.426,15.734,26.945,15.426z"/>
</g>
</svg>
