<?xml version="1.0" encoding="utf-8"?>
<!-- Generator: Adobe Illustrator 16.0.4, SVG Export Plug-In . SVG Version: 6.00 Build 0)  -->
<!DOCTYPE svg PUBLIC "-//W3C//DTD SVG 1.1//EN" "http://www.w3.org/Graphics/SVG/1.1/DTD/svg11.dtd">
<svg version="1.1" id="Layer_1" xmlns="http://www.w3.org/2000/svg" xmlns:xlink="http://www.w3.org/1999/xlink" x="0px" y="0px"
	 width="32px" height="32px" viewBox="0 0 32 32" enable-background="new 0 0 32 32" xml:space="preserve">
<g>
	<path d="M31.018,13.473c-0.043-0.016-2.787-1.014-2.787-1.014c0.056-1.386-0.444-2.539-1.379-2.924L8.75,2.832
		C8.399,1.679,7.673,0.791,6.637,0.408c-0.343-0.126-0.708-0.192-1.08-0.192c-1.916,0-3.816,1.66-4.727,4.129
		c-1.105,3.001-0.286,5.972,1.863,6.766c0.345,0.126,0.708,0.191,1.082,0.191c0.72,0,1.439-0.235,2.103-0.661l6.876,2.536
		c-0.102,0.441-0.153,0.899-0.153,1.368c0,1.895,0.858,3.59,2.207,4.719L9.715,29.284c-0.298,0.584-0.065,1.301,0.521,1.598
		c0.174,0.086,0.356,0.13,0.537,0.13c0.434,0,0.851-0.238,1.061-0.65l5.061-9.953c0.215,0.068,0.438,0.125,0.662,0.168
		c0,0.001,0,0.001,0.002,0.001v10.219c0,0.658,0.534,1.188,1.191,1.188s1.191-0.53,1.191-1.188v-10.22
		c-0.047,0.009-0.051,0.009-0.008,0c0.225-0.043,0.441-0.1,0.654-0.166l5.061,9.951c0.209,0.412,0.627,0.65,1.061,0.65
		c0.182,0,0.365-0.044,0.537-0.13c0.586-0.297,0.818-1.014,0.523-1.598l-5.093-10.021c0.634-0.527,1.157-1.179,1.537-1.918
		c0.907,0.17,1.933-0.381,2.726-1.386l2.826,1.003c0.61,0.197,1.381-0.395,1.727-1.337C31.848,14.664,31.633,13.7,31.018,13.473z
		 M6.269,6.351c-0.665,1.808-2.005,2.807-2.753,2.53C2.758,8.6,2.404,6.953,3.061,5.167c0.593-1.609,1.734-2.574,2.495-2.574
		c0.093,0,0.177,0.017,0.259,0.046C6.573,2.918,6.926,4.566,6.269,6.351z M10.347,7.536C9.73,7.31,9.412,6.628,9.637,6.012
		c0.226-0.619,0.908-0.935,1.525-0.709l10.109,3.693c0.619,0.225,0.937,0.907,0.711,1.523c-0.176,0.483-0.633,0.782-1.119,0.782
		C20.729,11.302,10.347,7.536,10.347,7.536z M22.573,15.968c-0.193,1.472-1.218,2.55-2.286,2.407
		c-1.069-0.141-1.777-1.447-1.585-2.918c0.192-1.469,1.216-2.546,2.286-2.405C22.059,13.19,22.768,14.499,22.573,15.968z"/>
</g>
</svg>
