<?xml version="1.0" encoding="utf-8"?>
<!-- Generator: Adobe Illustrator 16.0.4, SVG Export Plug-In . SVG Version: 6.00 Build 0)  -->
<!DOCTYPE svg PUBLIC "-//W3C//DTD SVG 1.1//EN" "http://www.w3.org/Graphics/SVG/1.1/DTD/svg11.dtd">
<svg version="1.1" id="Layer_1" xmlns="http://www.w3.org/2000/svg" xmlns:xlink="http://www.w3.org/1999/xlink" x="0px" y="0px"
	 width="32px" height="32px" viewBox="0 0 32 32" enable-background="new 0 0 32 32" xml:space="preserve">
<path d="M29.529,4.603c-2.682-3.219-10.242-5.491-16.628-3.67C5.942,2.919,2.568,7.369,2.327,15.324l-2.15,4.391
	c-0.12,0.244-0.127,0.528-0.022,0.779c0.105,0.25,0.314,0.443,0.572,0.529l1.498,0.496c-0.188,7.369-0.118,9.215,7.221,9.215
	c7.517,0,6.552-5.525,15.63-6.604C31.786,23.332,34.132,10.126,29.529,4.603z M25.693,18.05c-1.582,1.111-2.73,1.15-3.656,1.181
	c-0.991,0.035-1.773,0.062-3.12,1.478c-0.134,0.144-0.315,0.213-0.497,0.213c-0.17,0-0.34-0.062-0.473-0.188
	c-0.275-0.264-0.286-0.695-0.024-0.973c1.731-1.818,2.919-1.861,4.065-1.9c0.834-0.026,1.621-0.057,2.808-0.856
	c-0.955,0.129-2.01-0.131-3.051-0.896c-3.265-2.395-8.016-0.122-8.016-4.173c0-4.048,3.281-7.329,7.332-7.329
	c4.049,0,7.33,3.281,7.33,7.329c0,0.006,0,0.012,0,0.015C28.493,12.591,28.828,15.85,25.693,18.05z"/>
</svg>
