<?xml version="1.0" encoding="utf-8"?>
<!-- Generator: Adobe Illustrator 16.0.4, SVG Export Plug-In . SVG Version: 6.00 Build 0)  -->
<!DOCTYPE svg PUBLIC "-//W3C//DTD SVG 1.1//EN" "http://www.w3.org/Graphics/SVG/1.1/DTD/svg11.dtd">
<svg version="1.1" id="Layer_1" xmlns="http://www.w3.org/2000/svg" xmlns:xlink="http://www.w3.org/1999/xlink" x="0px" y="0px"
	 width="32px" height="32px" viewBox="0 0 32 32" enable-background="new 0 0 32 32" xml:space="preserve">
<g>
	<path d="M26.695,3.941H5.394c-2.86,0-5.179,2.311-5.179,5.171v10.189c0,2.86,2.318,5.137,5.179,5.137h13.043l7.916,5.644
		c0.239,0.168,0.521,0.271,0.805,0.271c0.219,0,0.451-0.045,0.652-0.149c0.463-0.239,0.77-0.708,0.77-1.228v-4.649
		c1.83-0.532,3.294-2.296,3.294-4.384V9.112C31.874,6.252,29.557,3.941,26.695,3.941z M29.129,19.938
		c0,0.978-0.818,1.754-1.796,1.754h-0.175c-0.768,0-1.323,0.641-1.323,1.406v3.186l-6.117-4.325
		c-0.235-0.166-0.55-0.267-0.837-0.267H5.394c-1.328,0-2.434-1.062-2.434-2.391V9.112c0-1.328,1.105-2.425,2.434-2.425h21.301
		c1.328,0,2.434,1.097,2.434,2.425V19.938z"/>
	<path d="M24.232,14.144c-0.109-0.439-0.283-0.874-0.51-1.251l0.838-0.85l-1.605-1.61l-0.838,0.837
		c-0.375-0.226-0.785-0.373-1.219-0.483c-0.004-0.002-0.012-1.171-0.012-1.171h-2.271l0.009,1.156
		c-0.445,0.096-0.873,0.275-1.258,0.507l-0.84-0.844l-1.605,1.602l0.838,0.837c-0.225,0.377-0.399,0.834-0.51,1.272
		c-0.003,0.002-0.003,0.045-0.003,0.045H14.12v2.197h1.125c-0.004,0-0.008-0.049-0.014-0.072c0.006,0.022,0.01,0.041,0.014,0.062
		c0.11,0.444,0.287,0.86,0.517,1.245l-0.84,0.838l1.605,1.604l0.84-0.838c0.385,0.23,0.812,0.431,1.258,0.541l-0.009,1.195h2.271
		c0,0,0.008-1.205,0.012-1.207c0.434-0.111,0.844-0.294,1.217-0.52l0.84,0.834l1.604-1.608l-0.838-0.84
		c0.229-0.384,0.406-0.798,0.518-1.241c0.005-0.021,0.005,0.007,0,0.007h1.23v-2.197h-1.234
		C24.234,14.189,24.234,14.146,24.232,14.144z M19.743,16.826c-0.872,0-1.581-0.709-1.581-1.584c0-0.872,0.709-1.58,1.581-1.58
		c0.875,0,1.581,0.708,1.581,1.58C21.324,16.117,20.618,16.826,19.743,16.826z"/>
	<path d="M13.165,11.892c0.002-0.325-0.045-0.644-0.133-0.952l0.737-0.431l-0.828-1.411L12.205,9.53
		c-0.221-0.225-0.476-0.42-0.757-0.577c-0.003-0.001,0.21-0.835,0.21-0.835l-1.584-0.412L9.865,8.532
		c-0.328-0.016-0.66,0.041-0.969,0.133L8.462,7.929L7.051,8.755l0.434,0.737c-0.228,0.223-0.425,0.48-0.582,0.767
		c-0.002,0-0.002,0-0.002,0.001l-0.818-0.213l-0.438,1.582l0.794,0.214v-0.002c0,0.329,0.064,0.652,0.156,0.963l-0.727,0.432
		l0.834,1.411l0.74-0.431c0.228,0.227,0.493,0.431,0.785,0.589l-0.219,0.818l1.582,0.413c0,0,0.223-0.823,0.224-0.824
		c0.323,0.002,0.64-0.044,0.94-0.132l0.432,0.737l1.413-0.828l-0.432-0.737c0.228-0.225,0.429-0.485,0.586-0.773
		c0.007-0.015,0.007-0.014,0,0.001l0.831,0.215l0.412-1.582l-0.831-0.216C13.166,11.893,13.166,11.893,13.165,11.892z
		 M10.928,12.159c-0.159,0.61-0.781,0.975-1.391,0.816c-0.606-0.158-0.972-0.783-0.813-1.39c0.157-0.609,0.781-0.975,1.391-0.817
		C10.723,10.928,11.088,11.551,10.928,12.159z"/>
</g>
</svg>
