<?xml version="1.0" encoding="utf-8"?>
<!-- Generator: Adobe Illustrator 16.0.4, SVG Export Plug-In . SVG Version: 6.00 Build 0)  -->
<!DOCTYPE svg PUBLIC "-//W3C//DTD SVG 1.1//EN" "http://www.w3.org/Graphics/SVG/1.1/DTD/svg11.dtd">
<svg version="1.1" id="Layer_1" xmlns="http://www.w3.org/2000/svg" xmlns:xlink="http://www.w3.org/1999/xlink" x="0px" y="0px"
	 width="32px" height="32px" viewBox="0 0 32 32" enable-background="new 0 0 32 32" xml:space="preserve">
<g>
	<path d="M0,26.329h6.662V6.565c0-0.656-0.532-1.188-1.189-1.188H1.189C0.532,5.377,0,5.909,0,6.565V26.329z M3.765,24.396H2.896
		v-2.799h0.869V24.396z M1.063,9.584c0-0.51,0.414-0.924,0.924-0.924h2.592c0.51,0,0.924,0.414,0.924,0.924v1.53
		c0,0.51-0.414,0.924-0.924,0.924H1.987c-0.51,0-0.924-0.414-0.924-0.924V9.584z"/>
	<path d="M8.979,26.329h6.662V6.565c0-0.656-0.532-1.188-1.189-1.188h-4.285c-0.657,0-1.189,0.532-1.189,1.188L8.979,26.329
		L8.979,26.329z M11.585,24.396h-0.772v-2.799h0.772V24.396z M13.903,24.396h-0.87v-2.799h0.87V24.396z M10.137,9.584
		c0-0.51,0.414-0.924,0.925-0.924h2.592c0.511,0,0.925,0.414,0.925,0.924v1.53c0,0.51-0.414,0.924-0.925,0.924h-2.592
		c-0.511,0-0.925-0.414-0.925-0.924V9.584z"/>
	<path d="M24.086,6.36c-0.27-0.596-0.967-0.863-1.564-0.599l-4.256,1.881c-0.289,0.128-0.516,0.367-0.629,0.662
		c-0.113,0.296-0.104,0.625,0.027,0.913l7.757,17.204l6.431-2.84L24.086,6.36z M19.958,11.246c-0.208-0.466,0.002-1.014,0.468-1.221
		l2.371-1.056c0.467-0.208,1.014,0.002,1.221,0.468l0.59,1.324c0.102,0.224,0.107,0.479,0.021,0.707
		c-0.088,0.23-0.265,0.414-0.485,0.514l-2.371,1.055c-0.467,0.208-1.015-0.002-1.223-0.467L19.958,11.246z M25.848,24.693
		l-1.451-3.06l0.746-0.354l1.451,3.059L25.848,24.693z M27.512,23.93l-1.451-3.061l0.746-0.354l1.45,3.06L27.512,23.93z
		 M27.812,20.014l0.746-0.354l1.448,3.061l-0.743,0.354L27.812,20.014z"/>
</g>
</svg>
