<?xml version="1.0" encoding="utf-8"?>
<!-- Generator: Adobe Illustrator 16.0.4, SVG Export Plug-In . SVG Version: 6.00 Build 0)  -->
<!DOCTYPE svg PUBLIC "-//W3C//DTD SVG 1.1//EN" "http://www.w3.org/Graphics/SVG/1.1/DTD/svg11.dtd">
<svg version="1.1" id="Layer_1" xmlns="http://www.w3.org/2000/svg" xmlns:xlink="http://www.w3.org/1999/xlink" x="0px" y="0px"
	 width="32px" height="32px" viewBox="0 0 32 32" enable-background="new 0 0 32 32" xml:space="preserve">
<path d="M31.678,18.199V4.746c0-0.813-0.318-1.592-0.894-2.167c-0.576-0.575-1.353-0.896-2.165-0.894L7.007,1.661
	c-2.771,0-4.955,2.325-5.683,4.616c-0.346,1.087-0.706,2.971-0.99,5.158c-0.237,1.85-0.276,3.309-0.128,4.877
	C0.481,19.221,2.81,21.1,6.139,21.1l4.415,0.008c0.062,0.055,0.265,0.473,0.239,1.537c-0.057,2.455,0.222,4.306,1.818,6.488
	c0.913,1.245,2.379,1.99,3.924,1.99c1.035,0,2.025-0.323,2.863-0.938c2.621-1.92,1.717-4.851,1.231-6.425
	c-0.272-0.889-0.223-1.79,0.146-2.649h7.852C30.32,21.111,31.678,19.891,31.678,18.199z M20.561,12.299
	c-0.476,4.812-2.865,7.192-2.252,12.172c0.312,2.508,0.469,3.158-0.344,3.754c-1.054,0.771-2.625,0.523-3.395-0.523
	c-1.21-1.653-1.399-2.93-1.35-4.996c0.035-1.534-0.271-2.611-0.938-3.294c-0.471-0.481-1.093-0.729-1.802-0.729
	c-0.021,0-0.134,0.014-0.154,0.014H6.139c-0.615,0-2.364-0.131-3.146-1.42l0.006-0.006l0,0c0-0.002-0.005-0.002-0.005-0.002H2.989
	c-0.022-0.062-0.483-1.437,1.879-1.599c0.306-0.021,0.546-0.274,0.546-0.579v-0.083c0-0.305-0.24-0.557-0.544-0.579
	c-0.752-0.052-2.054-0.298-2.277-1.356c-0.124-0.433,0.005-0.498,0.081-0.749c0.203-0.335,0.741-0.717,2.117-0.758h0.101
	c0.283,0,0.523-0.229,0.523-0.513v-0.173c0-0.291-0.197-0.546-0.476-0.628c-0.571-0.169-1.5-0.519-1.763-1.064
	c-0.107-1.118,0.812-1.376,2.63-1.438C5.907,7.746,6.003,7.7,6.072,7.625C6.141,7.55,6.175,7.449,6.169,7.348L6.164,7.259
	C6.15,7.055,6.004,6.878,5.802,6.834C5.113,6.684,3.72,6.238,4.978,4.926c0,0,0,0-0.001,0c0.583-0.491,1.289-0.82,2.03-0.82h10.302
	c0.818,0,1.781,1.087,2.164,2.101C19.998,7.607,20.793,9.953,20.561,12.299z M30.381,17.915c0,0.722-0.583,1.312-1.305,1.312h-5.215
	c-0.721,0-1.303-0.59-1.303-1.312s0.582-1.312,1.303-1.312h5.215C29.798,16.604,30.381,17.193,30.381,17.915z"/>
</svg>
