<?xml version="1.0" encoding="utf-8"?>
<!-- Generator: Adobe Illustrator 16.0.4, SVG Export Plug-In . SVG Version: 6.00 Build 0)  -->
<!DOCTYPE svg PUBLIC "-//W3C//DTD SVG 1.1//EN" "http://www.w3.org/Graphics/SVG/1.1/DTD/svg11.dtd">
<svg version="1.1" id="Layer_1" xmlns="http://www.w3.org/2000/svg" xmlns:xlink="http://www.w3.org/1999/xlink" x="0px" y="0px"
	 width="32px" height="32px" viewBox="0 0 32 32" enable-background="new 0 0 32 32" xml:space="preserve">
<g>
	<path d="M27.791,3.77h1.865c0.738,0,1.336-0.598,1.336-1.336V1.402c0-0.738-0.598-1.336-1.336-1.336H3.896
		c-0.738,0-1.336,0.598-1.336,1.336v1.032c0,0.738,0.598,1.336,1.336,1.336H5.76c0.141,4.957,2.119,9.485,5.176,12.074
		c-3.13,2.649-5.126,7.316-5.177,12.438H3.896c-0.738,0-1.336,0.598-1.336,1.336v0.978c0,0.737,0.598,1.336,1.336,1.336h25.76
		c0.738,0,1.336-0.599,1.336-1.336v-0.978c0-0.738-0.598-1.336-1.336-1.336h-1.862c-0.051-5.12-2.048-9.787-5.177-12.438
		C25.672,13.256,27.65,8.727,27.791,3.77z M19.107,16.96l0.5,0.256c3.39,1.658,5.675,6.054,5.734,11.066H8.209
		c0.06-5.013,2.348-9.407,5.737-11.066l0.498-0.251c0.434-0.211,0.708-0.654,0.708-1.137c0-0.482-0.274-0.925-0.708-1.138
		l-0.498-0.237c-3.308-1.617-5.569-5.89-5.734-10.683h17.129c-0.165,4.793-2.428,9.064-5.733,10.682l-0.5,0.241
		c-0.433,0.212-0.705,0.65-0.705,1.133C18.402,16.309,18.675,16.748,19.107,16.96z"/>
	<path d="M11.34,27.027h11.592c-0.396-2.832-2.826-5.068-5.795-5.068C14.166,21.959,11.738,24.195,11.34,27.027z"/>
	<path d="M21.111,11.778h-8.69c1.068,1.197,2.606,1.97,4.345,1.97C18.505,13.748,20.041,12.976,21.111,11.778z"/>
</g>
</svg>
