<?xml version="1.0" encoding="utf-8"?>
<!-- Generator: Adobe Illustrator 16.0.4, SVG Export Plug-In . SVG Version: 6.00 Build 0)  -->
<!DOCTYPE svg PUBLIC "-//W3C//DTD SVG 1.1//EN" "http://www.w3.org/Graphics/SVG/1.1/DTD/svg11.dtd">
<svg version="1.1" id="Layer_1" xmlns="http://www.w3.org/2000/svg" xmlns:xlink="http://www.w3.org/1999/xlink" x="0px" y="0px"
	 width="32px" height="32px" viewBox="0 0 32 32" enable-background="new 0 0 32 32" xml:space="preserve">
<path d="M25.468,10.965c0.188-0.706,0.298-1.445,0.298-2.212c0-4.748-3.849-8.597-8.597-8.597c-4.435,0-8.084,3.36-8.545,7.672
	c-2.677,0.474-4.713,2.799-4.713,5.609c0,2.581,1.713,4.764,4.064,5.471l4.217,7.539c0,0-0.771,4.4-0.764,4.388
	c0.266,0.623,2.273,1.106,4.71,1.106c2.436,0,4.443-0.483,4.709-1.106c0.004,0.009-2.051-9.88-2.051-9.88
	c1.489,0.297,2.795,0.512,3.581,0.512c3.154,0,5.71-2.557,5.71-5.712C28.089,13.742,27.041,11.982,25.468,10.965z M11.153,7.058
	c1.433-4.506,5.428-4.733,5.598-4.74c0.599-0.05,1.181,0.466,1.209,1.105c0.028,0.637-0.462,1.176-1.099,1.21
	c-0.125,0.009-2.571,0.211-3.5,3.128c-0.156,0.493-0.613,0.808-1.105,0.808c-0.117,0-0.235-0.017-0.352-0.055
	C11.297,8.321,10.96,7.668,11.153,7.058z M9.474,11.583c-0.035,0.012-0.849,0.354-1.157,1.073c-0.191,0.447-0.159,0.979,0.1,1.622
	c0.239,0.595-0.049,1.269-0.644,1.508c-0.142,0.057-0.287,0.085-0.432,0.085c-0.46,0-0.895-0.275-1.077-0.727
	c-0.498-1.242-0.52-2.397-0.065-3.435c0.703-1.597,2.271-2.228,2.447-2.295c0.599-0.226,1.269,0.077,1.495,0.677
	C10.365,10.688,10.066,11.352,9.474,11.583z M9.94,19.166c0.736,0.062,1.98,0.307,3.421,0.618l-0.553,3.127v0.003L9.94,19.166z"/>
</svg>
