<?xml version="1.0" encoding="utf-8"?>
<!-- Generator: Adobe Illustrator 16.0.4, SVG Export Plug-In . SVG Version: 6.00 Build 0)  -->
<!DOCTYPE svg PUBLIC "-//W3C//DTD SVG 1.1//EN" "http://www.w3.org/Graphics/SVG/1.1/DTD/svg11.dtd">
<svg version="1.1" id="Layer_1" xmlns="http://www.w3.org/2000/svg" xmlns:xlink="http://www.w3.org/1999/xlink" x="0px" y="0px"
	 width="32px" height="32px" viewBox="0 0 32 32" enable-background="new 0 0 32 32" xml:space="preserve">
<g>
	<path d="M12.064,11.614c0-0.449-0.364-0.812-0.812-0.812H9.76c-0.449,0-0.812,0.364-0.812,0.812v1.245h3.116V11.614z"/>
	<path d="M16.297,11.614c0-0.449-0.364-0.812-0.812-0.812h-1.491c-0.449,0-0.812,0.364-0.812,0.812v1.245h3.116L16.297,11.614
		L16.297,11.614z"/>
	<path d="M20.471,11.614c0-0.449-0.363-0.812-0.812-0.812h-1.491c-0.449,0-0.812,0.364-0.812,0.812v1.245h3.117v-1.245H20.471z"/>
	<path d="M31.754,15.623c0,0-0.016-4.565-0.956-6.496c0,0-0.532-1.007-1.43-0.441s-6.983,4.401-6.983,4.401s-1.128,0.466-2.756,0.5
		c-1.629,0.035-8.896,0.26-8.896,0.26s-2.191-0.029-3.575,1.186c-1.383,1.216-2.881,3.177-2.642,6.665
		c0.239,3.487,2.112,5.829,5.584,6.188l14.212-0.153c0,0,1.336-0.028,2.129-0.762c0,0,1.308-0.785,2.009-3.078l-3.775-2.17
		c0,0,0.067,1.836-1.128,1.836s-12.326-0.137-12.326-0.137s-1.979,0.137-1.979-1.783v-0.998c0,0,0.137-1.726,2.372-1.726
		c2.273,0,8.525,0.298,8.525,0.298s1.342,0.034,3.047,0.879c1.703,0.846,5.646,2.799,5.646,2.799s1.462,0.738,2.136-0.774
		C30.966,22.114,31.809,19.581,31.754,15.623z"/>
	<path d="M6.09,14.598l-2.726,0.084c-0.688-0.043-1.699-0.457-1.699-0.457c-1.024-0.443-1.273,0.608-1.273,0.608
		C0.109,16,0.186,16.846,0.497,17.624c0.3,0.751,0.726,0.524,1.477,0.278c0.752-0.248,1.319-0.362,1.319-0.362l1.033-0.011
		C4.721,15.835,6.09,14.598,6.09,14.598z"/>
</g>
</svg>
