<?xml version="1.0" encoding="utf-8"?>
<!-- Generator: Adobe Illustrator 16.0.4, SVG Export Plug-In . SVG Version: 6.00 Build 0)  -->
<!DOCTYPE svg PUBLIC "-//W3C//DTD SVG 1.1//EN" "http://www.w3.org/Graphics/SVG/1.1/DTD/svg11.dtd">
<svg version="1.1" id="Layer_1" xmlns="http://www.w3.org/2000/svg" xmlns:xlink="http://www.w3.org/1999/xlink" x="0px" y="0px"
	 width="32px" height="32px" viewBox="0 0 32 32" enable-background="new 0 0 32 32" xml:space="preserve">
<g>
	<polygon points="29.671,28.348 27.584,28.348 27.584,26.6 4.508,26.6 4.508,28.348 2.488,28.348 2.488,30.029 0.942,30.029 
		0.942,31.779 31.152,31.779 31.152,30.029 29.671,30.029 	"/>
	<path d="M9.487,25.186v-8.748h1.009v-1.15c0-0.703-0.569-1.273-1.273-1.273H4.77c-0.703,0-1.272,0.57-1.272,1.273v1.15h1.077v8.748
		H9.487z"/>
	<path d="M27.584,25.186v-8.748h1.076V15.29c0-0.703-0.569-1.273-1.271-1.273h-4.451c-0.703,0-1.271,0.57-1.271,1.273v1.149h1.076
		v8.747H27.584L27.584,25.186z"/>
	<path d="M18.501,25.186v-8.748h1.077v-1.15c0-0.703-0.569-1.273-1.271-1.273h-4.453c-0.703,0-1.272,0.57-1.272,1.273v1.15h1.008
		v8.748H18.501z"/>
	<path d="M17.109,2.134c-0.727-0.401-1.604-0.401-2.328,0L1.398,9.538C0.535,10.015,0,10.923,0,11.909v0.83h31.891v-0.83
		c0-0.986-0.535-1.895-1.397-2.372L17.109,2.134z M10.87,9.106c-0.133,0-0.248-0.089-0.281-0.218
		c-0.033-0.128,0.024-0.263,0.141-0.327l4.044-2.241c0.726-0.401,1.606-0.401,2.332,0l4.043,2.241
		c0.117,0.064,0.176,0.198,0.143,0.327c-0.033,0.129-0.148,0.218-0.281,0.218H10.87z"/>
</g>
</svg>
