<?xml version="1.0" encoding="utf-8"?>
<!-- Generator: Adobe Illustrator 16.0.4, SVG Export Plug-In . SVG Version: 6.00 Build 0)  -->
<!DOCTYPE svg PUBLIC "-//W3C//DTD SVG 1.1//EN" "http://www.w3.org/Graphics/SVG/1.1/DTD/svg11.dtd">
<svg version="1.1" id="Layer_1" xmlns="http://www.w3.org/2000/svg" xmlns:xlink="http://www.w3.org/1999/xlink" x="0px" y="0px"
	 width="32px" height="32px" viewBox="0 0 32 32" enable-background="new 0 0 32 32" xml:space="preserve">
<g>
	<path d="M10.697,26.199H4.798c-1.127,0-2.06-0.885-2.06-2.012V5.901c0-1.127,0.933-2.006,2.06-2.006h14.277
		c1.127,0,2.046,0.879,2.046,2.006v15.322l2.637-3.134V3.943c0-1.482-1.171-2.684-2.652-2.684H2.661
		c-1.423,0-2.559,1.153-2.559,2.575v22.382c0,1.482,1.185,2.687,2.669,2.687h10.358l-1.224-1.063
		C11.369,27.377,10.966,26.807,10.697,26.199z"/>
	<path d="M17.977,7.275H6.136c-0.728,0-1.314,0.591-1.314,1.318c0,0.726,0.587,1.317,1.314,1.317h11.84
		c0.728,0,1.312-0.591,1.312-1.317C19.29,7.866,18.703,7.275,17.977,7.275z"/>
	<path d="M17.977,11.667H6.136c-0.728,0-1.314,0.59-1.314,1.318c0,0.724,0.587,1.318,1.314,1.318h11.84
		c0.728,0,1.312-0.594,1.312-1.318C19.29,12.258,18.703,11.667,17.977,11.667z"/>
	<path d="M17.977,16.061H6.136c-0.728,0-1.314,0.558-1.314,1.285c0,0.725,0.587,1.283,1.314,1.283h11.84
		c0.728,0,1.312-0.559,1.312-1.283C19.29,16.619,18.703,16.061,17.977,16.061z"/>
	<path d="M4.821,21.536c0,0.726,0.587,1.284,1.314,1.284h4.418c0.185-0.473,0.469-1.023,0.857-1.479
		c0.408-0.473,0.889-0.82,1.412-1.092H6.136C5.408,20.251,4.821,20.811,4.821,21.536z"/>
	<path d="M17.977,20.251h-0.988c0.324,0.136,0.633,0.366,0.916,0.612l1.312,1.123c0.05-0.135,0.076-0.281,0.076-0.437
		C19.29,20.826,18.703,20.251,17.977,20.251z"/>
	<path d="M31.001,16.73c-0.966-0.828-2.421-0.711-3.246,0.259l-7.565,8.868l-3.782-3.248c-0.967-0.827-2.42-0.717-3.247,0.248
		c-0.829,0.966-0.717,2.418,0.248,3.246l5.533,4.752c0.422,0.358,0.951,0.556,1.5,0.556c0.062,0,0.119-0.002,0.182-0.007
		c0.607-0.047,1.176-0.336,1.572-0.801l9.066-10.627C32.084,19.009,31.971,17.557,31.001,16.73z"/>
</g>
</svg>
