<?xml version="1.0" encoding="utf-8"?>
<!-- Generator: Adobe Illustrator 16.0.4, SVG Export Plug-In . SVG Version: 6.00 Build 0)  -->
<!DOCTYPE svg PUBLIC "-//W3C//DTD SVG 1.1//EN" "http://www.w3.org/Graphics/SVG/1.1/DTD/svg11.dtd">
<svg version="1.1" id="Layer_1" xmlns="http://www.w3.org/2000/svg" xmlns:xlink="http://www.w3.org/1999/xlink" x="0px" y="0px"
	 width="32px" height="32px" viewBox="0 0 32 32" enable-background="new 0 0 32 32" xml:space="preserve">
<g>
	<path d="M20.016,20.766c-0.037,0.07-0.111,0.137-0.111,0.201v6.391c0,1.056-0.889,1.875-1.94,1.875H4.598
		c-1.055,0-1.931-0.82-1.931-1.875V10.241c0-1.054,0.876-1.938,1.931-1.938h13.364c0.384,0,0.741,0.128,1.04,0.323l2.145-2.377
		c-0.377-0.224-0.814-0.34-1.287-0.34H2.597c-1.33,0-2.393,1.067-2.393,2.398v20.95c0,1.388,1.107,2.509,2.495,2.509h17.16
		c1.389,0,2.507-1.121,2.507-2.509V18.189l-2.07,2.32C20.207,20.609,20.12,20.695,20.016,20.766z"/>
	<path d="M5.85,11.586c-0.681,0-1.232,0.516-1.232,1.198c0,0.679,0.552,1.196,1.232,1.196h8.35l2.186-2.394H5.85z"/>
	<path d="M12.823,15.76c0.012-0.042,0.026-0.069,0.042-0.138H5.85c-0.681,0-1.232,0.55-1.232,1.231c0,0.676,0.552,1.229,1.232,1.229
		h6.308L12.823,15.76z"/>
	<path d="M10.105,19.727H6.417H5.85c-0.681,0-1.23,0.551-1.23,1.23c0,0.678,0.55,1.23,1.23,1.23h2.174h0.681h1.401
		c0.545,0,1.005-0.36,1.168-0.847c0.009-0.131,0.03-0.271,0.064-0.397c-0.003-0.617-0.458-1.121-1.053-1.205
		C10.226,19.73,10.166,19.727,10.105,19.727z"/>
	<path d="M23.284,6.013l-7.905,8.811l-0.535,0.597l4.278,3.837l0.535-0.596l7.903-8.81l0.638-0.709l-4.279-3.838L23.284,6.013z
		 M22.848,9.999l-5.097,5.681c-0.065,0.071-0.153,0.114-0.249,0.12c-0.096,0.005-0.189-0.028-0.261-0.092l-0.253-0.227
		c-0.146-0.133-0.159-0.36-0.026-0.509l5.097-5.682c0.063-0.071,0.153-0.114,0.25-0.119c0.094-0.005,0.188,0.028,0.26,0.091
		L22.82,9.49C22.969,9.623,22.98,9.851,22.848,9.999z M24.328,7.3l0.252,0.226c0.146,0.132,0.16,0.358,0.029,0.506
		c0,0-0.002,0.001-0.002,0.002l-0.441,0.494c-0.018,0.02-0.038,0.037-0.059,0.052c-0.057,0.04-0.121,0.064-0.19,0.068
		c-0.095,0.005-0.188-0.028-0.26-0.092L23.404,8.33c-0.071-0.063-0.114-0.153-0.119-0.249c-0.006-0.095,0.027-0.189,0.092-0.26
		l0.443-0.494C23.952,7.18,24.182,7.167,24.328,7.3z"/>
	<polygon points="24.721,4.411 24.332,4.844 28.609,8.682 28.999,8.248 29.662,7.51 25.384,3.672 	"/>
	<path d="M31.382,3.728l-2.426-2.175c-0.245-0.22-0.567-0.334-0.897-0.316s-0.64,0.166-0.858,0.411L25.77,3.242l4.277,3.837
		l1.43-1.594C31.936,4.974,31.895,4.187,31.382,3.728z M29.961,5.48l-2.592-2.325l0.749-0.834l2.591,2.325L29.961,5.48z"/>
	<path d="M13.691,21.844l4.917-2.015l-4.274-3.836L12.861,21.1c-0.065,0.229,0.005,0.476,0.182,0.633
		C13.22,21.891,13.471,21.936,13.691,21.844z M14.723,17.357l2.485,2.229l-1.932,0.792l-1.131-1.014L14.723,17.357z"/>
</g>
</svg>
