<?xml version="1.0" encoding="utf-8"?>
<!-- Generator: Adobe Illustrator 16.0.4, SVG Export Plug-In . SVG Version: 6.00 Build 0)  -->
<!DOCTYPE svg PUBLIC "-//W3C//DTD SVG 1.1//EN" "http://www.w3.org/Graphics/SVG/1.1/DTD/svg11.dtd">
<svg version="1.1" id="Layer_1" xmlns="http://www.w3.org/2000/svg" xmlns:xlink="http://www.w3.org/1999/xlink" x="0px" y="0px"
	 width="32px" height="32px" viewBox="0 0 32 32" enable-background="new 0 0 32 32" xml:space="preserve">
<path d="M23.419,13.383l4.586-8.144l-5.676-3.18l-4.894,8.697l4.697,2.627H23.419z M20.402,9.767
	c-0.104,0.029-0.215,0.015-0.311-0.037L19.79,9.56c-0.197-0.11-0.267-0.358-0.153-0.553l2.602-4.63
	c0.053-0.094,0.141-0.163,0.244-0.192c0.104-0.029,0.216-0.016,0.309,0.037l0.307,0.17c0.192,0.11,0.264,0.358,0.153,0.553
	l-2.603,4.63C20.596,9.668,20.506,9.738,20.402,9.767z M20.279,13.383h-4.327l1.039-1.848L20.279,13.383z M30.616,6.337l-3.97,7.046
	h-2.287l5.139-9.129l0.633,0.375C30.742,4.972,30.96,5.727,30.616,6.337z M27.657,4.021l-4.753-2.67
	c0.738-1.312,2.4-1.778,3.712-1.04C27.93,1.048,28.395,2.708,27.657,4.021z M6.956,13.383H8.27l-0.409-1.539
	c-0.024-0.092-0.012-0.181,0.038-0.263c0.047-0.083,0.127-0.137,0.219-0.161l0.327-0.083c0.19-0.05,0.386,0.047,0.438,0.238
	l0.479,1.809h3.512l-1.772-6.725L5.565,8.103L6.956,13.383z M7.45,8.883l0.327-0.085c0.192-0.05,0.388,0.064,0.439,0.256
	l0.167,0.639c0.024,0.092,0.012,0.19-0.036,0.272c-0.049,0.082-0.127,0.142-0.22,0.166l-0.326,0.086
	c-0.092,0.024-0.189,0.01-0.272-0.038c-0.084-0.048-0.144-0.127-0.166-0.218l-0.168-0.64C7.144,9.129,7.259,8.934,7.45,8.883z
	 M5.013,6.018l5.535-1.453l0.398,1.516L5.411,7.534L5.013,6.018z M4.866,5.463l5.535-1.456L9.859,1.946
	C9.685,1.284,9.007,0.889,8.346,1.062L5.208,1.886C4.89,1.97,4.618,2.176,4.453,2.46C4.287,2.744,4.242,3.082,4.324,3.399
	L4.866,5.463z M8.739,2.125l0.284,1.079L5.671,4.085l-0.284-1.08L8.739,2.125z M4.607,14.898H3.978l3.69,15.564
	c0,0.007-0.001,0.015-0.001,0.021c0,0.672,3.581,1.218,7.995,1.218c4.165,0,7.587-0.484,7.962-1.104h0.011h0.032l3.658-15.698
	h-0.062H4.607z M10.097,29.186c-0.093,0.022-0.184,0.035-0.277,0.035c-0.501,0-0.958-0.339-1.087-0.847L6.28,18.698
	c-0.153-0.601,0.21-1.21,0.811-1.363c0.6-0.151,1.211,0.209,1.365,0.812l2.453,9.678C11.06,28.422,10.697,29.033,10.097,29.186z"/>
</svg>
